<?xml version="1.0" encoding="utf-8"?>
<!-- Generator: Adobe Illustrator 16.0.0, SVG Export Plug-In . SVG Version: 6.00 Build 0)  -->
<!DOCTYPE svg PUBLIC "-//W3C//DTD SVG 1.1//EN" "http://www.w3.org/Graphics/SVG/1.1/DTD/svg11.dtd">
<svg version="1.1" id="Layer_1" xmlns="http://www.w3.org/2000/svg" xmlns:xlink="http://www.w3.org/1999/xlink" x="0px" y="0px"
	 width="361.804px" height="27.45px" viewBox="0 0 361.804 27.45" enable-background="new 0 0 361.804 27.45" xml:space="preserve">
<g>
	<path fill="#D4E1D3" d="M71.101,21.524v-0.299c0,0.299,0,0.299-0.3,0.299h-1.5c-0.3,0.301-0.3,0.301-0.6,0h-0.3h-0.6v0.301
		c-0.3-0.301-0.3-0.301-0.6-0.301v0.301h-0.3c-0.3-0.301-0.3,0.3-1.2,0h-0.3h-0.3h-0.3c-0.3,0-0.3,0-0.3,0.3
		c-0.3-0.3-0.6-0.3-0.6-0.3h-0.3h-0.9h-0.3h-1.2l-0.3,0.3h-0.3H60h-0.3c-0.3,0.3-0.3,0.3-0.3,0h-0.6h-0.6v0.3h-0.6h-0.3
		c-0.3,0.301-0.3,0.301-0.6,0c-0.3,0.301-0.3,0-0.6,0.301h-0.3l-0.3-0.301h-0.6c-0.3,0.301-0.6,0.6-0.6,0.301h-0.9h-0.6h-0.3h-0.3
		h-0.3h-1.2c-0.3,0.299-0.6,0.6-0.6,0.299h-0.3h-0.3c-0.3,0.301-0.6,0-0.9,0.301c0,0.3,0,0.3-0.3,0H48c-0.3-0.301-0.3,0-0.6-0.301
		c-0.3,0.301-0.3,0.301-0.3,0h-0.3c-0.3,0.301-0.3,0-0.6,0.301h-0.3c-0.3,0-0.6,0-0.6,0.3h-0.6c-0.3-0.3-0.3-0.3-0.6,0h-0.3
		c-0.3-0.3-0.3-0.3-0.6,0c0,0.3,0,0.3-0.3,0h-0.3v0.3c0-0.3-0.3,0.301-0.3,0h-0.6c0,0.301,0,0.301-0.3,0.301h-0.3h-0.3h-0.6
		c-0.3,0.299-0.6,0.6-0.6,0.299h-0.9c-0.3,0-0.3,0-0.3,0.301c0.3,0.3,0.3,0.3,0,0.3h-0.3v-0.3v-0.301v-0.299
		c-0.3,0.299-0.6,0.299-0.6,0.299h-0.3L36,24.825v0.3c-0.3,0.3-0.3,0.3-0.3,0c-0.3,0-0.3,0.3-0.6,0.3h-0.3v-0.3v-0.3h-0.3
		c-0.3,0-0.3,0-0.3,0.3v0.3h-0.6c0.3-0.3,0.3,0,0.6-0.3h-0.3c-0.6,0-0.9,0-0.9,0.3c-0.3-0.3-0.6,0-0.9-0.3c-0.9-0.3-0.9,0-1.2,0
		c0,0.3-0.3-0.3-0.3,0l-0.3,0.3h-0.6c-0.9-0.3-0.6,0-1.5,0h-0.9h-0.9c-0.3,0.301-0.9,0.301-1.5,0.301c-0.3,0-0.3,0-0.6-0.301
		c-0.3,0-0.3,0-0.3,0.301h-0.6v0.299h-0.3h-1.5c-0.3,0-0.3,0-0.6,0.301c0-0.301,0-0.301-0.3-0.301h-0.3
		c-0.3,0.301-0.6,0.301-1.2,0.301h-0.6h-0.9c-0.3,0.3-0.6,0-0.9,0.3h-0.3h-1.2l-0.3-0.3c-0.3,0.3-0.3,0.3-0.6,0.3
		c-0.3,0.3-0.3,0.3-0.6,0h-0.3c-0.3,0.3-0.6,0.3-0.9,0.3H9.9c-0.3-0.3-0.3-0.3-0.6,0c-0.3-0.3-0.3-0.3-0.3,0H8.7H8.4
		c-0.3,0-0.6,0-0.6,0.301H7.5H6.6H5.7H5.4c-0.3,0.299-0.3,0.299-0.3,0c-0.3-0.301-0.3-0.301-0.6,0c0-0.9-0.3,0-0.3-0.301
		c-0.3,0-0.3,0-0.6,0.301l-0.3-0.301H3H2.4H1.8v-0.3c0-0.3,0-0.601-0.3-0.601H1.2l-0.6-0.6H0.3c0-0.9-0.3-0.6-0.3-0.9v-0.6l0.6-0.6
		v-0.6v-0.9c-0.3-0.301,0-0.6-0.3-0.9v-0.6c0-0.301,0-0.301,0.3-0.301c0.3-0.299,0.3-0.299,0.3-0.6c0.3-0.3,0.3-0.3,0-0.6v-0.6
		c0.3-0.301,0.6-0.301,0.9-0.301l0.3-0.3l0.6-0.601h1.2c0.3,0,0.3,0,0.6-0.299c0.3,0,0.3-0.301,1.2-0.301v0.301H6
		c0.3-0.301,0.6-0.301,0.9,0h0.6c0-0.301,0.3-0.301,0.6-0.301c0.3-0.3,0.3-0.3,0.3,0c0.3,0.301,0.6,0.301,0.9,0h0.3
		c0.3,0,0.3-0.9,0.3,0h0.6h0.6c0.3,0.301,0.3,0.301,0.3,0c0.3,0.301,0.6,0,0.9,0.301h0.3c0.3-0.601,0.6-0.601,0.9-0.301
		c0-0.3,0-0.3,0.3,0l0.3-0.3h0.6l0.3,0.3c0,0.301,0,0.301,0.3,0h0.6v-0.3c0.3,0,0.3,0,0.3,0.3c0.3-0.9,0.6,0,0.9,0h0.6H18
		c0,0,0.3,0,0.6,0.301h0.3l0.3-0.301h0.6c0.6,0,0.9,0,1.2,0.301l0.3-0.301c0.3-0.3,0.3-0.3,0.6,0h0.3h0.3c0.3,0,0.3,0,0.3-0.3h0.6
		H24h0.3h0.3l0.3-0.3l0.3,0.3c0.3,0,0.3,0,0.3-0.3l0.3,0.3l0.3-0.3h1.2c0.3,0,0.3,0,0.3,0.3s0,0.3,0.3,0c0.3,0.3,0.6,0.3,0.6-0.3
		h0.3h0.6h0.3H30c0.3-0.301,0.3-0.301,0.3,0h0.3h0.3c0-0.301,0.3,0.3,0.3,0l0.3-0.301l0.3,0.301h0.6h0.3H33v-0.301l0.3,0.301
		c0.3-0.301,0.6-0.301,0.9-0.301c0.3,0,0.3,0,0.6,0.301c0.3,0,0.6,0,0.9-0.301c0-0.299,0.3-0.299,0.3,0c0.3,0.301,0.3,0.301,0.3,0
		h0.9h0.9l0.3-0.299h0.3H39l0.3-0.301h0.3c0.9,0,0.6,0.301,1.5,0.301c0.6-0.301,1.2-0.301,1.5,0c0.3,0,0.3,0,0.6-0.301
		c0.9,0.301,0.6,0,1.5,0l0.3-0.3c0.9,0.3,1.2,0,2.1,0c0.3,0.3,0.9,0.3,1.2,0.3c0.3,0,0.3,0,0.6-0.3h0.3c0,0.3,0.3,0.3,0.3,0
		c0.3,0,0.6-0.9,0.9,0h0.3h0.9c0.3-0.3,0.3-0.3,0.6,0c0-0.3,0-0.3,0.3-0.3h0.6h0.6h0.6h0.3c0.3-0.3,0.3-0.3,0.6-0.3h0.9
		c0.3,0.3,0.3,0.3,0.3,0s0.3,0,0.3-0.3c0.3,0,0.3,0,0.3,0.3h0.3c0.3,0,0.6,0,0.6-0.3c0.3,0.3,0.6,0.3,0.9,0c0,0.3,0,0.3,0.3,0.3
		l0.3-0.3H60c0.3-0.3,0.3-0.3,0.6-0.3s0.3,0,0.3,0.3h0.3l0.3-0.3h0.6c0.3-0.3,0.3-0.3,0.3,0l0.3-0.3c0.3,0.3,0.6,0.3,0.6,0.3h0.3
		c0.3,0.3,0.3,0.3,0.3,0h0.6h0.3h0.3c0.3,0,0.6,0,0.9-0.3h0.3c0.9,0.3,0.9,0,1.8,0H69h0.6h1.5c0.3,0,0.3,0,0.3-0.3
		c0,0.3,0,0.3,0.3,0.3c0.3-0.3,0.3-0.3,0.6,0h0.9h1.2h0.6h0.3h0.3c0.3,0,0.3-0.3,0.6-0.3c0-0.3,0.3,0,0.6,0.3c0.3,0,0.6,0,0.6-0.3
		h0.3h1.5c0-0.3,0-0.3,0.3,0l0.3-0.3h0.9h0.6l2.1-0.3h0.6h0.3h0.6h0.3c0-0.3,0.6,0,0.9-0.3c0.3,0,0.3,0,0.6-0.3h0.3
		c0.3,0.3,0.6,0,0.9,0.3h0.3l0.3-0.3c0,0.3,0.3-0.3,0.3,0c0.3,0.3,0.3,0.3,0.6,0.3c0-0.3,0.3-0.3,0.6-0.3c0.3-0.3,0.3,0,1.2-0.3h0.3
		c0,0.3,0.3,0.3,0.6,0.3c0-0.3,0.3-0.3,0.6-0.3c0.9,0,0.9-0.3,1.8-0.3c0.3,0,0.3,0,0.3,0.3l0.3-0.3h0.3h0.6h0.3h0.9
		c0-0.3,0.3-0.3,0.6-0.3h0.6h0.6h0.3c0.3-0.3,0.9-0.3,1.8-0.3c0.3,0,0.6,0,0.9-0.3h0.9h0.6h0.9c0.3,0,0.3,0,0.6-0.3h0.3h0.3
		c0-0.3,0-0.3,0.3,0h0.6h0.3c0-0.3,0-0.3,0.3,0c0-0.3,0-0.3,0.3,0v-0.3h0.3c0.3,0.3,0.3,0.3,0.3,0h0.3l1.8-0.3h0.3h0.3h0.3
		c0-0.3,0-0.3,0.3,0c0.3-0.3,0.3-0.3,0.3,0c0.3,0,0.3,0,0.6-0.3c0.6,0,0.9,0,1.2-0.3h0.3c0.3,0.9,0.9,0,1.2,0.3l0.3-0.3
		c0.9,0.3,1.2,0,1.5,0c0.3-0.3,0.6-0.6,0.6-0.3c0.3,0,0.3,0,0.6,0.3c0.3,0,0.3,0,0.6-0.3c0-0.3,0-0.3,0.3,0l0.9-0.3h0.3h0.6
		c0.3-0.3,0.6-0.3,1.5-0.3c0.3,0,0.3,0,0.6-0.3c0.3,0.3,0.6,0.3,0.9,0c0.3-0.3,0.3-0.3,0.3,0l0.3-0.3c0.3,0.9,0.6-0.6,0.9,0.3h0.3
		l0.3-0.3c0.3,0,0.3,0,0.3,0.3l0.3-0.3h0.6h0.6c0.3-0.3,0.6-0.6,0.6-0.3c0.3,0,0.3,0,0.3,0.3c0-0.3,0.3-0.3,0.9-0.3
		c0,0.3,0.3-0.3,0.3,0h0.3h0.3c0.3,0,0.6,0,0.9-0.3c0,0.3,0.3-0.3,0.3,0l0.3,0.3h0.6c0.3-0.3,0.6-0.6,0.6-0.3h0.3h0.3h1.5
		c0-0.9,0,0,0.3,0c0-0.3,0-0.3,0.3-0.3h0.6h0.9v-0.3c0.3,0.9,0.6,0,0.9,0.3h0.3c0.3-0.3,1.2-0.3,2.1-0.3c0.3,0,0.6,0,0.9-0.3
		c0.3,0,0.3,0,0.3,0.3c0-0.3,0-0.3,0.3-0.3v0.3l0.3-0.3h0.6h0.6h0.6h0.6c0.3-0.3,0.6-0.6,0.6-0.3h0.6h0.6h0.6c0.3,0,0.3,0,0.3-0.3
		c0,0.3,0.3,0.3,0.3,0h0.3c0.3,0.3,0.3,0,0.6,0.3c0.3,0,0.6,0,0.9-0.3c0.3,0,0.3,0,0.3,0.3c0,0.3,0,0.3-0.3,0.3
		c-0.3-0.3-0.3-0.3-0.3,0h-0.6c0.3,0.3,0.6,0.6,0.9,0.3h0.3c0-0.3,0.3-0.3,0.3,0c0.3,0,0.3,0,0.3-0.3h0.3h0.3c0.3,0.3,0.3,0.3,0.3,0
		l0.3-0.3c0.3,0.3,0.3,0,0.6,0.3c0.3-0.3,0.3-0.3,0.3,0c0.3,0,0.3,0,0.6-0.3c-0.3,0-0.3,0-0.6-0.3v-0.3h0.3c0.3,0,0.6,0,0.9-0.3
		c0.3,0,0.3,0,0.3,0.3h0.3c0-0.3,0.3,0,0.6,0.3v0.3v0.3l0.3-0.3c0,0.3,0,0.3,0.3,0.3l0.3-0.3h0.3c0.3,0,0.3,0,0.6-0.3h-0.6v-0.3
		v-0.3h0.3h0.3l0.3,0.3v-0.3c0.3,0,0.3-0.3,0.6-0.3c0.3,0,0.3,0,0.3,0.3c0.3,0,0.3,0,0.3-0.3h0.3h0.6c0,0.3-0.3,0.6-0.3,0.9h0.6
		c0.3-0.3,0.6,0,0.9-0.3c-0.3,0-0.3,0-0.3-0.3c-0.3,0.3-0.3,0.3-0.3,0v-0.3c0.3,0,0.6,0,0.6-0.3h0.3c0,0.9,0.3,0.3,0.3,0v0.3v0.3
		v0.3c0.3-0.3,0.3-0.3,0.3,0h0.3c0-0.3,0.3,0.3,0.3,0l0.3-0.3c0.3,0.3,0.6,0.3,0.9,0c0,0.3,0,0.3,0.3,0h0.3v0.3
		c0.6,0,1.2-0.3,2.1-0.6h0.9c0.3,0,0.3,0,0.6-0.3v0.3c0.3,0,0.6,0,0.6-0.3h0.3c0.9,0.3,0.6,0,0.9,0h0.6h0.3h0.3c0.3,0,0.3,0,0.3,0.3
		l0.3-0.3h0.6h1.5h1.2c0.3,0.3,0.6,0.3,0.9,0.3h0.3l0.3-0.3h0.6h0.9h0.6h0.6h0.3h1.2h0.3h0.6v-0.3h0.6h0.6c0.899,0,0.899,0.3,1.8,0
		l0.301,0.3l0.299-0.3h0.601h0.601h0.899h0.3l0.301-0.3h0.3h0.6h0.3c0-0.3,0.301-0.3,0.301,0h0.3h0.3c0-0.3,0-0.3,0.3,0
		c0.3-0.3,0.3-0.3,0.3,0h0.301c0.899,0,1.8-0.3,2.699-0.3h0.601h0.3h0.6c0.301,0,0.301,0,0.601-0.3c0,0.3,0,0.3,0.3,0.3v-0.3
		c0,0.3,0,0.3,0.3,0l0.3,0.3h0.301c0-0.3,0.6,0,0.6-0.3h0.301c0,0.3,0,0.3,0.299,0.3c0-0.3,0-0.3,0.301,0c0.3-0.9,0.6-0.3,0.6-0.6
		h0.301v0.3c0,0.3,0.299,0.3,0.299,0h0.601c0.3,0.3,0.3,0.3,0.601,0h0.299h1.201c0-0.3,0-0.3,0.299,0h0.301c0-0.3,0-0.3,0.3-0.3h0.3
		c0.301,0.3,0.301,0.3,0.6,0.3c0.301,0,0.301,0,0.301-0.3c0,0.3,0.3,0.3,0.3,0h0.3c0.301,0,0.301,0,0.6-0.3v0.3
		c0-0.3,0.301,0.6,0.301-0.3c0,0.9,0.3,0,0.3,0.3c0.3,0,0.3,0,0.3-0.3h0.301c0,0.3,0.299,0.3,0.6,0h0.3h0.3h0.6c0,0.3,0,0.3,0.301,0
		c0,0.3,0.3,0.3,0.6,0h0.301h0.299h0.301l0.3-0.3h0.3h0.301h0.6h0.6h0.6h0.601v0.3c0.3-0.3,0.601-0.3,0.899-0.3
		c0.301-0.3,0.301-0.3,0.301,0c0,0.3,0.3,0.3,0.3,0h0.3c0,0.3,0.301-0.3,0.301,0h0.299h0.301h0.6h0.6c0.301,0,0.301,0,0.301-0.3h0.3
		c0,0.3,0.3,0.3,0.601,0h0.299c0.301,0.3,0.601,0.3,0.9,0h1.2h0.3c0.301,0.3,0.9,0.3,1.2,0c0-0.3,0-0.3,0.3,0
		c0.301,0,0.301,0,0.6-0.3l0.301,0.3c0.3,0,0.3-0.9,0.6,0h0.301h0.6c0.3,0,0.6,0,0.9-0.3c0.3,0.3,0.3,0.3,0.6,0h0.3h0.3h0.301h0.3
		h0.3h0.6c0.301-0.3,0.301-0.3,0.301,0h0.3h0.3c0-0.3,0.3,0,0.3-0.3c0,0.3,0,0.3,0.3,0.3c0.301,0,0.301,0,0.301-0.3h0.3
		c0.3,0,0.6,0,0.6,0.3c0.3-0.9,0.3,0,0.601,0h0.6l0.6-0.3h0.601h0.6c0,0.3,0,0.3,0.3,0c0.9,0.3,0.601,0,1.5,0h0.601h1.2h0.3h2.7h0.3
		h0.601h0.299h0.301c0.3,0,0.6-0.3,0.9-0.3c0,0.3,0,0.3,0.299,0.3c0.301,0,0.601,0,0.9-0.3h0.301v0.3c0.299-0.3,0.899-0.3,1.199,0
		c0-0.3,0-0.3,0.301,0h0.299c0-0.3,0.301,0,0.301-0.3h0.3l0.3,0.3l0.301-0.3h0.899h0.601h0.899h0.601h0.6h0.6h0.6
		c0.301-0.3,0.301-0.3,0.301,0h0.3c0.3-0.3,0.3-0.3,0.3,0c0.301,0.3,0.301,0.3,0.301,0h0.299c0-0.3,0.301,0.3,0.301,0
		c0.3-0.3,0.3-0.3,0.6,0c0.301-0.3,0.301-0.3,0.301,0h0.899h0.3h0.301h0.6h0.3c0.3-0.3,0.899,0,1.2-0.3v0.3c0.3,0.3,0.3,0.3,0.3,0
		h0.3h0.301c0.299,0,0.6,0,0.6-0.3h0.9c0.6,0.3,0.899,0.3,1.199,0c0,0.3,0,0.3,0.301,0.3h0.6c0.3-0.3,0.9-0.3,1.5,0
		c0.3,0,0.6,0,0.9-0.3h0.3h1.5h0.899l0.601,0.3c0.3-0.3,0.6-0.3,0.899-0.3h1.2c0,0.3,0,0.3,0.3,0h0.301h0.3c0.3-0.3,0.899,0.3,1.2,0
		l0.3,0.3c0.3-0.3,0.3-0.3,0.3,0l0.6-0.3h0.601h0.601h0.299c0.301-0.3,0.301-0.3,0.301,0h0.3h0.3h1.5h0.301h0.6
		c0.3,0.3,0.3,0.3,0.3,0h0.3l0.301,0.3c0-0.3,0-0.3,0.299,0c0.301,0,0.301,0,0.301-0.3c0.3,0,0.3,0.3,0.6,0.3v-0.3l0.301,0.3h0.6
		h0.3c0.3-0.3,0.3-0.3,0.3,0c0-0.9,0.301,0.6,0.6-0.3c0,0.3,0.301,0.3,0.301,0h0.6h0.301c0.299,0,0.299,0.3,0.6,0.3l0.3-0.3h1.2h0.6
		c0.301,0,0.301,0,0.6,0.3c0.301-0.3,0.301-0.3,0.301,0h0.3h0.601c0.299,0,0.299,0,0.299-0.3c0.301,0.3,0.601,0.3,0.601,0h0.3
		c0.301,0,0.301,0.6,0.6,0.3h0.301h0.6h0.6h0.601h0.601c0.299,0.3,0.299,0.3,0.6,0c0.3,0.3,0.6,0,0.9,0.3h0.6c0.3-0.3,0.3,0.3,0.6,0
		c0.301-0.3,0.301-0.3,0.6,0h0.9h0.9c0,0.3,0,0.3,0.3,0c0.3,0,0.3,0,0.3,0.3c0.301,0,0.301,0,0.601-0.3c0,0.3,0,0.3,0.3,0.3l0.3-0.3
		c0,0.3,0.3,0.3,0.601,0.3c0.3,0.3,0.3,0.3,0.6,0h0.6h0.601h0.3c0.3,0,0.3,0,0.3,0.3h0.3c0-0.3,0.301-0.3,0.601-0.3s0.3,0,0.3,0.3
		h0.6l0.301-0.3v0.3c0.3,0.3,0.3,0.3,0.3,0h0.6h0.3c0.301,0.3,0.301,0.3,0.301,0h0.3h0.3c0.3,0.3,0.3,0.3,0.6,0
		c0.301,0,0.301,0,0.301,0.3c0.3,0,0.3-0.3,0.6-0.3c0.9,0,0.9,0.3,1.8,0.3c0.3,0,0.3,0,0.601-0.3c0,0.3,0,0.3,0.3,0.3h0.3h0.6h0.601
		c0.3,0.3,0.601,0.3,0.601,0.3h0.6h0.6h0.6h0.601c0.3,0.3,1.2,0.3,2.101,0.3c0.299-0.3,0.299-0.3,0.299,0
		c0.301,0.3,0.301,0.3,0.301,0h0.3h0.3c0-0.3,0.301,0,0.6,0.3l0.301-0.3c0.3,0.3,0.3,0.3,0.6,0h0.301c0-0.3,0.299,0,0.6,0.3h0.9
		h0.299c0,0.3,0,0.3,0.301,0.3c0.3-0.9,0.3,0.3,0.6,0v-0.3c0.301,0.3,0.6,0.3,0.6,0.3h0.601h0.601h0.6c0,0.3,0,0.3,0.3,0.3h0.3h0.6
		h1.201v-0.3v0.3h0.299h0.301v0.3c0.3,0,0.9,0.3,1.199,0.3h0.301h0.3h1.5h0.3c0.301,0,0.6,0,0.9,0.3c0,0.3,0.3,0,0.6-0.3l0.6,0.3
		c0.301-0.3,0.301-0.3,0.301,0h0.6l0.301,0.3c0.299-0.3,0.299-0.3,0.299,0h0.601c0.3-0.3,0.3-0.3,0.3,0h0.601h0.3h0.6h0.301
		c0,0.3,0,0.6,0.3,0.3l0.3,0.3c0-0.3,0.3,0,0.3-0.3h0.601c0,0.3,0.3,0,0.3,0.3h0.3c0.3,0.3,0.6,0.3,0.6,0h0.601h0.6
		c0,0.3,0,0.3,0.3,0.3h0.301h0.3h0.3h0.3v0.3c0.3,0.3,0.601,0.3,0.9,0h0.3c0.3,0.3,0.6,0.3,0.9,0.3h0.899v0.3l0.3,0.3
		c0-0.3,0-0.3,0.301-0.3h0.6l0.3,0.3h0.601c0.3,0,0.3,0,0.3,0.3c0.3,0,0.3,0,0.6-0.3h0.3c0,0.3,0,0.3,0.301,0.3h0.3h0.601h0.299
		h0.601c0.3,0,0.3,0.3,0.3,0.6h0.301h0.299c0.601,0,0.9,0,1.201,0.3h0.6c0.3,0,0.3,0.6,0.6,0.3h0.301h0.6c0,0.9,0.3,0.9,0.6,0.6
		c0.301,0,0.6,0,0.9,0.3c0.3,0,0.3,0,0.3-0.3h0.601c0.299,0.3,0.299,0.3,0.6,0h0.3c0.3,0.3,0.3,0.3,0.601,0.3
		c0.299,0,0.299,0,0.299,0.3c0,0.3,0,0.3,0.301,0.3h0.3v1.5v0.3c-0.3,0.3-0.3,0.6-0.3,0.6l-0.301,0.3c-0.299,0.9-0.6,1.2-0.6,1.2
		c-0.3,0.3-0.6,0.6-0.3,0.9h-0.3c0,0.3-0.301,0.3-0.301,0.6v0.301h-0.299c-0.301,0-0.601,0-0.601,0.299
		c-0.3,0.301-0.3,0.301-0.3,0.601c-0.301,0.3-0.6,0.601-0.9,0.3c-0.3,0.301-0.3,0.301-0.3,0c-0.3,0-0.3,0-0.3-0.3
		c-0.301,0-0.301,0-0.6-0.3c-0.301,0-0.301,0-0.301-0.301h-0.3c-0.3,0-0.899,0-1.2-0.299c-0.3,0-0.3,0-0.3,0.299l-0.3-0.299
		c-0.301,0-0.301,0-0.6-0.301l-1.5-0.3c-0.301,0-0.301,0-0.301-0.3c-0.3,0.3-0.3,0.3-0.3,0h-0.3c-0.9-0.9-1.2,0.3-1.5-0.6h-0.601
		h-0.3v-0.3c-0.3,0.3-0.3,0.3-0.6,0h0.6c-0.3,0-0.3-0.3-0.6-0.3h-0.301h-0.3h-0.3h-0.3h-0.3c-0.301,0-0.301,0-0.601,0.3v-0.3h-0.6
		c0.3,0,0.3,0,0.3-0.3v-0.3l-0.3,0.3v-0.3h-0.3h-0.301c0-0.3-0.3-0.3-0.3,0h-0.3v-0.3l-0.3,0.3c-0.3,0-0.3,0-0.3-0.3h-0.301
		c0-0.3-0.3-0.3-0.3,0c-0.3,0.3-0.6,0.3-0.6-0.3h-0.3c-0.301,0-0.301-0.3-0.601-0.3h-0.3h-0.3h-0.601h-0.6c-0.3,0.3-0.3-0.3-0.6,0
		c0-0.3,0-0.3-0.301,0l-0.3-0.3h-0.3c0-0.3-0.3-0.3-0.6-0.3c-0.301,0-0.601,0-0.601-0.3c0,0.3-0.3,0.3-0.3,0
		c-0.301,0.3-0.301-0.6-1.2,0.3v-0.3c0-0.3,0-0.3-0.3-0.3c0,0.3-0.301,0.3-0.301,0c-0.299,0.3-0.299,0.3-0.6,0c-0.3,0-0.6,0-0.6-0.3
		c-0.9,0.9-0.6,0-0.9,0.3c-0.3,0-0.3-0.3-0.6-0.3c-0.301,0.3-0.301,0-0.301-0.3c-0.299,0-0.6,0-0.6,0.3l-0.3-0.3h-0.3h-0.301h-0.299
		h-0.301h-0.3h-0.3h-0.6c0,0,0-0.3-0.301-0.6v0.3h-0.6c-0.301-0.3-0.301-0.3-0.6,0c-0.301,0-0.301,0-0.601-0.3h-0.3h-0.6h-0.301
		h-0.3c-0.3,0-0.601,0-0.899-0.3c-0.301,0.3-0.601,0.3-0.601,0h-0.601h-0.899c-0.3,0-0.3,0-0.3-0.3l-0.301,0.3v-0.3h-0.299
		c0,0.3-0.301,0.3-0.301,0v-0.3c-0.3,0-0.3,0-0.3,0.3c-0.3,0.3-0.3,0.3-0.3,0c-0.301-0.3-0.6-0.3-0.6,0c-0.301,0-0.601-0.9-0.601,0
		c0-0.3-0.3-0.3-0.3,0h-0.301c0-0.3-0.299-0.3-0.6-0.3h-0.3c0-0.3,0-0.3-0.3-0.3c0,0.3,0,0.3-0.301,0c-0.299,0-0.299,0-0.299-0.3
		c0,0.3-0.301,0.3-0.301,0l-0.3,0.3c-0.3-0.3-0.3-0.3-0.3,0h-0.301c-0.299-0.3-0.6-0.3-1.5-0.3h-0.6h-0.3c-0.3,0-0.3,0-0.3-0.3
		l-0.301,0.3c-0.3-0.3-0.6-0.6-0.6-0.3h-0.6h-1.2h-0.3c0-0.3-0.301-0.3-0.301,0c-0.3,0-0.6,0-0.899-0.3h-0.9c0,0.3-0.3-0.3-0.3,0
		h-0.9h-0.3h-0.3c0,0.3,0,0.3-0.3,0c-0.3-0.3-0.3-0.3-0.3,0h-0.301h-0.6h-0.3c-0.9-0.3-0.9,0-1.2-0.3c-0.3,0-0.3,0.9-0.6,0h-0.301
		h-0.3h-0.3h-0.3h-0.601c0-0.3,0-0.3-0.3,0c0,0.3-0.3,0.3-0.3,0h-0.3c-0.3-0.3-0.3,0.3-0.601,0c-0.3-0.3-0.3-0.3-0.3,0
		c-0.3-0.3-0.601-0.3-0.601,0c-0.299,0-0.299,0-0.299-0.3h-0.301c-0.3,0.3-0.3,0.3-0.3,0h-0.3c-0.301,0-0.301,0-0.6,0.3h-0.601v-0.3
		h-0.3c0,0.3-0.301,0.3-0.6,0.3l0.299-0.3l-0.299-0.3h-0.301c-0.3,0.3-0.3,0-0.6,0.3h-0.301c-0.299,0-0.299,0-0.299,0.3v-0.3h-0.301
		c0,0.9-0.3,0.9-0.3,0c0-0.3-0.3-0.3-0.3,0v0.3h-0.6c0-0.3,0-0.3-0.301,0c-0.3,0-0.3,0-0.3-0.3c0-0.3-0.3-0.3-0.601,0
		c-0.299,0.3-0.299,0.3-0.299,0c-0.301,0.3-0.601,0.3-0.601,0.3c-0.3-0.3-0.601-0.3-0.899-0.3l-0.301-0.3h-0.3
		c-0.3-0.3-0.3-0.3-0.3,0h0.3v0.3h-0.899l-0.301-0.3h-0.3c-0.3,0-0.3,0-0.3,0.3h-0.301l0.301-0.3h-0.301c-0.299,0-0.6,0-0.6-0.3
		c-0.3,0-0.6,0.3-0.9,0.6c-0.299,0-0.299,0-0.299-0.3c-0.301-0.3-0.301-0.3-0.301,0c-0.3,0-0.3,0-0.3-0.3c-0.3,0-0.3,0-0.3,0.3v0.3
		c-0.301,0-0.301,0-0.301-0.3c-0.299-0.3-0.299-0.3-0.6-0.3v0.3v0.3c-0.3-0.3-0.3-0.6-0.3-0.6c-0.3,0-0.3,0.3-0.3,0.6l-0.301-0.3
		h0.301l-0.301-0.3c-0.299,0-0.6,0.3-0.6,0.6h-0.3v-0.6c-0.3,0-0.601,0-0.601,0.3h-0.299h-0.601h-0.3c-0.301,0.3-0.6,0.6-0.6,0.3
		c-0.301,0-0.301,0-0.301-0.3h-0.3c-0.3,0.3-0.3,0.3-0.601,0.3h-0.6h-0.6h-0.6h-0.9c-0.301-0.3-0.301-0.3-0.301,0h-0.3h-0.3h-0.3
		h-0.3h-0.601v-0.3c0-0.3,0-0.3-0.3-0.3h-0.3c-0.3-0.3-0.3,0-0.3,0.3v0.3h-0.301v-0.3v-0.3h-0.6c-0.3-0.3-0.3,0-0.3,0.3v0.3
		l-0.3-0.3c-0.301-0.3-0.301-0.3-0.301,0l-0.3,0.3v-0.6h-0.3h-0.3c0-0.3,0-0.3-0.3,0c-0.301,0.9-0.601,0.3-0.9,0.6h-0.3h-0.3h-0.301
		h-0.6h-0.3h-0.3c-0.301,0-0.601,0-0.601-0.3c-0.3-0.3-0.3-0.3-0.3,0l-0.3,0.3h-0.3h-0.601h-0.3h-0.6h-0.301h-0.3
		c0-0.3-0.3,0-0.3-0.3c0-0.3-0.3-0.6-0.3,0.3h-0.3h-0.301c0-0.3,0-0.3-0.3,0h-0.3c-0.301-0.3-0.301-0.3-0.301,0l-0.299-0.3
		c-0.301,0-0.301,0-0.301-0.3v0.3c-0.3,0.3-0.3,0.3-0.6,0.3h-0.6c-0.301,0-0.301,0-0.301,0.3h-1.199v-0.3h-0.301
		c-0.3,0.3-0.6,0.3-1.199,0.3v-0.3v-0.3c-0.301-0.3-0.301-0.3-0.301,0c0,0.3,0,0.6-0.3,0.6l-0.3-0.3v0.3c0-0.9-0.301-0.3-0.301,0
		c-0.299,0-0.299-0.3-0.299-0.6c0,0.3,0,0.6-0.301,0.6c-0.3,0-0.3,0-0.3-0.3v-0.3h-0.3c0,0.3,0,0.6-0.301,0.6
		c-0.299-0.3-0.299-0.3-0.299,0h-0.301h-0.3h-6.3c-0.301,0.3-0.301,0.3-0.301,0h-0.299h-0.301h-0.6l-0.301,0.3h-0.6h-1.199h-0.601
		c-0.3,0-0.899,0-1.2,0.3v-0.3c-0.3,0-0.3,0-0.3,0.3h-0.3c0,0.3-0.301-0.3-0.301,0c-0.299,0.3-0.299,0-0.6-0.3h-0.6
		c-0.301,0.3-0.6,0.3-0.9,0.3h-1.199c-0.301,0-0.301,0-0.301-0.3c-0.3,0.3-0.6,0.3-0.6,0.3l-0.301,0.3c-0.3-0.3-0.6-0.3-0.899-0.3
		h-0.9h-0.899h-0.9c-0.3,0.3-0.3,0.3-0.6,0l-0.301,0.3c0,0.3-0.3,0-0.6-0.3l-0.3,0.3l-0.3-0.3h-0.301c-0.3,0.3-0.6,0.3-0.899,0.3
		s-0.3,0-0.3-0.3l-0.301,0.3h-0.3c-0.899-0.3-0.6,0.3-1.5,0h-0.6c-0.3,0-0.601,0-0.601-0.3c0,0.9,0,0-0.3,0h-0.3
		c-0.301,0-0.301,0-0.301,0.3l-0.299,0.3c-0.301-0.3-0.301-0.3-0.601,0c-0.3,0-0.3,0-0.3-0.3h-0.301h-0.6l-0.3,0.3
		c-0.3,0-0.3,0-0.3-0.3v0.3h-0.6c-0.9-0.3-1.801-0.3-2.701-0.3l-0.299,0.3h-0.301c-0.9-0.3-0.9,0-1.8,0h-0.601h-0.6h-0.3h-0.601
		h-0.299h-0.301c-0.3,0.3-0.6,0-0.9,0.3h-1.199h-0.301v0.3c-0.299-0.3-0.299-0.3-0.6-0.3h-0.9h-0.899h-0.899l-1.201,0.3h-0.6h-0.9
		c-0.299,0-0.299,0-0.299,0.3h-0.301l-0.3-0.3c-0.3,0-0.601,0-0.601,0.3h-0.6h-0.6h-0.6h-0.601c-0.3,0-0.3,0-0.3,0.3h-0.301
		c-0.299-0.3-0.6-0.3-0.899-0.3h-0.601h-0.6l-0.3,0.3c0-0.3-0.3,0-0.3-0.3h-0.301h-0.3c0,0.3,0,0.3-0.3,0.3v-0.3l-0.3,0.3
		c-0.601-0.3-0.9-0.3-1.2,0h-0.6h-2.7h-0.601c-0.3,0.3-0.3,0-1.199,0.3c0-0.3,0-0.3-0.301-0.3v0.3h-0.6h-0.3h-0.3
		c-0.9,0-1.5,0-1.801,0.3c-0.3,0-0.3,0-0.3-0.3h-0.3c-0.301,0.3-0.6,0.3-0.6,0.3h-2.101h-0.6c-0.3,0.3-0.6,0.3-0.6,0.3h-0.6h-0.6
		h-0.6c-0.3,0-0.3,0-0.6,0.3h-0.3h-0.6l-4.8,0.3h-0.6h-0.3h-0.6h-0.6h-0.3c0,0.3-0.3,0.3-0.6,0.3h-2.7h-0.3v0.3h-0.3
		c0-0.3-0.3,0.3-0.3,0h-0.3h-1.2h-0.3c-0.3,0.3-0.6,0.3-0.6,0h-0.3c-0.3,0.3-0.9,0-1.2,0.3c-0.3,0.3-1.2,0.3-2.4,0.3h-0.3h-0.3
		l-0.3,0.3l-0.3-0.3l-3.3,0.6c-0.3-0.3-0.3-0.3-0.3,0h-0.3c0-0.3-0.3-0.3-0.3,0h-0.3h-0.6h-0.6c-0.3,0.3-0.3,0.3-0.3,0h-0.6
		c0,0.3-0.3,0-0.3,0.3c-0.9-0.3-0.9,0-1.2-0.3v0.3h-0.6c0,0.3-0.3,0-0.3,0.3c-0.3-0.9-0.6,0-0.6-0.3h-0.3c-0.3,0.3-0.6,0.3-0.9,0.3
		h-0.6h-0.3h-0.6h-0.3h-0.6h-0.9h-0.3h-0.3l-0.3,0.3h-0.3c0,0.3,0,0.3-0.3,0.3c-0.3-0.3-0.6-0.3-0.9-0.3h-0.6h-0.3
		c-0.3,0.3-0.9,0-1.2,0.3c0,0.3-0.3,0.3-0.3,0h-0.3c-0.3,0-0.3,0-0.3,0.3c-0.3,0-0.3-0.3-0.6-0.3v0.3c-0.3,0.3-0.3,0.3-0.3,0h-0.3
		h-1.2v0.3c-0.3-0.3-0.3-0.3-0.6-0.3c0,0.3-0.3,0.3-0.3,0l-0.3,0.3c-0.3-0.3-0.3-0.3-0.6-0.3l-0.3,0.3c-0.3-0.3-0.3-0.3-0.3,0h-0.3
		h-0.6h-0.9h-0.6h-0.3h-0.6c-0.3,0-0.3,0-0.3,0.3h-0.6h-0.6c-0.3,0.3-0.3,0.3-0.3,0h-0.6l-0.3,0.3h-0.3h-0.6h-0.6h-0.6h-0.3v0.301
		h-0.6h-0.3h-0.6c-0.3,0.299-0.3,0.299-0.6,0h-0.3c-0.3,0-0.3,0.899-0.6,0c-0.3,0.299-0.6,0.299-0.9,0.299s-0.3,0-0.6,0.301h-0.9
		c-0.3,0-0.3,0-0.3,0.3h-0.6c0,0.3-0.3,0.3-0.3,0h-0.3v0.3h-1.5h-0.9c-0.3,0.301-0.3,0.301-0.3,0h-0.3
		c-0.3,0.301-0.3,0.301-0.6,0.301h-0.3c-0.9-0.301-1.2,0.299-1.5,0h-0.9l-0.3,0.299c-0.3,0-0.6,0.301-1.5,0.301c0,0.3,0,0.3-0.3,0
		c-0.3,0.3-0.3,0.3-0.3,0c-0.3,0.3-0.3-0.301-0.6,0c-0.3-0.301-0.3,0.9-0.6,0l-0.3,0.3c-0.3-0.3-0.6,0.3-0.9,0h-0.6
		c-0.3,0-0.3,0-0.6,0.3h-0.9h-2.1c-0.3,0-0.3,0-0.6,0.301c0-0.301,0-0.301-0.3,0c-0.3-0.301-0.3-0.301-0.3,0h-0.3
		c0,0.299,0,0.299-0.3,0.299c0-0.299,0-0.299-0.3-0.299h-0.6l-0.3,0.299h-0.6l-0.3,0.301h-0.3h-0.6c-0.3-0.301-0.3,0.3-0.6,0.3v0.3
		v-0.3l0.3,0.3v0.301h-0.6h-0.3h-0.3c-0.3,0-0.6,0-0.9,0.299v-0.299v-0.301h0.3v-0.3h-0.6c-0.3-0.3-0.3-0.3-0.3,0h-0.6h-0.3h-0.3
		c0,0.3-0.3,0.3-0.3,0v0.3v0.301h0.9v0.299l-2.7,0.301h-0.3v-0.301v-0.299l0.3,0.299c0.3-0.299,0.3-0.299,0.3,0h0.3v-0.299h0.6h0.3
		c0.3,0,0.3,0,0-0.301h-0.3c0,0.301,0,0.301-0.3,0c0-0.3-0.3-0.3-0.6-0.3c0,0.3,0,0.3-0.3,0.3h-0.3h-0.3c0,0.301,0,0.301-0.3,0.301
		s-0.3,0-0.3-0.301h-0.3l-0.3,0.301h-0.3h-0.3v-0.301h-0.3l-0.3,0.301h-0.3h-0.6h-0.9c-0.3,0.299-0.3,0.299-0.6,0.299h-0.9h-0.3
		h-0.6c-0.3,0.301-0.3,0.301-0.3,0c-0.3,0-0.3,0-0.3,0.301c-0.3-0.301-0.3-0.301-0.3,0h-0.9c0-0.301-0.3,0.3-0.6,0
		c-0.3,0-0.3,0-0.3,0.3c-0.3-0.3-0.3-0.3-0.6-0.3c-0.3,0.3-0.6,0.6-0.9,0.3h-0.3c0,0.3-0.3,0-0.3,0.3h-0.3h-0.3v0.301
		c0,0.299,0,0.299,0.3,0v0.299c0,0.301,0,0.301-0.3,0l-0.3,0.301h-0.6c-0.3-0.301-0.3-0.301-0.3,0c-0.3,0.3-0.6,0.3-0.9,0h-0.3v0.3
		h-0.6h-0.6h-0.3h-0.3h-0.3l-0.3,0.3c-0.3,0-0.3,0-0.6-0.3c0-0.3,0.3-0.3,0.6-0.3l-0.3-0.301h-0.3c-0.3,0-0.6-0.899-0.6,0v-0.299
		h-0.9h-1.5C71.101,21.226,71.101,21.226,71.101,21.524v0.301V21.524z M71.101,21.825c0.3-0.301,0.6,0,0.9-0.301h0.3l0.3,0.301
		c0.3,0,0.3,0,0.3-0.301v-0.299v0.299l0.3,0.301h0.3c-0.3,0.3-0.3,0.3-0.6,0.3c0-0.3-0.3,0-0.3-0.3h-0.9h-0.3l-0.3,0.3h-0.3
		c-0.6,0.3-1.5,0.3-3,0.3c0-0.3,0-0.6,0.3-0.3h0.6H69l0.3-0.3h0.6c0-0.301,0.3,0.3,0.3,0c0-0.301,0.3-0.301,0.3,0h0.3
		c0.3,0,0.3,0,0.3-0.301V21.825z M89.101,20.625h-0.6l-3.3,0.601h-0.6h-0.6c-0.3-0.301-0.3-0.301-0.3,0h-0.6h-0.6
		c-0.3,0-0.3,0.299-0.6,0.299h-0.6h-0.3h-0.3v-0.299h0.3h0.3c0.3-0.301,0.3-0.301,0.6,0c0-0.301,0.3-0.301,0.3,0h0.3v-0.301h0.3h0.3
		c0.3,0,0.3-0.3,1.2,0c0-0.3,0.3,0,0.3-0.3h0.3h0.6h0.3h0.9l0.3-0.3c0.3,0.3,0.3,0.3,0.3,0h0.3c0.3,0,0.3,0.3,1.2,0h0.3h0.6
		c0.3-0.301,0.6,0.6,0.6-0.301v0.301c-0.3,0.3-0.3,0.3-0.6,0.3H89.101z M114.901,17.625h-0.3l-0.3,0.3c-0.3,0-0.3-0.3-0.6-0.3
		c-0.3,0.3-0.3,0.3-0.6,0.3h-0.3c0,0.301-0.3,0.301-0.3,0h-0.3v0.301h-0.3c-1.5,0-2.4,0-3,0.299v-0.299c0.3,0,0.3,0,0.3-0.301
		c0.3,0,0.3,0.9,0.6,0h0.3h0.3h0.3h0.3l2.7-0.3c0-0.3,0-0.3,0.3-0.3l0.3,0.3c0.3,0,0.3-0.3,0.6-0.3V17.625z"/>
</g>
</svg>
