<?xml version="1.0" encoding="utf-8"?>
<!-- Generator: Adobe Illustrator 16.0.0, SVG Export Plug-In . SVG Version: 6.00 Build 0)  -->
<!DOCTYPE svg PUBLIC "-//W3C//DTD SVG 1.1//EN" "http://www.w3.org/Graphics/SVG/1.1/DTD/svg11.dtd">
<svg version="1.1" id="Layer_1" xmlns="http://www.w3.org/2000/svg" xmlns:xlink="http://www.w3.org/1999/xlink" x="0px" y="0px"
	 width="370.372px" height="34.843px" viewBox="0 0 370.372 34.843" enable-background="new 0 0 370.372 34.843"
	 xml:space="preserve">
<g>
	<path fill="#DF7760" d="M300.239,6.509c-0.055,0.296-0.055,0.296,0.294,0.053l0.296,0.054l1.476,0.27
		c0.295,0.053,0.59,0.107,0.535,0.403l0.351-0.242l0.294,0.054c-0.055,0.296,0.242,0.35,0.296,0.054l0.295,0.054
		c-0.054,0.296,0.241,0.35,0.295,0.054c0.242,0.35,0.242,0.35,0.297,0.054l1.179,0.215l0.296,0.054l0.24,0.349l0.296,0.054
		c0.295,0.054,0.295,0.054,0.644-0.188c0.296,0.054,0.296,0.054,0.537,0.404c-0.055,0.295-0.055,0.295,0.295,0.054l0.59,0.107
		l0.296,0.054l1.422,0.563c0.295,0.054,0.295,0.054,0.349-0.241l0.241,0.349l0.349-0.241c0.295,0.054,0.295,0.054,0.537,0.402
		l0.59,0.108l0.295,0.053l0.591,0.108c0.295,0.054,0.295,0.054,0.349-0.241c0.295,0.054,0.295,0.054,0.537,0.403
		c0.348-0.242,0.644-0.188,0.885,0.161c0.055-0.295,0.295,0.053,0.35-0.242l0.59,0.108l0.241,0.349l0.295,0.054l0.886,0.161
		l0.886,0.162c0.296,0.054,0.296,0.054,0.242,0.349c0.295,0.054,0.347-0.241,0.643-0.188l0.295,0.054
		c0.243,0.349,0.243,0.349,0.539,0.402c0.347-0.241,0.884,0.162,1.232-0.08l0.59,0.107l0.296,0.055
		c-0.053,0.294-0.053,0.294,0.242,0.348c0.348-0.241,0.644-0.187,0.938-0.134l0.296,0.054c-0.053,0.295,0.295,0.053,0.242,0.348
		l0.591,0.108c0.294,0.054,0.294,0.054,0.24,0.349l0.296,0.054c0.349-0.241,0.294,0.054,0.644-0.187l0.241,0.349
		c0.349-0.241,0.697-0.483,0.645-0.188l0.295,0.054l0.296,0.053c0.241,0.349,0.535,0.402,0.831,0.457
		c-0.162,0.886,0.295,0.054,0.59,0.107l0.297,0.054l0.293,0.053l0.296,0.054c-0.054,0.295,0.349-0.241,0.295,0.054l0.295,0.054
		c0.351-0.241,0.351-0.241,0.296,0.053l0.294,0.054l0.351-0.241c0.24,0.349,0.24,0.349,0.535,0.403
		c0.242,0.349,0.242,0.349,0.591,0.107s0.296,0.054,0.644-0.188c0.242,0.348,0.537,0.403,0.831,0.456
		c0.054-0.295,0.054-0.295,0.351-0.241l0.295,0.054l-0.35,0.241l0.242,0.349l0.59,0.107c0.59,0.108,0.885,0.161,1.234-0.08
		l0.296,0.054c-0.296-0.054-0.243-0.348,0.053-0.295c0.294,0.054,0.294,0.054,0.241,0.349l0.59,0.108l0.296,0.054l-0.054,0.295
		l0.241,0.35l0.055-0.297l0.348-0.24c0.296,0.053,0.296,0.053,0.536,0.402l-0.59-0.108c0.885,0.162,0.537,0.404,1.476,0.269
		c0.135,0.94,0.536,0.404,0.778,0.752l1.18,0.215c-0.053,0.295-0.053,0.295,0.241,0.349l0.35-0.241
		c0.242,0.349,0.242,0.349,0.59,0.108c0.242,0.348,0.833,0.455,1.128,0.51c0.886,0.161,0.536,0.402,0.831,0.455
		c0.296,0.055,0.832,0.456,1.127,0.511c0.94-0.133,0.591,0.107,1.476,0.269c0.295,0.055,0.295,0.055,0.241,0.35l0.591,0.107
		l0.295,0.054c0.295,0.055,0.295,0.055,0.349-0.241l0.295,0.054l0.241,0.35c0.886,0.161,1.181,0.216,1.422,0.563l0.59,0.108
		l0.295,0.054l0.296,0.054l1.181,0.215c-0.054,0.295,0.241,0.349,0.538,0.402l0.885,0.162l0.886,0.161l0.241,0.349
		c0.241,0.348,0.535,0.402,1.127,0.51c-0.055,0.296-0.055,0.296,0.24,0.35l0.296,0.054c0.645-0.188,0.939-0.134,1.18,0.215
		c-0.053,0.295-0.053,0.295,0.243,0.349l0.885,0.161c0.295,0.055,1.127,0.511,2.253,1.021l0.591,0.107l0.591,0.108l0.24,0.349
		l0.296,0.053c0.24,0.351,0.24,0.351,0.59,0.108l0.295,0.054c-0.054,0.296,0.241,0.349,0.537,0.403
		c0.295,0.054,0.241,0.349,1.126,0.51l0.297,0.054l0.295,0.055c-0.055,0.294-0.055,0.294,0.24,0.349l0.296,0.053
		c-0.054,0.295,0.294,0.054,0.24,0.349c0.241,0.35,0.241,0.35,0.591,0.108c-0.055,0.296-0.055,0.296,0.24,0.35l0.296,0.054
		c0.294,0.054,0.294,0.054,0.537,0.402l0.294,0.054c0.296,0.054,0.296,0.054-0.054,0.295c-0.053,0.296-0.107,0.591,0.188,0.644
		l0.296,0.054c-0.054,0.296,0.188,0.645,0.482,0.699l-0.053,0.295c-0.055,0.295-0.108,0.59,0.134,0.938
		c-0.055,0.295-0.055,0.295-0.35,0.242l-0.697,0.482c-0.296-0.055-0.351,0.24-0.403,0.536l-0.161,0.885
		c-0.054,0.295-0.403,0.538-0.456,0.833c-0.35,0.241-0.35,0.241-0.403,0.536c-0.296-0.055-0.296-0.055-0.644,0.187
		c-0.35,0.242-0.35,0.242-0.107,0.591l-0.107,0.59l-0.885-0.161l-0.297-0.054c-0.348,0.241-0.644,0.188-0.938,0.134l-1.181-0.215
		c-0.241-0.349-0.241-0.349-0.59-0.108l-1.477-0.269c0.055-0.295,0.055-0.295-0.241-0.349c-0.349,0.242-0.59-0.107-0.832-0.456
		c-0.24-0.349-0.24-0.349-0.536-0.402c-0.349,0.241-0.349,0.241-0.591-0.107c-0.349,0.24-0.349,0.24-0.295-0.055
		c-0.24-0.348-0.483-0.698-0.83-0.456l-0.297-0.054c-0.349,0.241-0.349,0.241-0.295-0.054l-0.536-0.403l-0.294-0.054l-0.591-0.106
		c-0.135-0.939-0.537-0.403-0.484-0.698l-0.293-0.054c-0.35,0.24-0.645,0.188-0.887-0.161l-0.296-0.055l-0.59-0.106
		c0.055-0.295-0.241-0.35-0.536-0.403l-0.242-0.35l-0.294-0.054l-0.591-0.106l-0.295-0.054l0.055-0.296l-0.351,0.241l-0.24-0.349
		c-0.295-0.054-0.59-0.108-0.832-0.457l-0.296-0.053l-0.241-0.35c-0.241-0.348-0.241-0.348-0.295-0.054l-0.59-0.107l-0.591-0.107
		c-0.241-0.35-0.537-0.402-0.777-0.751l-0.296-0.054c-0.349,0.24-0.644,0.187-0.59-0.108l-0.294-0.054l-0.296-0.053l-0.296-0.055
		l-0.59-0.107c-0.295-0.054-0.295-0.054-0.24-0.35l-0.591-0.107l-0.296-0.055l-0.295-0.054l-0.295-0.053l-0.241-0.349
		c-0.296-0.055-0.296-0.055-0.35,0.24l-0.241-0.349l-0.296-0.053c-0.886-0.162-0.831-0.457-1.126-0.512l-0.241-0.348l-0.295-0.054
		c-0.295-0.054-0.295-0.054-0.646,0.187l-0.295-0.053l-0.24-0.349l-0.296-0.055l-0.295-0.054l-0.296-0.053
		c-0.348,0.241-0.348,0.241-0.295-0.054l0.055-0.296c-0.295-0.054-0.295-0.054-0.645,0.188l0.054-0.295l-0.294-0.054l-0.592-0.107
		c-0.295-0.054-0.295-0.054-0.241-0.35c-0.349,0.242-0.349,0.242-0.296-0.055l-0.294-0.053l-0.053,0.297
		c-0.296-0.055-0.296-0.055-0.243-0.351l-0.241-0.35c-0.349,0.242-0.645,0.188-0.938,0.135c-0.242-0.35-0.242-0.35-0.536-0.403
		c-0.242-0.349-0.538-0.402-0.886-0.16l-0.296-0.055c0.055-0.295,0.055-0.295-0.295-0.054c-0.295-0.054-0.591-0.107-0.831-0.456
		l-0.591-0.108l-0.295-0.053l-0.296-0.054l-0.294-0.054l-0.296-0.055l-0.349,0.241l-0.295-0.054l0.054-0.294
		c-0.886-0.162-0.536-0.403-1.422-0.564s-1.476-0.269-1.717-0.618c-0.294-0.054-0.294-0.054-0.349,0.241
		c-0.296-0.054-0.296-0.054-0.241-0.348l-1.181-0.215l-0.591-0.108c-0.832-0.457-0.885-0.161-1.718-0.619
		c-0.242-0.348-0.832-0.456-1.127-0.51c-0.295-0.055-0.295-0.055-0.645,0.188l-0.294-0.054l-0.241-0.349l-0.887-0.161l-0.294-0.054
		l-0.886-0.161c-0.054,0.295-0.296-0.055-0.536-0.403l-0.591-0.106l-0.591-0.108l-0.59-0.108l-0.589-0.106l-0.296-0.054
		l-0.591-0.108l-0.886-0.161c0.055-0.295,0.055-0.295-0.295-0.054l-0.295-0.055l-0.295-0.053l-0.295-0.054
		c-0.242-0.348-0.645,0.187-0.591-0.108c-0.241-0.348-0.536-0.402-0.59-0.107c-0.295-0.054-0.241-0.349-0.537-0.403l-0.295-0.053
		l-0.295-0.055c-0.295-0.054-0.644,0.188-0.94,0.133l-0.24-0.348c-0.35,0.241-0.35,0.241-0.59-0.107
		c-0.055,0.295-0.055,0.295-0.349,0.241l-0.591-0.108l-0.242-0.35c-0.053,0.296-0.053,0.296-0.348,0.243
		c0.053-0.296-0.241-0.35-0.537-0.403l-0.295-0.054c-0.055,0.295-0.055,0.295-0.295-0.054l-0.242-0.349
		c-0.294-0.053-0.294-0.053-0.348,0.242l-0.296-0.055l-0.296-0.053c-0.24-0.349-0.535-0.403-0.885-0.162
		c-0.832-0.457-0.885-0.162-1.718-0.618c-0.589-0.107-0.885-0.162-1.233,0.08l-0.241-0.348c-0.887-0.162-1.477-0.269-1.825-0.028
		c-0.241-0.349-0.241-0.349-0.295-0.054l-0.296-0.054c-0.239-0.348-0.59-0.107-0.83-0.456l-0.592-0.108l0.054-0.296
		c-0.455,0.833-0.885-0.161-1.18-0.215c-0.35,0.243-0.35,0.243-0.644,0.189l-0.243-0.35l-0.59-0.107
		c-0.053,0.296-0.053,0.296-0.349,0.242c-0.054,0.295-0.294-0.053-0.537-0.403c-0.294-0.054-0.59-0.107-0.643,0.188l-0.296-0.054
		l-1.477-0.269l-0.24-0.35l-0.349,0.242l-1.18-0.215l-0.592-0.108l-2.065-0.376l-0.294-0.054l-0.296-0.054l-0.055,0.295
		l-0.241-0.348l-0.591-0.108c-0.349,0.241-0.885-0.162-1.233,0.08l-0.59-0.108c-0.055,0.295-0.351,0.242-0.296-0.053l-0.886-0.162
		l-0.295-0.053l-0.296-0.055c0.055-0.295-0.348,0.241-0.295-0.054c-0.24-0.348-0.24-0.348-0.295-0.053l-0.885-0.162
		c-0.94,0.133-0.887-0.161-1.235,0.08l-0.295-0.054c-0.241-0.348-0.536-0.402-0.536-0.402c-0.35,0.241-0.645,0.188-0.645,0.188
		l-1.771-0.323l-0.591-0.107l-0.349,0.241c-0.242-0.349-0.537-0.402-0.886-0.161c-0.295-0.054-0.295-0.054-0.24-0.349
		c-0.351,0.242-0.646,0.188-0.591-0.107c-0.35,0.241-0.645,0.188-0.939,0.134l-0.59-0.108c-0.349,0.241-0.349,0.241-0.295-0.053
		c-0.349,0.241-0.296-0.054-0.644,0.188l-2.066-0.376c-0.295-0.055-0.295-0.055-0.645,0.188l-0.886-0.161l-0.885-0.162l-0.886-0.161
		c-0.296-0.054-0.296-0.054-0.351,0.241l-0.59-0.107l0.055-0.295l-0.35,0.241c-0.24-0.349-0.536-0.403-0.59-0.107l-0.294-0.054
		l-0.296-0.054c-0.35,0.242-0.35,0.242-0.295-0.053l-0.295-0.054l-0.297-0.054l-0.294-0.054l-0.054,0.295l-2.066-0.376l-0.295-0.054
		l-0.35,0.241l-0.293-0.053l-0.296-0.054l-0.59-0.108l-0.296-0.054c-0.591-0.108-0.886-0.161-1.233,0.08l-0.296-0.053l-1.181-0.215
		l-0.351,0.242c-0.83-0.458-1.179-0.215-1.475-0.269l-0.59-0.107l-0.591-0.107l-0.59-0.107c-0.054,0.295-0.054,0.295-0.296-0.054
		l-0.349,0.242l-0.885-0.162l-0.351,0.241c-0.24-0.349-0.24-0.349-0.589-0.108c-0.35,0.241-0.59-0.107-1.529,0.026
		c-0.296-0.054-0.296-0.054-0.35,0.241l-0.294-0.053c-0.242-0.349-0.537-0.403-0.886-0.162c-0.242-0.349-0.242-0.349-0.296-0.054
		l-0.349,0.243c-0.134-0.94-0.296-0.055-0.537-0.404l-0.295-0.054c-0.349,0.242-0.349,0.242-0.643,0.188l-0.297-0.055l-0.295-0.053
		l-0.591-0.108c-0.294-0.054-0.294-0.054-0.644,0.188l-0.59-0.107l-0.296-0.054l-0.885-0.161c-0.241-0.349-0.349,0.241-0.645,0.187
		c0.162-0.886,0,0-0.294-0.053c-0.243-0.349-0.538-0.403-0.886-0.162c-0.243-0.349-0.243-0.349-0.296-0.054l-0.59-0.107L236,7.612
		c-0.349,0.241-0.591-0.107-0.939,0.134l-0.295-0.053l-0.295-0.054l-1.181-0.215l-0.349,0.241l-0.295-0.054l-0.887-0.162
		c-0.295-0.053-0.295-0.053-0.645,0.189c-0.241-0.35-0.591-0.108-0.831-0.458c-0.054,0.296-0.349,0.242-0.644,0.188
		c-0.645,0.187-1.234,0.08-2.119-0.082c-0.295-0.053-0.592-0.107-0.939,0.134l-0.296-0.054l-0.296-0.053
		c-0.348,0.241-0.348,0.241-0.295-0.054l-0.589-0.107L224.46,7.34l-0.591-0.108l-0.59-0.107c-0.295-0.055-0.295-0.055-0.644,0.187
		l-0.59-0.107l-0.296-0.054l-0.59-0.108c-0.296-0.054-0.591-0.107-0.643,0.189l-0.591-0.108l-0.886-0.161
		c-0.296-0.054-0.296-0.054-0.645,0.187c-0.295-0.054-0.295-0.054-0.241-0.349l0.054-0.296c0.241,0.35,0.241,0.35,0.59,0.107
		l0.296,0.054c-0.242-0.348-0.537-0.402-0.832-0.457l-0.296-0.053c-0.054,0.294-0.054,0.294-0.349,0.241
		c-0.053,0.296-0.053,0.296-0.296-0.053l-0.295-0.054l-0.295-0.054c-0.053,0.296-0.053,0.296-0.349,0.242l-0.294-0.053l-0.296-0.054
		c-0.295-0.054-0.295-0.054-0.536-0.403l-0.697,0.483l0.884,0.161l-0.053,0.295c-0.295-0.054-0.295-0.054-0.646,0.187
		c-0.24-0.348-0.24-0.348-0.59-0.107c-0.054,0.295-0.349,0.242-0.295-0.053l-0.294-0.054c-0.055,0.295-0.297-0.054-0.537-0.402
		l0.055-0.295l-0.297-0.054l-0.295-0.054l-0.295-0.054l-0.296-0.054c-0.053,0.295-0.053,0.295-0.348,0.241
		c-0.296-0.054-0.296-0.054-0.35,0.241l0.296,0.054l0.294,0.054l-0.055,0.295c-0.294-0.054-0.294-0.054-0.346,0.242l-0.297-0.054
		l-0.241-0.35l-0.349,0.243c-0.296-0.054-0.296-0.054-0.645,0.188c-0.296-0.054-0.296-0.054-0.241-0.349
		c-0.295-0.054-0.295-0.054-0.349,0.241l-0.295-0.054l-0.59-0.107c0.053-0.295,0.348-0.242,0.4-0.538
		c-0.294-0.053-0.294-0.053-0.535-0.402l-0.295-0.054c-0.161,0.886-0.35,0.241-0.698,0.483c0.296,0.054,0.296,0.054,0.242,0.349
		l0.349-0.241l-0.054,0.295l-0.055,0.295c-0.24-0.349-0.24-0.349-0.591-0.107c0.054-0.295-0.293-0.054-0.644,0.187l0.055-0.295
		l0.053-0.295c0.351-0.241,0.351-0.241,0.055-0.294c-0.35,0.241-0.35,0.241-0.295-0.054l-0.295-0.054
		c-0.055,0.295-0.296-0.053-0.35,0.241l-0.294-0.054c-0.243-0.348-0.538-0.402-0.591-0.107l-0.295-0.054
		c-0.351,0.241-0.351,0.241-0.297-0.054l-0.294-0.054c-0.296-0.054-0.939,0.133-1.879,0.267c-0.348,0.242-0.938,0.134-1.233,0.08
		l-0.591-0.108c-0.054,0.296-0.35,0.242-0.295-0.054c-0.296-0.054-0.296-0.054-0.646,0.188l-0.294-0.053
		c-0.295-0.055-0.59-0.108-0.94,0.133l-0.295-0.054l-0.295-0.054l-0.295-0.054l-0.295-0.054c-0.242-0.349-0.242-0.349-0.295-0.054
		l-0.59-0.108c-0.94,0.134-1.288,0.375-1.583,0.321l-1.182-0.215c-0.241-0.348-0.536-0.402-0.831-0.456l-0.592-0.107
		c-0.295-0.054-0.295-0.054-0.053,0.294l-0.589-0.107l-0.295-0.054l-0.887-0.162c-0.295-0.053-0.349,0.242-0.645,0.188l-0.59-0.107
		l-0.054,0.296l0.295,0.053l-0.295-0.053c0.054-0.296,0.054-0.296-0.241-0.35c-0.351,0.242-0.645,0.188-1.235,0.081l-0.349,0.242
		l-0.59-0.107c-0.054,0.295-0.187-0.645-0.644,0.187l-0.591-0.107c-0.939,0.134-0.59-0.107-1.53,0.026
		c-0.294-0.054-0.241-0.349-0.536-0.403c-0.054,0.295-0.054,0.295-0.35,0.242c-0.295-0.054-0.295-0.054-0.348,0.241l-0.886-0.161
		l-0.295-0.054l-0.645,0.188l-0.59-0.107c-0.054,0.295-0.054,0.295-0.295-0.054c-0.054,0.295-0.054,0.295-0.349,0.242l-0.295-0.054
		l-0.295-0.053c-0.054,0.295-0.35,0.241-0.295-0.054L178.067,5.9l-0.295-0.054c-0.054,0.295-0.054,0.295-0.349,0.242l-0.295-0.055
		l-0.296-0.054c-0.589-0.107-1.529,0.026-2.763,0.106l-0.295-0.054l-0.59-0.107c-0.295-0.055-0.349,0.241-0.644,0.188l-0.296-0.054
		l-0.59-0.108c-0.054,0.295-0.054,0.295-0.349,0.242l-0.295-0.054l-0.242-0.349c-0.456,0.831-0.644,0.187-0.993,0.429l-0.241-0.349
		c-0.349,0.241-0.349,0.241-0.295-0.054c-0.295-0.054-0.295-0.054-0.348,0.241c-0.054,0.295-0.35,0.241-0.645,0.187l-0.241-0.349
		l-0.054,0.295l-0.59-0.108l-0.59-0.107l-0.348,0.242l-1.181-0.215l-0.295-0.054l-0.296-0.054c-0.053,0.296-0.053,0.296-0.348,0.242
		c-0.35,0.241-0.35,0.241-0.295-0.054l-0.59-0.107c-0.295-0.054-0.295-0.054-0.35,0.241c0.054-0.295-0.241-0.349-0.294-0.054
		l-0.296-0.054l-0.348,0.241l-0.295-0.054c0.053-0.295,0.053-0.295-0.295-0.054c-0.242-0.349-0.242-0.349-0.295-0.054
		s-0.054,0.295-0.295-0.054l-0.349,0.241l-0.591-0.108c-0.348,0.242-0.348,0.242-0.59-0.107l-0.295-0.054
		c-0.054,0.295-0.296-0.054-0.349,0.241l-0.295-0.054c-0.242-0.349-0.537-0.403-0.645,0.188L157.54,6.43
		c-0.241-0.35-0.241-0.35-0.295-0.054l-0.295-0.053l-0.295-0.054c-0.053,0.294-0.053,0.294-0.349,0.241l-0.295-0.054l-0.295-0.055
		c-0.295-0.053-0.295-0.053-0.349,0.242l-0.59-0.107l-0.591-0.107l-0.59-0.107c-0.349,0.241-0.644,0.187-0.939,0.133
		c-0.349,0.241-0.349,0.241-0.294-0.054l-0.295-0.053l-0.35,0.241c-0.295-0.054-0.295-0.054-0.241-0.349
		c-0.054,0.294-0.054,0.294-0.349,0.241l-0.295-0.053l-0.295-0.054l-0.295-0.054c-0.348,0.243-0.644,0.188-0.644,0.188l-0.295-0.053
		c-0.295-0.055-0.295-0.055-0.349,0.241l-0.59-0.107c-0.35,0.241-0.35,0.241-0.644,0.188l-0.886-0.162
		c-0.591-0.107-0.886-0.161-1.235,0.08c-0.59-0.107-0.885-0.161-1.235,0.081l-0.294-0.054c-0.295-0.054-0.591-0.107-0.644,0.188
		l-0.295-0.053l0.053-0.295c-0.295-0.054-0.403,0.536-0.644,0.188l-0.59-0.107l-0.644,0.187l-0.885-0.161
		c0.054-0.294-0.295-0.054-0.644,0.188l-0.295-0.054c-0.054,0.295-0.054,0.295-0.295-0.053l-0.054,0.295l-0.295-0.054l-0.295-0.054
		l-0.295-0.054c-0.294-0.054-0.294-0.054-0.644,0.188l-0.295-0.054l-0.294-0.054l-0.35,0.241l-0.241-0.348
		c-0.349,0.241-0.295-0.055-0.644,0.187l-0.295-0.054c-0.053,0.295-0.349,0.241-0.59-0.107l-0.349,0.241l-0.59-0.107l-0.644,0.188
		l-0.591-0.108l-0.295-0.053c-0.349,0.241-0.295-0.054-0.644,0.187c-0.242-0.349-0.242-0.349-0.295-0.054
		c-0.885-0.161-0.644,0.188-1.529,0.027l-0.591-0.107c-0.348,0.241-0.993,0.429-1.234,0.08l-0.295-0.054l-2.817,0.4
		c0.053-0.294,0.053-0.294-0.296-0.053c0.053-0.295-0.242-0.349-0.295-0.054l-0.295-0.054l-0.59-0.107
		c-0.295-0.054-0.35,0.242-0.645,0.188l-0.59-0.107c-0.348,0.242-0.59-0.107-0.939,0.134l-0.295-0.054
		c-0.349,0.241-0.644,0.188-0.939,0.134l-0.59-0.108l-0.295-0.053c-0.054,0.295-0.295-0.054-0.349,0.241l-0.295-0.053l-0.295-0.054
		l-0.349,0.241l-0.886-0.162c-0.295-0.054-0.295-0.054-0.349,0.242l-0.295-0.054c-0.295-0.054-0.59-0.107-0.939,0.134l-0.295-0.054
		l-0.59-0.107c-0.054,0.295-0.349,0.241-0.644,0.187l-0.59-0.107l-0.349,0.241l-0.59-0.107c-0.054,0.295-0.054,0.295-0.295-0.054
		c-0.295-0.053-0.295-0.053-0.35,0.242l-0.295-0.054c-0.053,0.296-0.241-0.349-0.294-0.054l-0.591-0.108
		c-0.054,0.296-0.054,0.296-0.295-0.053c-0.456,0.832-0.59-0.108-0.939,0.134l-0.295-0.053l-0.295-0.054
		c-0.349,0.242-0.349,0.242-0.645,0.187c-0.348,0.241-0.644,0.188-1.233,0.081c-0.35,0.241-0.35,0.241-0.295-0.054l-0.295-0.054
		c-0.295-0.054-0.295-0.054-0.645,0.188c-0.295-0.055-0.295-0.055-0.348,0.241l-0.296-0.054l-0.59-0.107
		c-0.59-0.107-1.181-0.215-1.529,0.027c-0.242-0.35-0.242-0.35-0.296-0.054c-0.295-0.054-0.59-0.108-0.644,0.187
		c-0.349,0.241-0.939,0.134-1.53,0.026c-0.295-0.053-0.59-0.107-0.938,0.134c-0.885-0.162-1.235,0.08-1.53,0.026
		c-0.348,0.242-0.831-0.457-0.993,0.429L96.44,8.714L96.145,8.66c-0.054,0.295-0.35,0.242-0.94,0.134
		c-0.054,0.295-0.349,0.241-0.939,0.133c-0.241-0.348-0.241-0.348-0.295-0.053c-0.053,0.295-0.295-0.054-0.349,0.241l-0.59-0.107
		c-0.349,0.241-0.886-0.162-1.235,0.08c-0.241-0.349-0.241-0.349-0.295-0.054L91.207,8.98l-0.644,0.188l-0.59-0.108
		c-0.349,0.242-0.349,0.242-0.644,0.188l-0.296-0.054l-0.348,0.241L88.39,9.382l-0.295-0.054l-1.235,0.08l-0.295-0.054l-0.59-0.108
		c-0.053,0.295-0.295-0.053-0.348,0.242l-0.296-0.054L85.036,9.38c-0.054,0.296-0.054,0.296-0.295-0.054l-0.35,0.242l-0.59-0.107
		c-0.053,0.295-0.053,0.295-0.349,0.241l-0.295-0.054l-0.295-0.054l-0.59-0.107c-0.055,0.295-0.055,0.295-0.295-0.054
		c-0.161,0.884-0.295-0.054-0.349,0.241c-0.295-0.054-0.295-0.054-0.644,0.187c-0.242-0.348-0.242-0.348-0.295-0.053l-0.295-0.054
		c-0.295-0.054-0.59-0.108-0.645,0.187l-0.295-0.053c-0.885-0.162-0.94,0.134-1.235,0.08c-0.294-0.053-0.59-0.107-0.644,0.188
		l-0.294-0.053l-0.59-0.108l-0.295-0.054c-0.054,0.295-0.349,0.242-0.644,0.188c-0.349,0.242-0.349,0.242-0.295-0.054
		c-0.295-0.054-0.295-0.054-0.644,0.188l-0.59-0.108c-0.35,0.241-0.698,0.483-0.645,0.188l-0.59-0.108l-0.644,0.188l-0.59-0.107
		l-0.59-0.108l-0.054,0.295c-0.242-0.349-0.242-0.349-0.591-0.107l-0.885-0.162c-0.295-0.054-0.349,0.241-0.644,0.188l-0.295-0.054
		l-0.295-0.054c-0.054,0.295-0.349,0.242-0.645,0.188l-0.885-0.162c-0.295-0.054-0.59-0.107-0.645,0.189l-0.294-0.054
		c-0.35,0.241-0.35,0.241-0.295-0.054l-0.295-0.054l-0.349,0.241l-0.296-0.054c-0.349,0.241-0.644,0.188-0.644,0.188l-0.591-0.108
		c-0.295-0.053-0.295-0.053-0.644,0.188l-0.295-0.054l-0.59-0.107c-0.054,0.295-0.108,0.591-0.349,0.241l-0.295-0.053
		c-0.349,0.242-0.349,0.242-0.295-0.054l-0.295-0.055c-0.053,0.296-0.349,0.243-0.644,0.189l-0.295-0.054
		c-0.295-0.053-0.295-0.053-0.645,0.188c-0.349,0.241-0.536-0.402-0.59-0.108c-0.294-0.053-0.349,0.242-0.644,0.188
		c-0.294-0.054-0.294-0.054-0.241-0.348c-0.295-0.054-0.107,0.589-0.349,0.241l-0.295-0.054l-0.054,0.295l-0.59-0.107l-0.59-0.108
		l-0.349,0.242l-2.12-0.081c0.054-0.296-0.295-0.054-0.644,0.187l-0.59-0.107c-0.349,0.24-0.349,0.24-0.644,0.188l-0.591-0.108
		c-0.349,0.242-0.644,0.188-0.644,0.188l-0.59-0.107l-0.644,0.187l-0.295-0.053c-0.349,0.242-0.698,0.482-0.644,0.188
		c-0.886-0.161-1.234,0.081-2.12-0.081l-0.349,0.241c-0.241-0.349-0.241-0.349-0.59-0.108l-0.59-0.107
		c-0.295-0.054-0.349,0.241-0.644,0.188l-0.054,0.295l-0.295-0.054c-0.241-0.349-0.241-0.349-0.591-0.107
		c-0.295-0.054-0.644,0.188-0.939,0.135l-0.885-0.161c-0.055,0.295-0.35,0.241-0.296-0.054c-0.456,0.831-0.59-0.107-0.939,0.134
		c-0.295-0.054-0.295-0.054-0.349,0.241l-0.59-0.107l-0.645,0.187l-0.59-0.107c-0.054,0.295-0.241-0.35-0.294-0.054l-0.591-0.107
		l-0.295-0.054c-0.295-0.053-0.698,0.484-0.993,0.43l-0.296-0.054l-0.053,0.295l-0.295-0.054l-0.295-0.054l-0.054,0.295l0.054-0.295
		l-0.242-0.348c-0.295-0.054-0.939,0.134-1.234,0.08c-0.349,0.241-0.349,0.241-0.59-0.107c-0.349,0.241-0.644,0.187-1.235,0.08
		l-0.349,0.241l-0.885-0.162c-0.349,0.241-0.698,0.484-0.644,0.188l-0.055,0.296l-0.536-0.404c-0.295-0.054-0.403,0.538-0.645,0.188
		l-0.295-0.054c-0.295-0.053-0.295-0.053-0.643,0.188l-0.296-0.055l-0.295-0.053l-0.295-0.054l-0.294-0.054l-0.35,0.242
		c-0.349,0.241-0.295-0.054-0.644,0.187c-0.295-0.054-0.295-0.054-0.35,0.241l-0.295-0.053c-0.241-0.349-0.536-0.403-0.536-0.403
		l-0.295-0.053c-0.054,0.295-0.295-0.054-0.35,0.241l-0.295-0.054c-0.295-0.053-0.349,0.243-0.644,0.188l-0.295-0.054l-0.59-0.107
		l-0.35,0.241c-0.348,0.242-0.348,0.242-0.643,0.188l-0.242-0.349l-0.349,0.242l-0.295-0.054c-0.054,0.295-0.054,0.295-0.295-0.054
		l-0.054,0.295c-0.349,0.241-0.349,0.241-0.295-0.055c0.054-0.294,0.054-0.294-0.242-0.348c-0.295-0.054-0.644,0.186-0.993,0.428
		L16.61,13.38c-0.296-0.054-0.591-0.108-0.939,0.135l-0.591-0.108l-0.295-0.053l-0.054,0.295l-0.59-0.108l-0.295-0.053l-0.348,0.241
		l-0.591-0.107c-0.294-0.054-0.294-0.054-0.644,0.187L11.672,13.7l-0.295-0.054l-0.349,0.241l-0.295-0.053
		c-0.295-0.054-0.59-0.108-0.644,0.188l-0.591-0.107c-0.24-0.35-0.24-0.35-0.295-0.054l-0.295-0.054
		c-0.349,0.241-0.644,0.187-1.234,0.08c-0.295-0.054-0.295-0.054-0.349,0.241L7.03,14.074c-0.241-0.349-0.241-0.349-0.295-0.054
		l-0.295-0.054c-0.295-0.053-0.349,0.242-0.644,0.188c-0.242-0.35-0.537-0.402-0.832-0.457c-0.349,0.241-0.644,0.188-0.939,0.134
		l-0.349,0.241c-0.349,0.242-0.349,0.242-0.644,0.189c-0.242-0.351-0.537-0.404-0.645,0.187l-0.295-0.053
		c-0.295-0.054-0.295-0.054-0.645,0.187c-0.295-0.053-0.295-0.053-0.242-0.348c-0.241-0.349-0.241-0.349-0.294-0.054l-0.295-0.054
		c-0.242-0.349-0.134-0.939-0.375-1.289L0,12.489l0.108-0.591l0.053-0.295c0.35-0.241,0.457-0.831,0.564-1.422
		C0.43,10.126,0.833,9.59,0.538,9.537l0.054-0.294l0.108-0.591l0.053-0.295l0.591,0.107c0.349-0.241,0.349-0.241,0.403-0.536
		l0.108-0.591c0.054-0.295,0.402-0.536,0.698-0.482C2.605,6.56,2.605,6.56,2.847,6.908l0.295,0.055l0.886,0.161l0.59,0.108
		c0.35-0.241,0.939-0.134,1.234-0.08c0.295,0.054,0.295,0.054,0.349-0.242l0.59,0.107c0.053-0.295,0.053-0.295,0.295,0.055
		l0.295,0.053l1.234-0.08l0.59,0.107C9.259,6.856,9.259,6.856,9.555,6.91L9.85,6.964c0.831,0.457,0.644-0.188,1.476,0.269
		c0.349-0.241,0.349-0.241,0.644-0.187c0.295,0.053,0.295,0.053,0.242,0.348l0.054-0.295c0.349-0.241,0.349-0.241,0.59,0.108
		L12.56,7.154c0.242,0.348,0.242,0.348,0.59,0.107c0.241,0.35,0.241,0.35,0.295,0.054C13.5,7.02,13.5,7.02,13.74,7.369l0.295,0.053
		l0.295,0.054l0.349-0.241l0.055-0.296c0.348-0.242,0.294,0.053,0.644-0.188l0.59,0.107l-0.053,0.295L15.86,7.45l0.35-0.242
		c-0.055,0.296-0.055,0.296,0.241,0.35c0.054-0.296,0.054-0.296,0.349-0.243c0.295,0.054,0.295,0.054,0.349-0.241l0.295,0.054
		L17.39,7.423l0.349-0.242l0.294,0.055l0.295,0.054l0.295,0.053l0.349-0.241l0.295,0.054l0.591,0.107l0.295,0.054
		c0.294,0.053,0.294,0.053,0.348-0.242l0.296,0.055l0.59,0.108c0.295,0.053,0.59,0.107,0.644-0.188
		c0.349-0.242,0.242,0.349,0.59,0.107c0.053-0.296,0.295,0.054,0.349-0.242l0.885,0.161l0.59,0.107
		c0.349-0.241,0.349-0.241,0.59,0.108c0.054-0.295,0.349-0.242,0.644-0.188c0.053-0.295,0.59,0.107,0.644-0.188l0.296,0.054
		c0.241,0.349,0.241,0.349,0.295,0.054c0.349-0.241,0.349-0.241,0.295,0.054c0.349-0.241,0.349-0.241,0.645-0.188l0.885,0.162
		c0.053-0.295,0.053-0.295,0.349-0.241l0.295,0.053l0.59,0.108l0.295,0.054c0.35-0.242,0.698-0.483,0.645-0.188l0.295,0.054
		l0.349-0.242l0.295,0.054l0.295,0.054l0.294,0.054l0.35-0.242l0.295,0.054l0.591,0.107l0.59,0.108
		c0.349-0.241,0.349-0.241,0.645-0.188l0.589,0.107c0.054-0.294,0.349-0.241,0.644-0.188l0.295,0.054
		c0.054-0.296,0.349-0.242,0.644-0.188l0.295,0.054l0.295,0.053c0.349-0.241,0.644-0.187,0.939-0.133
		c0.295,0.054,0.349-0.241,0.644-0.188l0.591,0.108c0.241,0.349,0.348-0.241,0.59,0.107c0.349-0.241,0.349-0.241,0.591,0.108
		l0.053-0.295l0.295,0.054l0.295,0.054c0.296,0.054,0.296,0.054,0.35-0.241l0.59,0.108l0.59,0.107
		c-0.054,0.294,0.295,0.054,0.644-0.189c-0.054,0.296,0.295,0.055,0.645-0.187l0.59,0.107l0.295,0.054l0.295,0.054l0.295,0.054
		l0.59,0.108c0.054-0.295,0.054-0.295,0.295,0.054c0.054-0.295,0.054-0.295,0.349-0.242l0.295,0.054
		c0.886,0.161,0.645-0.188,1.53-0.027c0.295,0.054,0.295,0.054,0.644-0.188l0.295,0.054l0.295,0.054l0.295,0.053
		c0.054-0.295,0.054-0.295,0.349-0.241l0.59,0.107l0.295,0.054c0.349-0.241,0.645-0.187,1.235-0.08l0.295,0.053
		c0.295,0.054,0.295,0.054,0.349-0.241l0.295,0.053c0.295,0.055,0.59,0.108,0.939-0.133l0.885,0.162
		c0.054-0.295,0.296,0.054,0.349-0.242l0.886,0.162l0.295,0.053c0.054-0.295,0.054-0.295,0.349-0.241l0.349-0.242l0.295,0.054
		c0.242,0.35,0.242,0.35,0.295,0.054c0.241,0.349,0.241,0.349,0.295,0.054c0.35-0.241,0.35-0.241,0.645-0.188l1.181,0.215
		l0.053-0.295l0.295,0.054c0.242,0.349,0.242,0.349,0.295,0.054l0.591,0.108c0.054-0.296,0.054-0.296,0.295,0.053l0.35-0.242
		L62.9,5.347l0.295,0.054l0.348-0.241l0.59,0.107c0.295,0.054,0.403-0.536,0.644-0.187c0.241,0.348,0.241,0.348,0.295,0.053
		c0.242,0.349,0.537,0.403,0.644-0.188L66.012,5l0.296,0.054l0.295,0.054l0.295,0.054c0.294,0.054,0.349-0.241,0.644-0.188
		c0.295,0.054,0.295,0.054,0.349-0.242c0.295,0.054,0.295,0.054,0.241,0.35c0.295,0.053,0.295,0.053,0.35-0.243
		c0.348-0.241,0.348-0.241,0.294,0.054l0.242,0.35l0.295,0.054C69.367,5,69.662,5.054,69.958,5.108
		c0.053-0.295,0.241,0.35,0.402-0.536c0.296,0.053,0.296,0.053,0.242,0.349c0.107-0.59,0.402-0.536,0.644-0.188
		c0.053-0.295,0.053-0.295,0.349-0.241l0.295,0.053L72.185,4.6c0.349-0.242,0.349-0.242,0.294,0.053l0.295,0.054l0.295,0.054
		c0.054-0.295,0.054-0.295,0.349-0.242c0.349-0.242,0.349-0.242,0.59,0.108l0.349-0.242c0.295,0.054,0.644-0.188,0.939-0.133
		l-0.054,0.294l0.295,0.054l0.295,0.053c0.295,0.054,0.295,0.054,0.349-0.241l-0.295-0.054c0.295,0.054,0.644-0.187,0.939-0.133
		l0.241,0.349l0.295,0.054c0.295,0.054,0.295,0.054,0.349-0.241l0.054-0.295l0.241,0.349l-0.295-0.054l0.295,0.054l0.885,0.161
		L79.59,4.12c0.295,0.054,0.295,0.054,0.242,0.349l0.295,0.053l0.349-0.241l0.054-0.296l0.59,0.107
		c0.241,0.35,0.241,0.35,0.59,0.107l-0.295-0.054l0.349-0.241l0.242,0.348l0.349-0.241L82.3,4.308l0.295,0.054l0.698-0.482
		c0.054-0.295,0.349-0.242,0.644-0.188l-0.108,0.59c0.296,0.054,0.296,0.054,0.644-0.188c0.295,0.054,0.295,0.054,0.349-0.241
		l0.295,0.054l0.59,0.108l0.349-0.241c0.349-0.242,0.349-0.242,0.59,0.107l0.295,0.054c0.054-0.296,0.054-0.296,0.35-0.242
		c0.053-0.295,0.348-0.242,0.644-0.188c0.295,0.054,0.295,0.054,0.644-0.188c0.296,0.055,0.591,0.108,0.644-0.187
		c0.242,0.349,0.537,0.402,0.59,0.107l0.59,0.107l0.295,0.054c0.295,0.053,0.349-0.241,0.645-0.188l0.295,0.054l0.59,0.107
		c-0.054,0.295-0.054,0.295,0.241,0.349c0.349-0.241,0.349-0.241,0.295,0.054c0.295,0.053,0.349-0.242,0.698-0.483l0.295,0.053
		l-0.054,0.296C94.054,3.4,94.054,3.4,94.295,3.75c0.294,0.053,0.348-0.243,0.053-0.296l0.054-0.295l0.295,0.054l-0.054,0.295
		c0.295,0.054,0.591,0.107,0.35-0.241l0.348-0.242c0.295,0.054-0.053,0.295,0.242,0.349l0.295,0.054
		c0.054-0.295,0.241,0.349,0.295,0.054c0.295,0.053,0.295,0.053,0.349-0.241c0.054-0.295,0.054-0.295,0.349-0.241l0.296,0.053
		c0.294,0.055,0.294,0.055,0.349-0.241c0.241,0.349,0.241,0.349,0.295,0.054l0.295,0.053c0.295,0.054,0.295,0.054,0.645-0.188
		l0.294,0.054l0.295,0.054c0.349-0.241,0.644-0.188,0.59,0.107c0.242,0.35,0.242,0.35,0.295,0.054l0.349-0.241l0.295,0.054
		l0.349-0.241l0.295,0.053l0.295,0.054c0.349-0.242,0.349-0.242,0.589,0.107l0.054-0.294l0.59,0.107
		c0.242,0.35,0.295,0.054,0.537,0.403c0.295,0.054,0.295,0.054,0.349-0.241l0.054-0.295l0.295,0.054
		c0.241,0.349,0.241,0.349,0.59,0.107c0.054-0.296,0.054-0.296,0.294,0.054c0.242,0.348,0.242,0.348,0.296,0.053l0.295,0.054
		l0.295,0.054c0.054-0.296,0.108-0.591,0.403-0.538l0.59,0.108c0.295,0.054,0.295,0.054,0.349-0.241l0.295,0.054l0.886,0.162
		c0.295,0.053,0.295,0.053,0.348-0.242c0.59,0.108,0.885,0.162,1.235-0.079L110.1,2.36c-0.053,0.294-0.053,0.294,0.242,0.349
		l0.053-0.295c0.054-0.295,0.054-0.295,0.349-0.241c0.242,0.349,0.242,0.349,0.296,0.054c0.241,0.349,0.295,0.054,0.349-0.242
		l0.242,0.349c-0.054,0.295-0.054,0.295,0.241,0.35c0.054-0.295,0.054-0.295-0.241-0.35c0.053-0.295,0.053-0.295,0.349-0.242
		l0.295,0.054l-0.054,0.296l0.295,0.053l0.402-0.537c0.296,0.053,0.591,0.107,0.645-0.188c0.242,0.349,0.242,0.349,0.591,0.107
		l6.118-0.105l0.295,0.053c0.295,0.054,0.295,0.054,0.349-0.241l0.295,0.054l0.59,0.107c0.295,0.054,0.295,0.054,0.349-0.241
		c0.241,0.349,0.644-0.188,0.939-0.134l1.18,0.215c0.295,0.054,0.295,0.054,0.35-0.241l0.295,0.053
		c0.295,0.054,0.644-0.188,0.939-0.133l0.295,0.054l0.294,0.054c0.295,0.053,0.295,0.053,0.35-0.242
		c-0.055,0.295-0.055,0.295,0.294,0.054l0.59,0.107l0.591,0.107c0.054-0.295,0.054-0.295,0.349-0.241l0.295,0.054
		c0.349-0.242,0.939-0.135,1.234-0.081l0.59,0.108c0.349-0.242,0.349-0.242,0.644-0.188l0.054-0.295l1.18,0.215
		c0.296,0.054,0.886,0.162,1.235-0.08L134.438,1c0.348-0.241,0.644-0.187,0.939-0.133l0.59,0.108
		c0.054-0.296,0.054-0.296,0.349-0.242l0.59,0.107l0.295,0.054c0.296,0.054,0.296,0.054,0.241,0.35l0.349-0.243
		c0.349-0.241,0.644-0.188,0.939-0.134c0.242,0.349,0.242,0.349,0.295,0.054c0.295,0.054,0.295,0.054,0.349-0.241
		c0.242,0.349,0.242,0.349,0.295,0.054c0.832,0.456,0.939-0.134,1.234-0.08l0.885,0.161c0.35-0.241,0.35-0.241,0.59,0.108
		l0.296,0.053c0.295,0.054,0.295,0.054,0.644-0.187c0.295,0.054,0.295,0.054,0.349-0.242l0.295,0.053l0.295,0.054
		c0.349-0.242,0.349-0.242,0.591,0.108c0.349-0.241,0.644-0.188,0.644-0.188l0.59,0.108l0.054-0.295l0.59,0.108
		c0.886,0.162,2.361,0.43,2.71,0.189l0.295,0.054l0.349-0.241c0.832,0.456,0.939-0.134,1.825,0.027
		c0.349-0.242,0.349-0.242,0.295,0.053l0.59,0.107l0.645-0.187l0.295,0.054l0.591,0.107c0.349-0.241,0.349-0.241,0.295,0.054
		l0.294,0.053c0.161-0.885,0.537,0.403,0.993-0.429l0.886,0.161c0.295,0.055,0.59,0.108,0.644-0.187l0.591,0.107
		c0.295,0.053,0.645-0.188,0.939-0.135l0.885,0.161l0.939-0.133l0.886,0.161l0.939-0.134c0.295,0.054,0.644-0.187,0.939-0.133
		s0.295,0.054,0.349-0.241l0.295,0.054c0.242,0.349,0.242,0.349,0.591,0.108c0.241,0.348,0.241,0.348,0.295,0.053l0.59,0.107
		l0.645-0.188l0.59,0.107l0.591,0.108c0.053-0.295,0.295,0.053,0.348-0.242l0.295,0.054c0.242,0.349,0.645-0.188,0.94-0.133
		l0.59,0.107l0.59,0.108c0.054-0.295,0.054-0.295,0.295,0.054c0.349-0.241,0.349-0.241,0.295,0.054l0.296,0.054
		c0.053-0.295,0.295,0.054,0.348-0.241l0.295,0.053c0.054-0.295,0.054-0.295,0.296,0.054l0.294,0.054l0.054-0.295
		c0.831,0.456,0.885,0.161,1.181,0.215l0.59,0.108l2.764-0.107c0.349-0.242,0.349-0.242,0.295,0.053l0.295,0.054
		c0.348-0.241,0.644-0.188,0.939-0.133l0.295,0.053c0.294,0.054,0.294,0.054,0.349-0.241l-0.055,0.294
		c0.295,0.054,0.295,0.054,0.35-0.241l0.59,0.108l0.295,0.054c0.939-0.133,1.234-0.08,2.174-0.214l0.241,0.35l0.295,0.054
		c0.054-0.296,0.35-0.243,0.645-0.188c0.939-0.133,1.234-0.08,2.174-0.213c0.349-0.241,0.349-0.241,0.59,0.107l0.295,0.054
		c0.35-0.241,0.645-0.187,0.645-0.187l0.591,0.107c0.295,0.054,0.59,0.107,0.645-0.187l0.59,0.107l0.349-0.242
		c0.241,0.35,0.536,0.404,0.536,0.404l5.18,0.028c0.054-0.295,0.349-0.241,0.59,0.107l0.349-0.241l0.591,0.108
		c0.349-0.241,0.349-0.241,0.59,0.107l0.295,0.054c0.053-0.295,0.349-0.241,0.644-0.188l2.765-0.107l0.295,0.054
		c0.055-0.294,0.055-0.294,0.296,0.054c0.053-0.294,0.053-0.294,0.349-0.241c0.054-0.294,0.054-0.294,0.294,0.054l0.296,0.054
		c0.296,0.054,0.644-0.188,0.939-0.133l0.59,0.107c0.054-0.295,0.349-0.242,0.59,0.107l0.296,0.055
		c0.294,0.053,0.59,0.107,0.939-0.134c0.938-0.134,1.529-0.027,2.468-0.16l0.296,0.053l0.295,0.054l0.35-0.241
		c0.241,0.349,0.241,0.349,0.535,0.402l3.354,0.002l0.35-0.241l0.295,0.054l0.296,0.053l0.294,0.054
		c0.35-0.242,0.241,0.349,0.591,0.107c0.054-0.296,0.349-0.242,0.645-0.188c0.294,0.053,0.294,0.053,0.239,0.35l0.296,0.054
		l0.35-0.243c0.295,0.054,0.295,0.054,0.645-0.187l0.885,0.161l0.295,0.054c0.242,0.349,0.242,0.349,0.297,0.054
		c0.053-0.295,0.294,0.054,0.347-0.241c0.243,0.348,0.645-0.188,0.886,0.161l0.296,0.054l0.59,0.107
		c0.35-0.241,0.59,0.108,0.94-0.133l0.294,0.053c0.295,0.054,0.59,0.108,0.645-0.187c0.24,0.349,0.24,0.349,0.295,0.054l0.59,0.107
		c0.35-0.242,0.645-0.188,0.886,0.162l0.054-0.296l0.296,0.054c-0.055,0.296,0.24,0.35,0.294,0.054l0.296,0.054l0.349-0.241
		l0.295,0.054l0.885,0.161l0.591,0.107l0.296,0.054c0.349-0.242,0.831,0.457,1.287-0.375c0.297,0.054,0.297,0.054,0.242,0.349
		l0.295,0.053l0.35-0.241l0.59,0.107c0.054-0.296,0.054-0.296,0.296,0.054c-0.055,0.295,0.295,0.054,0.349-0.242l0.24,0.35
		c0.295,0.054,0.59,0.107,0.94-0.134l0.295,0.054l0.591,0.107c0.347-0.241,0.347-0.241,0.295,0.054l0.296,0.054l0.589,0.107
		c0.055-0.295,0.055-0.295,0.349-0.241c0.241,0.349,0.241,0.349,0.295,0.054l0.297,0.054l0.59,0.108l0.884,0.161
		c0.296,0.054,0.35-0.241,0.645-0.187c0.241,0.348,0.241,0.348,0.295,0.054l0.592,0.107l0.295,0.054
		c0.348-0.242,0.295,0.053,0.643-0.188L240,0.718l0.295,0.053l0.591,0.108l0.59,0.108l0.349-0.242l0.591,0.107l0.59,0.108
		l0.59,0.107l0.35-0.242l0.59,0.107l0.296,0.054l0.591,0.107c0.348-0.241,0.348-0.241,0.643-0.188l0.242,0.349
		c0.295,0.054,0.401-0.536,0.644-0.187c0.349-0.242,0.59,0.107,0.939-0.134l0.59,0.108l0.885,0.162l0.35-0.241
		c0.296,0.054,0.296,0.054,0.644-0.188l0.296,0.053l0.24,0.35l0.35-0.242c0.59,0.107,1.182,0.215,1.528-0.027
		c0.136,0.94,0.591,0.107,0.887,0.162l0.295,0.053l0.295,0.054l0.59,0.108l0.055-0.295l0.295,0.054
		c0.833,0.457,0.59,0.107,1.476,0.269l0.887,0.162l0.294,0.053c0.296,0.054,0.698-0.482,1.529-0.026
		c0.054-0.295,0.054-0.295,0.351-0.241c-0.055,0.295,0.294,0.053,0.24,0.349c0.349-0.241,0.295,0.054,0.645-0.188
		c0.24,0.349,0.644-0.188,0.885,0.162l0.295,0.054c0.296,0.054,0.644-0.188,0.938-0.134l0.59,0.108l0.591,0.107
		c0.054-0.295,0.054-0.295,0.296,0.055l0.59,0.107c0.886,0.162,1.771,0.323,2.416,0.134c0.24,0.35,0.24,0.35,0.295,0.054
		l0.295,0.054c0.296,0.053,0.296,0.053,0.349-0.241c-0.053,0.294,0.242,0.349,0.295,0.054l0.296,0.053l0.241,0.349l0.295,0.053
		c0.054-0.294,0.054-0.294,0.295,0.054l0.35-0.242l0.59,0.108l0.591,0.107c0.054-0.295,0.054-0.295,0.349-0.242l0.59,0.108
		c0.241,0.349,0.646-0.188,0.591,0.108l0.35-0.241l0.053-0.295l-0.348,0.241c0.053-0.295,0.053-0.295-0.243-0.349l0.351-0.242
		c0.295,0.054,0.295,0.054,0.535,0.404l0.055-0.296l0.24,0.35c0.35-0.242,0.646-0.188,0.94-0.135l-0.055,0.296
		c-0.295-0.055-0.295-0.055-0.348,0.241l0.295,0.054l0.24,0.348l0.59,0.107c0.054-0.295,0.297,0.054,0.351-0.241l0.59,0.107
		c-0.054,0.295-0.054,0.295,0.295,0.054l0.296,0.053l0.052-0.295l-0.885-0.161c-0.295-0.054-0.295-0.054-0.24-0.35l0.295,0.054
		l2.71,0.189l0.295,0.054l-0.054,0.295c-0.295-0.054-0.456,0.832-0.591-0.107c-0.054,0.296-0.054,0.296-0.295-0.054l-0.054,0.296
		l-0.591-0.108l-0.295-0.053c-0.296-0.054-0.296-0.054-0.348,0.241l0.295,0.054l0.294,0.053c0.242,0.349,0.537,0.402,0.537,0.402
		l0.349-0.241l0.296,0.053l0.295,0.055c0.348-0.241,0.348-0.241,0.295,0.054l0.053-0.295c0.242,0.348,0.295,0.053,0.537,0.402
		c0.297,0.054,0.349-0.241,0.644-0.187l0.241,0.348C281,3.31,281,3.31,280.947,3.604l0.293,0.054
		c0.055-0.295,0.055-0.295,0.297,0.054l0.054-0.294l0.295,0.053l0.885,0.162l0.59,0.107l0.886,0.161l0.886,0.162l0.296,0.054
		l0.294,0.054l0.592,0.108l0.295,0.053l0.053-0.296c0.536,0.403,0.832,0.458,1.182,0.216c-0.055,0.295,0.349-0.242,0.295,0.053
		l0.59,0.107l0.591,0.107l0.591,0.108l0.293,0.054l0.297,0.054l0.295,0.054c0.054-0.295,0.295,0.054,0.349-0.241l0.297,0.054
		l0.294,0.054l0.053-0.295c0.054-0.295,0.054-0.295-0.294-0.054l0.348-0.241c-0.054,0.295,0.351-0.241,0.296,0.054l0.59,0.107
		l0.296,0.055c0.348-0.242,0.644-0.188,0.885,0.161l0.295,0.054l0.054-0.295l0.59,0.108c0.297,0.054,0.592,0.107,0.537,0.402
		l0.35-0.241c-0.055,0.294-0.055,0.294,0.241,0.348l0.054-0.295l0.24,0.349c0.054-0.295,0.054-0.295,0.296,0.055l0.054-0.295
		c0.295,0.053,0.59,0.107,0.832,0.456l-0.886-0.161l-0.053,0.294l0.295,0.054c-0.055,0.295-0.055,0.295,0.24,0.349l0.297,0.053
		c0.24,0.349,0.24,0.349,0.294,0.054l0.296,0.054c-0.055,0.295,0.24,0.349,0.535,0.402l1.477,0.269L300.239,6.509l0.054-0.294
		L300.239,6.509z M255.295,0.455l0.295,0.054l0.349-0.241l0.59,0.107l0.591,0.108c-0.054,0.295,0.294,0.053,0.349-0.243
		c0.296,0.054,0.296,0.054,0.242,0.35l0.347-0.243l0.296,0.054c1.181,0.215,2.12,0.082,3.301,0.296
		c-0.054,0.295-0.349,0.241-0.402,0.537l-0.295-0.054c-0.241-0.35-0.241-0.35-0.592-0.107l-0.295-0.054l-0.24-0.349l-0.35,0.242
		l-0.295-0.054l-2.71-0.189l-0.295-0.054l-0.295-0.053L255.295,0.455z M282.288,2.934c0.351-0.241,0.351-0.241,0.645-0.188
		l3.247,0.592c0.295,0.054,0.591,0.108,0.643-0.188c0.244,0.349,0.244,0.349,0.538,0.402l0.295,0.054l0.59,0.107l0.59,0.107
		c0.296,0.054,0.35-0.241,0.645-0.187l0.59,0.107l0.59,0.108l-0.052,0.294l-0.296-0.054l-0.294-0.054
		c-0.351,0.242-0.351,0.242-0.592-0.107c-0.054,0.294-0.349,0.241-0.295-0.054l-0.296-0.054l-0.054,0.295l-0.293-0.053l-0.592-0.107
		c-0.295-0.054-0.591-0.108-0.83-0.457c-0.055,0.295-0.296-0.054-0.351,0.241l-0.295-0.054l-0.591-0.107l-0.295-0.054l-0.296-0.054
		l-0.589-0.108l-0.351,0.242l-0.239-0.349l-0.296-0.054c-0.35,0.241-0.886-0.162-1.234,0.08l-0.295-0.054l-0.887-0.162
		c-0.24-0.348-0.24-0.348-0.294-0.053l-0.296-0.054l0.35-0.241l0.59,0.107L282.288,2.934z M300.239,6.509l0.054-0.294
		c-0.591-0.108-0.886-0.162-0.939,0.133c0.054-0.295,0.054-0.295-0.242-0.349c-0.294-0.053-0.294-0.053-0.24-0.348
		c-0.295-0.054-0.295-0.054-0.35,0.241l-0.055,0.295l0.055-0.295c0.055-0.294,0.055-0.294-0.24-0.348l-0.296-0.054
		c0.348-0.241,0.643-0.187,0.886,0.162l0.294,0.053l0.886,0.162l0.59,0.107l0.296,0.054l3.247,0.592
		c-0.349,0.241-0.699,0.482-0.645,0.187l-0.294-0.054l-0.592-0.107l-0.295-0.054l-0.296-0.054c-0.348,0.241-0.239-0.349-0.59-0.107
		c-0.055,0.295-0.055,0.295-0.295-0.055c-0.349,0.242-0.349,0.242-0.295-0.053c-0.296-0.054-0.296-0.054-0.35,0.241L300.239,6.509z"
		/>
</g>
</svg>
