<?xml version="1.0" encoding="utf-8"?>
<!-- Generator: Adobe Illustrator 16.0.0, SVG Export Plug-In . SVG Version: 6.00 Build 0)  -->
<!DOCTYPE svg PUBLIC "-//W3C//DTD SVG 1.1//EN" "http://www.w3.org/Graphics/SVG/1.1/DTD/svg11.dtd">
<svg version="1.1" id="Layer_1" xmlns="http://www.w3.org/2000/svg" xmlns:xlink="http://www.w3.org/1999/xlink" x="0px" y="0px"
	 width="400px" height="61px" viewBox="0 0 400 61" enable-background="new 0 0 400 61" xml:space="preserve">
<g id="_x36_">
	<path fill="#D4E2D4" d="M78.301,39.497l-0.286-0.289c-0.287,0.289,0,0-0.859,0.289c-0.288,0-0.574,0.286-1.435,0.286h-0.574H74.86
		v0.286c-0.287-0.286-0.573-0.286-0.573,0C74,40.354,74,40.354,74,40.069h-0.286c0,0.285-0.287,0-0.287,0.285
		c-0.858-0.285-0.858,0.288-1.146,0.288h-0.287H71.42h-0.287l-0.285,0.287h-0.574h-0.287c-0.287,0-0.287,0-0.287,0.287H68.84h-0.287
		l-1.434,0.286c-0.287,0-0.287,0-0.287,0.289c0,0.285-0.286-0.289-0.286,0l-0.286,0.285h-0.574h-0.287
		c-0.287,0.287-0.287,0.287-0.287,0c-0.285,0-0.285,0-0.572,0.287h-0.861l-0.286,0.286h-0.573c-0.286,0.287-0.574,0.287-0.86,0
		c0,0.287-0.286,0.287-0.286,0.573h-0.574h-0.287h-0.286c-0.573,0-0.859,0-0.859,0.287c-0.287,0.287-0.573,0.287-0.86,0.287H58.23
		c0,0.286,0,0.286-0.287,0.286h-0.286H57.37h-0.573c-0.287,0.861-0.86,0.574-1.146,0.861c-0.285,0-0.573,0-0.859,0.286h-0.287
		c-0.287,0.286-0.574,0.286-0.86,0.286l-0.286,0.286h-0.574h-0.572c-0.287,0.289-0.287,0.289-0.574,0
		c-0.286,0.289-0.574,0.289-0.574,0.289s-0.285,0-0.859,0.285c-0.287,0-0.287,0-0.287,0.286H49.63h-0.288
		c-0.285,0-0.572,0-0.859,0.287l-0.286-0.287l-0.287,0.287c-0.286,0.286-0.286,0.286-0.286,0c-0.287,0-0.287,0-0.287,0.286
		c-0.287,0-0.287,0-0.287,0.289c-0.287-0.289-0.287,0.285-0.572,0c-0.287,0-0.287,0.572-0.574,0.285l-0.287,0.287h-0.573
		c-0.286,0-0.573,0-0.573,0.286c-0.287,0.287-0.574,0.574-0.574,0.287c-0.287,0.287-0.86,0.287-1.146,0.287h-0.287
		c0.287,0.286,0.287,0.286,0.287,0.572h-0.287l-0.287-0.286v-0.286h-0.285h-0.287l-0.287,0.286l-1.146,0.573
		c0.286,0.285,0.286,0.285,0,0.285h-0.287c-0.287,0-0.287,0.287-0.573,0.287h-0.287h-0.286c0.286-0.287,0.286-0.287,0-0.287h-0.286
		v0.287v0.289h-0.573c0-0.289,0.286-0.289,0.573-0.289h-0.287c-0.573,0-1.147,0.289-1.435,0.575c-0.859-0.286-0.859,0-1.146,0
		c-0.287-0.286-0.859,0-1.146,0.573c0,0.286-0.287-0.859-0.287,0l-0.287,0.286c-0.285,0-0.573,0-0.573,0.286
		c-0.286-0.286-0.86,0-1.433,0.285h-0.861c-0.859,0-1.146,0-1.146,0.287l-1.72,0.574h-0.287c-0.286,0-0.573,0-0.573,0.286h-0.287
		l-0.287,0.287c0,0.286,0,0.286-0.286,0.286h-0.288c-0.859,0-1.146,0.289-1.432,0.289c-0.287,0-0.287,0-0.574,0.285h-0.286h-0.574
		c-0.287,0.288-0.574,0.574-1.147,0.574h-0.572c-0.287,0.287-0.573,0.287-0.859,0.573c-0.287,0-0.574,0-0.861,0.287h-0.285
		c-0.288,0-0.861,0.286-1.148,0.286H18.09c-0.286,0-0.572,0-0.572,0.286c-0.574,0.288-1.147,0.288-1.434,0.288h-0.287l-0.574,0.574
		c-0.859,0.858-1.72,0.572-2.579,0.858c-0.287,0-0.574,0-0.574,0.288c-0.286,0-0.573,0-0.573,0.285H11.21h-0.286
		c-0.287,0-0.574,0-0.574,0.287H9.775c-0.285,0.286-0.573,0.286-0.573,0.286c-0.286,0.287-0.86,0.287-1.147,0.287L7.769,60.14H7.481
		H6.908v0.287H6.335c0-0.287-0.287,0-0.573,0.286c0-0.286,0-0.286-0.287,0c-0.287-0.286-0.287-0.286-0.287,0H4.615L4.327,61
		c-0.286,0-0.286,0-0.286-0.287l-0.285-0.286H2.895c-0.287-0.287-0.573-0.287-0.86-0.287l-0.86-0.86v-0.287l0.287-0.859v-0.859
		c-0.287-0.287-0.287-0.575-0.574-0.861c0-0.286,0-0.573-0.285-0.859c-0.574,0-0.574-0.287,0-0.861v-0.285
		c0.285-0.289,0.285-0.575,0-0.862L0.027,52.97c0.287,0,0.574-0.286,0.859-0.286l0.287-0.287c0.287-0.285,0.287-0.571,0.574-0.857
		c0.286-0.287,0.573-0.573,1.146-0.573c0,0,0.287-0.286,0.861-0.575c0.859-0.287,1.145-0.572,1.432-0.572h0.287
		c0.287-0.287,0.573-0.573,1.146-0.287c0.287,0,0.287,0,0.287-0.286c0.286,0,0.286-0.286,0.573-0.286h0.287l0.286-0.287
		c0.287,0.287,0.573,0.287,0.861,0l0.286-0.287h0.573l0.574-0.286h0.574c0.286,0,0.572,0,0.572-0.287h0.86h0.287
		c0-0.86,0.286-0.86,0.859-0.285c0-0.289,0-0.289,0.286-0.289c0.287,0.289,0.287-0.286,0.574-0.286h0.572
		c0.287-0.287,0.287-0.287,0.287,0h0.287c0.287-0.287,0.574-0.287,0.86-0.287v-0.286h0.286c0.861-0.285,0.861,0,1.147,0
		c0-0.285,0.286-0.285,0.573-0.285h0.287h0.573h0.288c0.285-0.289,0.285-0.289,0.572-0.289c0,0.289,0.287,0,0.574-0.286h1.146h0.286
		c0.287-0.286,0.287-0.572,0.573-0.572l0.287,0.286v-0.286h0.287c0.288,0,0.574,0,0.574-0.287c0.286,0,0.286-0.288,0.573-0.574
		v0.286c0.287,0,0.287,0,0.287-0.286h0.572h0.574v-0.286c0.285,0,0.285-0.287,0.573-0.287l0.286,0.287c0-0.287,0-0.287,0.287-0.287
		h0.287l0.287-0.287c0.573,0,1.146,0,1.434-0.286c0,0.286,0.286,0.573,0.286,0.286h0.287c0.286,0,0.286-0.286,0.573-0.573h0.574
		c0.285,0,0.285,0,0.285-0.286h0.288c0.286,0.286,0.286,0.286,0.286,0h0.287c0-0.287,0.286-0.287,0.286,0h0.286
		c0.287,0,0.287,0,0.287-0.287c0-0.285,0.287,0.287,0.287,0l0.286-0.285h0.573l0.287,0.285l0.287-0.285h0.287v-0.289h0.286
		c0.286,0.289,0.573,0.289,0.573,0c0-0.286,0.287-0.286,0.573-0.286h1.147c0.287,0,0.574-0.287,0.86-0.574h0.287
		c0,0.287,0.286,0.287,0.286,0c0.286,0,0.573-0.288,0.859-0.288c0.287,0,0.574,0,0.86-0.285c0.287,0.285,0.287,0.285,0.287,0h0.286
		l0.287-0.286h0.287c0-0.286,0-0.286,0.287-0.286h0.285c0.287-0.289,0.86,0,1.721-0.289c0.287-0.286,1.147-0.286,2.008-0.286
		c0.287,0,0.287,0,0.287-0.286h0.287c0.859,0,0.572-0.286,1.433-0.286l0.287-0.287c0.86,0,1.146-0.574,2.007-0.574
		c0.859,0,0.859-0.286,1.721-0.286c0.287,0,0.287,0,0.287-0.287h0.286c0.286,0,0.573,0,0.573-0.286c0.287,0.286,0.573-0.285,0.859,0
		h0.287h0.287l0.573-0.285h0.573c0-0.287,0.286-0.287,0.573-0.287c0.286,0,0.573,0,0.573-0.289h1.146
		c0.287-0.286,0.287-0.286,0.575-0.286h0.286c0-0.286,0.287-0.286,0.573-0.286c0.287,0,0.573,0,0.86-0.286
		c0.286,0.286,0.286,0.286,0.286,0l0.286-0.287h0.574h0.287c0.286,0,0.286-0.288,0.572-0.288h0.574h0.573l0.286-0.286h0.861
		c0.287,0,0.287-0.286,0.572-0.286c0.287-0.286,0.287-0.286,0.287,0h0.287c0-0.286,0.287-0.286,0.574-0.286
		c0.286-0.286,0.572-0.286,0.572-0.286h0.574h0.859h0.287c0.287,0,0-0.575,0.287-0.286h0.574c0.285,0,0.285,0,0.285-0.289h0.287
		h0.287c0.574,0,0.859,0,1.146-0.286c0.861,0,1.148-0.287,2.007-0.287c0.287-0.285,0.573,0.287,0.86-0.572
		c0.286,0.287,0.286,0.287,0.573,0c0.86,0,1.434,0,1.721-0.286c0.286-0.289,0.286-0.289,0.286-0.575h0.288h1.146h0.86
		c0.286-0.286,0.86,0,1.147-0.286h0.573c0.286,0,0.286,0,0.573-0.287c0.286,0.287,0.286,0.287,0.286,0h0.287h0.86
		c0.287,0,0.573,0,0.573-0.288l0.287-0.286l1.72-0.286h0.287l0.287-0.288c0.859,0,0.573-0.286,1.434,0
		c0.287-0.286,0.287-0.286,0.573-0.286l2.294-0.573h0.287c0.859,0.286-0.287-0.287,0.572-0.287h0.287h0.574
		c0.285-0.288,0.859,0.287,0.859-0.575c0.287,0,0.287,0,0.287,0.287c0.286,0,0.572,0,0.572-0.287l0.287-0.286h0.861l0.285,0.286
		l0.287-0.286c0.287,0.286,0.287-0.287,0.574,0h0.285c0.287-0.287,0.574-0.287,0.861-0.573c0.86,0,1.434,0,1.721-0.288h0.286
		c0.286,0.288,0.573,0.288,0.573,0c0.287-0.287,0.287-0.287,0.574-0.287c0.86,0,0.86-0.287,1.721-0.287
		c0.285-0.286,0.285-0.286,0.572,0l0.287-0.286h0.287c0.286,0,0.859,0,1.146-0.287l0.287,0.287c0-0.574,0.287-0.574,0.573-0.287
		c0.287-0.287,0.573-0.287,0.86-0.287h0.573c0-0.287,0.287-0.574,0.573-0.574h0.286c0.86-0.287,1.435-0.287,2.294-0.573
		c0.287,0,0.287-0.288,0.574-0.288h1.146l0.859-0.286c0.288,0,0.574,0,0.861-0.287c0.286,0,0.573,0,0.573-0.286h0.286h0.287
		c0.287,0.286,0.287-0.286,0.573,0c0.287,0,0.287,0,0.287-0.286h0.573c0-0.287,0-0.287,0.287,0c0-0.287,0-0.287,0.285,0V21.72h0.287
		c0.287,0.287,0.287,0.287,0.287,0h0.287l2.294-0.573h0.287l0.286-0.287h0.287h0.574h0.285c0.287,0,0.287,0,0.574-0.287
		c0.574,0,0.859,0,1.146-0.287h0.287c0.86,0.287,0.86-0.287,1.72-0.287c0.286-0.286,0.286-0.286,0.286,0
		c0.861,0,1.147-0.286,1.435-0.286c0.286-0.287,0.573-0.573,0.573-0.287h0.86h0.286c0.287-0.286,0.287-0.286,0.573-0.286
		c0.287,0,0.287,0,0.287-0.288h0.573c0.287,0,0.287,0,0.574-0.286h0.286c0.287,0.286,0.287,0.286,0.573,0
		c0.287-0.287,0.574-0.287,1.435-0.287c0.286-0.286,0.573-0.573,0.573-0.286v-0.575h0.286c0.286,0.288,0.573,0.288,0.86,0
		c0-0.286,0.286,0.861,0.286,0c0-0.286,0-0.286,0.287-0.286c0.286,0.861,0.573-0.287,0.86,0c0,0.286,0.286,0.286,0.286,0
		c0-0.287,0.287,0,0.287-0.287c0.287,0,0.287,0,0.573,0.287v-0.287h1.147c0.286,0,0.286,0,0.573-0.287h0.574
		c0-0.287,0.286-0.287,0.286,0h0.288c0-0.287,0.285-0.287,0.859-0.287l0.287-0.287h0.286h0.286c0.286,0,0.573,0,0.859-0.286
		c0.287,0.286,0.287-0.287,0.573,0h0.287h0.573c0.574,0,0.861,0,0.861-0.287h0.287h0.285c0.86,0,1.147,0,1.434-0.286h0.287h0.573
		c0.287,0,0.287,0,0.573-0.288c0.287,0,0.574,0,0.861-0.287c0.286,0.287,0.572,0,0.859,0.287c0-0.287,0.286-0.287,0.859-0.287
		c0.861-0.287,1.436-0.287,2.295-0.572c0.573,0,0.859,0,0.859-0.287l0.287,0.287c0-0.287,0-0.287,0.287-0.287h0.574h0.572
		l0.574-0.287h0.573h0.573c0.287-0.287,0.861,0,0.861-0.287h0.572h0.574c0.286-0.287,0.572-0.287,0.572-0.287
		c0.287,0,0.574,0,0.574-0.287h0.285c0,0.287,0.289,0.287,0.289,0h0.285h0.86c0.287,0,0.287,0,0.573-0.286
		c0.287,0,0.287,0,0.287,0.286v0.287c-0.287,0.287-0.287-0.287-0.573,0c0,0.287-0.287,0.287-0.573,0.287
		c0.286,0.287,0.573,0.287,0.859,0h0.287h0.287c0-0.287,0-0.287,0.285-0.287c0-0.287,0-0.287,0.287,0h0.287h0.574h0.287l0.286-0.287
		h0.573c0,0.287,0.287-0.574,0.287,0.287c0.286-0.287,0.573-0.287,0.859-0.572h-0.859v-0.288c0.286-0.286,0.286-0.286,0.573-0.286
		c0.286,0,0.286,0,0.573-0.287h0.572v0.287c0.287-0.287,0.574-0.287,0.861,0c0,0.286,0,0.286-0.287,0.286l0.287,0.288l0.287-0.288
		c0,0.288,0,0.288,0.286,0.288s0.286,0,0.286-0.288h0.287c0.287-0.286,0.574-0.286,0.574-0.286h-0.287c-0.287,0-0.287,0-0.287-0.287
		v-0.286h0.287v-0.287l0.287,0.287c0.285,0.286,0.285,0.286,0.285,0l0.287-0.287c0.287-0.288,0.287-0.288,0.574-0.288v0.288
		l0.287-0.288c0.287-0.286,0.287-0.286,0.573,0v0.288c0.286,0,0.286,0,0.286-0.288l0.287-0.286h0.573
		c0,0.286-0.286,0.861-0.286,1.147h0.574h0.285c0.287-0.286,0.574-0.286,0.86-0.286c-0.286-0.861-0.286,0.286-0.573-0.575
		c-0.287,0.288-0.287,0.288-0.287,0v-0.286V9.964c0.287,0.287,0.574,0.287,0.574,0h0.286l0.288,0.287V9.964h0.286v0.287
		c-0.286,0-0.286,0-0.286,0.286v0.575h0.286v-0.575h0.286h0.287c0-0.286,0.286,0.861,0.286,0c0.286-0.286,0.286-0.286,0.286,0
		c0.287,0,0.574,0,0.86-0.286c0.288,0.286,0.288,0.286,0.573,0h0.287h0.287c0.287,0,0.86-0.287,2.007-0.574h0.86
		c0.286,0,0.574,0,0.86-0.287h0.86c0-0.287,0-0.287,0.286-0.287c0.286,0.287,0.573,0.287,0.86,0c0.859-0.287,0.573,0,0.859,0h0.287
		c0.287,0,0.287,0,0.287-0.287l0.287,0.287c0.286,0.287,0.286,0.287,0.286,0c0.286-0.287,0.286-0.287,0.573-0.287
		c0.86,0,0.86-0.286,1.721-0.286h1.146c0.287,0.286,0.574,0.286,0.86,0.286h0.86c0.287,0,0.287,0,0.287-0.286
		c0.287-0.287,0.287-0.287,0.287,0c0.286,0.286,0.286,0.286,0.573,0h0.859h0.573c0.287,0,0.287-0.287,0.574-0.287V7.957l0.286,0.287
		c0.859,0,0.573-0.287,1.434-0.287h0.286c0,0.287,0.287,0,0.574-0.287c0.287,0,0.574,0.86,0.574,0h1.146
		c0.861-0.286,0.861,0,1.722,0c0-0.286,0.287,0.287,0.287,0l0.284-0.286c0.287,0,0.287,0,0.575-0.287
		c0.286,0.287,0.572,0,0.858,0.287h0.289l0.859-0.287h0.287h0.286l0.573-0.286h0.573h0.288c0-0.287,0.285-0.287,0.285,0h0.288h0.285
		c0.288-0.287,0.288-0.287,0.288,0l0.285-0.287h0.573c1.149,0,2.008,0,2.583-0.287h0.573h0.859c0.288,0,0.573,0,0.573-0.287h0.573
		h0.288h0.285h0.288c0-0.287,0.285-0.287,0.285,0c0,0.287,0.286,0.287,0.286,0c0.285-0.287,0.573,0,0.86-0.287l0.286,0.287
		c0.288-0.287,0.288-0.287,0.573,0c0-0.287,0-0.573,0.288-0.573h0.287h0.284v0.287c0.287,0.287,0.287,0.287,0.287,0h0.573
		c0.575,0,0.863,0,0.863-0.287h0.285c0.861,0,0.574-0.286,1.433,0h0.288h0.287l0.286-0.286h0.287h0.573
		c0.288,0.286,0.288,0.286,0.288,0c0.286,0,0.286,0,0.573-0.288h0.286c0.285,0.288,0.285,0.288,0.285,0h0.288
		c0,0.288,0,0.288,0.285,0c0.288,0.288,0.288,0.288,0.288,0h0.287h0.286h0.287c0-0.286,0.286-0.286,0.286,0h0.573
		c0-0.286,0.288-0.286,0.575-0.286c0.284,0.286,0.284,0.286,0.284,0c0.287,0.286,0.287,0.286,0.287,0
		c0.288,0.286,0.288,0.286,0.575,0c0,0.286,0.286,0.286,0.571,0h0.288c0.287-0.86,0.287,0.286,0.571-0.574h0.29h0.285h0.288h0.285
		c0.288,0,0.288,0,0.573-0.287c0.288,0.287,0.573,0.287,0.861,0h0.571c0.287,0,0.287,0,0.575,0.287h0.285
		c0.286-0.287,0.574-0.287,0.861-0.287c0-0.287,0-0.287,0.288,0h0.285h0.286h0.289c0-0.287,0-0.287,0.284,0h0.287h0.573h0.288
		c0.286,0.287,0.286-0.287,0.573-0.287h0.288h0.285h1.146l0.286-0.287c0.289,0.287,0.575,0.287,1.146,0.287
		c0.29-0.287,0.863,0,1.148-0.287c0.861,0.287,1.146,0.287,1.435-0.286h0.285c0,0.286,0.286,0.286,0.574,0h0.287v0.286
		c0.286,0,0.286-0.574,0.573-0.286h0.859h0.86h0.859h0.575l0.286-0.288h0.285h0.288h0.287h0.286h0.287h0.571
		c0-0.286,0.29-0.286,0.29,0h0.285h0.288c0-0.286,0.284,0,0.284-0.286l0.575,0.286c0.285,0,0.285,0,0.573-0.286h0.285h0.575h0.573
		h0.571h0.574h0.575h0.573h0.285c0.288,0,0.288,0,0.288-0.288c0.86,0.288,1.145,0,2.008,0h0.571c0.86,0,0.575-0.287,1.434,0h0.288
		c1.146,0,2.008,0,2.866-0.287c0,0.287,0,0.287,0.288,0l0.285,0.287h0.861h0.286c0.285,0,0.573-0.287,0.86-0.287
		c0.286,0.287,0.571,0.287,0.571,0.287c0.861-0.287,0.861,0,1.148-0.287h0.288c0.286-0.286,0.859-0.286,1.146,0
		c0-0.286,0-0.286,0.286,0h0.285h0.575V1.363c0.286,0,0.286,0.286,0.573,0.286l0.286-0.286c0.861,0,0.861,0.286,1.146,0.286
		c0.288,0,0.288,0,0.575-0.286c0.286,0.286,0.859,0.286,1.146,0h0.288h0.573h0.571h0.861c0.285-0.286,0.285-0.286,0.285,0h0.575
		h0.288c0.285,0,0,0.286,0.858,0h0.288c0,0.286,0,0.286,0.284,0c0-0.286,0.289-0.286,0.575,0c0.285-0.286,0.285-0.286,0.285,0h0.861
		h0.287h0.573c0.286-0.286,0.286-0.286,0.571,0c0.861-0.286,0.574,0,1.433-0.286c0.29,0.286,0.29,0.286,0.29,0l0.285,0.286h0.288
		c0.573,0,0.858,0,0.858-0.286h0.286h0.575c0.573,0.286,1.146,0.286,1.72,0c0,0.286,0,0.286,0.288,0h0.285
		c0,0.286,0.288,0.286,0.573,0.286c0.288-0.286,0.861-0.286,1.435,0c0.288,0,0.575,0,0.859-0.286h0.573h1.722
		c0.288,0,0.573,0,0.859-0.287l0.573,0.287h1.148h0.859h0.573h0.285h0.861c0.86-0.287,0.573,0.286,1.435,0
		c0,0.286,0,0.286,0.287,0.286h0.286l0.571-0.286h0.575h0.573h0.573c0,0.286,0,0.286,0.287,0h0.286h0.288h1.72h0.285h0.575
		c0.286,0.286,0.286,0.286,0.286,0h0.285c0,0.286,0.288,0,0.288,0.286c0.286-0.286,0.286-0.286,0.286,0c0.285,0,0.285,0,0.575-0.286
		l0.287,0.286c0.286,0,0.286-0.286,0.571-0.286l0.288,0.286h0.573h0.285c0.288-0.286,0.288-0.286,0.288,0
		c0.286-0.861,0.286,0.573,0.573-0.286c0,0.286,0.288,0.286,0.861,0.286h0.285h0.575h0.571h0.286h1.437c0.287,0,0.287,0,0.573-0.286
		l0.285,0.286c0.288,0,0.573,0,0.573,0.286h0.286c0-0.286,0.287-0.286,0.573-0.286h0.29h0.283h0.288
		c0.287,0.286,0.287,0.286,0.573,0c0.287,0.286,0.573,0.286,0.573,0.286h0.573h0.858h0.576h0.573h0.573h0.287
		c0,0.287,0.286,0.287,0.286,0c0.287,0.287,0.86,0,1.146,0.287h0.573h0.861h0.573c0.285,0.288,0.573,0.288,1.146,0.288
		c0.289,0,0.573,0,0.86-0.288c0,0.288,0,0.288,0.288,0.288c0-0.288,0.286-0.288,0.286,0h0.573c0.287,0.286,0.287,0.286,0.287,0
		h0.571c0.29,0,0.575,0,0.575,0.286c0.288,0,0.573,0,0.573-0.286h0.288c0.286,0.286,0.286,0.286,0.571,0.286h0.288h0.573h0.285
		c0.286,0,0.286,0,0.286,0.288h0.289c0.286-0.288,0.571-0.288,0.859-0.288c0.285,0,0.285,0,0.285,0.288h0.574h0.285
		c0-0.288,0.29,0.286,0.29,0h0.571c0.287,0,0.287,0,0.575,0.286c0-0.286,0-0.286,0.285,0h0.286V2.797c0.287,0,0,0.286,0.86,0
		c0.288,0,0.574,0,0.574,0.286h0.573h2.009c0.286,0.287,0.572,0.287,0.859,0V3.37h0.573h0.573h0.859c0,0.287,0.287,0.287,0.86,0.287
		h0.576h0.573c0.285,0.287,0.285,0.287,0.573,0c0.285,0,0.285,0.287,0.571,0.287c0.86,0,1.722,0.287,2.008,0.574
		c0.287,0,0.287-0.86,0.575,0c0.283,0.286,0.283,0.286,0.283,0h0.286h0.575c0,0.286,0.573,0,0.858,0.286
		c0.288,0,0.288,0,0.288-0.286c0-0.287,0-0.287,0.288,0l0.285,0.286c0.286-0.286,0.286-0.286,0.286,0h0.86h0.861
		c0.287,0,0.287,0.288,0.573,0.288c0.287-0.288,0.287,0.286,0.575,0h0.284c0,0.286,0.287,0.286,0.573,0
		c0.287,0.286,0.287,0.286,0.575,0.286h0.858h0.575c0,0.287,0,0.287,0.286,0.287h0.287h0.574h1.146l0.287-0.287l0.286,0.287h0.285
		h0.29l-0.29,0.287v0.287h0.29h1.145c0.288,0.287,0.288,0,0.573,0.287c0,0.287,0,0.287,0.288,0c0.858,0,1.146,0,1.432,0.287h0.288
		c0.573,0,0.859,0,1.146,0.286c0,0.287,0.286,0,0.573-0.286l0.573,0.286h0.573h0.286c0.287,0.287,0.287,0.287,0.573,0.287h0.287
		h0.288h0.286l0.287,0.286h1.145h0.29h0.571h0.285c0,0.287,0.29,0.574,0.29,0.287c0.286,0,0.286,0.287,0.571,0.287l0.288-0.287
		c0.287,0,0.287,0,0.573,0.287c0.287-0.287,0.287-0.287,0.287,0c0.286,0,0.286,0,0.286,0.287h0.858h0.288h0.573
		c0.288,0,0.288,0,0.288,0.286c0.285,0,0.285,0,0.285-0.286c0.288,0,0.288,0,0.288,0.286h0.573c0,0.287,0.285,0,0.285-0.286
		c0.288,0,0.288,0,0.288,0.286v0.287c0.285,0,0.285,0.287,1.146,0c0.287,0.287,0.575,0.287,0.861,0.287c0.287,0,0.287,0.287,1.148,0
		v0.287c0.285,0,0.285,0,0.285,0.287l0.286-0.287c0.287,0,0.287,0,0.287,0.287h0.573h0.286h0.573c0,0.287,0.286,0.287,0.859,0.287
		c0.287,0.286,0.287,0.286,0.287,0h0.286c0.287,0.286,0.287,0.286,0.575,0.286h0.287h0.571h0.286c0.29,0,0.29,0.575,0.575,0.575
		c0-0.287,0.286,0,0.573,0.286h0.573c0.573,0,0.861,0,1.145,0.287c0.288,0,0.288,0.286,0.575,0.286c0.288,0,0,0.288,0.859,0h0.288
		c0.287,0,0.287,0,0.573,0.288c0.287,0.286,0.573,0.572,0.86,0.572h0.861h0.573h0.573c0.288,0.287,0.288,0.287,0.573,0h0.288
		c0.285,0.287,0.285,0.287,0.571,0.287c0.287,0,0.573,0,0.287,0.287l0.286,0.287h0.287v1.433L400,15.412h-0.288
		c0,0.287,0,0.287-0.287,0.573v0.287c-0.286,0.287-0.573,0.861-0.859,1.147c0,0.861-0.285,0.861-0.285,1.147v0.286
		c-0.288,0-0.573,0.288-0.288,0.574h-0.285h-0.288c-0.287,0-0.287,0-0.573,0.287c-0.287,0.286-0.287,0.286-0.287,0.573
		c-0.286,0.287-0.574,0.574-0.861,0.287h-0.286l-0.287-0.287c-0.286,0-0.859-0.287-1.146-0.287c-0.288,0-0.288,0-0.288-0.286h-0.571
		c-0.288,0-0.863,0-1.146-0.287h-0.288c-0.285,0-0.285-0.286-0.573-0.286c0,0.286-0.287,0.286-0.287,0l-0.286-0.288l-1.148-0.286
		h-0.571h-0.286c-0.287-0.287-0.287-0.287-0.575-0.287c-0.287-0.861-0.86,0-1.72-0.861h-0.573c-0.286,0-0.286,0-0.286-0.286h-0.573
		h0.573c-0.285,0-0.285-0.574-0.573-0.287c-0.287,0-0.287-0.861-0.287,0c0-0.861-0.286,0-0.286-0.287h-0.285
		c-0.29-0.287-0.29-0.287-0.575-0.287c-0.286,0.287-0.286,0.574-0.573,0.574c-0.286-0.287-0.286-0.287-0.574,0
		c0-0.287-0.287-0.287-0.573-0.287v-0.287c0.286,0,0.286,0,0.286-0.287h-0.286v-0.286h-0.287h-0.288c0-0.287-0.285-0.287-0.285,0
		h-0.288c0-0.287,0-0.287-0.285-0.287v0.287h-0.573v-0.287h-0.288c-0.285-0.286-0.573-0.286-0.573-0.286
		c-0.286,0.286-0.573,0.286-0.573,0h-0.288c-0.285,0-0.285-0.288-0.571-0.288h-0.287h-0.286c-0.287-0.287-0.573-0.287-0.86-0.287
		c-0.288-0.287-0.288-0.287-0.573,0c-0.286,0.287-0.286,0.287-0.286,0h-0.575c0-0.287-0.288-0.287-0.861-0.287
		c0-0.286-0.285-0.286-1.145-0.286c-0.287,0-0.287,0-0.287-0.287c-0.286,0.287-0.286,0.287-0.574,0c-0.287,0.287-0.573-0.287-0.86,0
		c-0.286,0-0.286,0-0.286-0.287h-0.287c-0.286,0.287-0.286,0.287-0.286,0h-0.573c-0.287-0.287-0.573,0-0.86-0.287h-0.859
		c-0.288,0-0.288-0.287-0.573-0.287h-0.288h-0.858l-0.288-0.287h-0.285h-0.288h-0.287h-0.286h-0.571h-0.29
		c0,0.287-0.285,0-0.571-0.286c0-0.288-0.287,0-0.287-0.288h-0.288c-0.285,0.288-0.573,0.288-0.573,0h-0.575
		c-0.284,0-0.284,0-0.571-0.286h-0.286h-1.148c-0.285-0.287-0.285-0.287-0.285,0h-0.288c-0.287,0-0.573,0-0.86-0.287h-0.572
		c-0.287-0.286-0.573-0.573-0.573-0.286h-0.86c-0.288,0.286-0.288,0.286-0.573,0h-0.288c-0.287,0-0.287-0.861-0.287,0h-0.286
		c0-0.575,0-0.575-0.285,0h-0.288v-0.575h-0.573h-1.148c0-0.286-0.286-0.286-0.569,0c-0.288-0.286-0.575-0.286-0.861-0.286
		l-0.288-0.287h-0.573c0-0.287-0.285,0-0.285-0.287h-0.288h-0.287c-0.286,0-0.286,0-0.571,0.287
		c-0.288-0.287-0.861-0.287-1.723-0.287c0-0.287-0.285-0.287-0.86,0h-0.286c0-0.287,0-0.287-0.285-0.287h-0.288h-0.285
		c0,0.287-0.288,0-0.575-0.287h-0.286h-1.435h-0.285c0-0.287-0.288-0.287-0.288,0h-0.285c-0.288-0.287-0.575-0.287-0.861-0.287
		c-0.573,0-0.861,0-0.861-0.286c-0.86,0.86-0.86,0-0.86,0.286c-0.286-0.286-0.571,0-0.859-0.286h-0.287
		c-0.288,0-0.288,0-0.288,0.286c-0.283,0-0.283,0-0.283-0.286l-0.29,0.286h-0.285c0-0.286,0-0.286-0.286-0.286
		c-0.288-0.287-0.288-0.287-0.573,0c0,0.286-0.288,0.286-0.288,0c-0.285-0.287-0.571,0-1.432-0.287l-0.286,0.287V8.244h-0.287
		h-0.288c-0.285,0-0.571,0-0.859-0.287c0,0.287,0,0.287-0.285,0.287c-0.288-0.287-0.288-0.287-0.288,0
		c-0.285,0-0.285-0.287-0.575-0.287c0,0.287-0.285,0-0.285,0.287h-0.286h-0.287c-0.286-0.287-0.286,0.287-0.573,0
		c0-0.86-0.286-0.86-0.574,0c0-0.287-0.287-0.287-0.571-0.287h-0.289h-0.288h-0.285c-0.288,0.287-0.288,0.287-0.288,0h-0.573h-0.573
		c0-0.287-0.573-0.287-0.573,0h-0.573c0.287,0,0.287,0,0-0.287h-0.286V7.384c-0.289,0.286-0.573,0.286-0.573,0.286
		c-0.287,0-0.573,0-0.573,0.287c-0.287,0-0.287,0-0.287-0.287c-0.288,0.86-0.573,0.86-0.573,0c-0.286-0.286-0.286-0.286-0.286,0
		c0,0.287,0,0.287-0.287,0.287c-0.286-0.287-0.286-0.287-0.286,0c-0.29,0.287-0.29,0.287-0.29,0c-0.283,0-0.283,0-0.283-0.287
		c0-0.286-0.575-0.286-0.575,0h-0.286h-0.573c-0.287,0,0,0.287-0.86,0.287c-0.288-0.287-0.571-0.287-0.861-0.287l-0.286-0.286
		h-0.287h-0.571h0.285h0.286c0,0.286,0,0.286-0.286,0.286h-0.573c-0.285,0-0.285,0-0.285-0.286c0,0.286-0.286,0-0.573-0.287
		c-0.288,0-0.288,0-0.288,0.287V7.67l-0.285-0.286h0.285V7.097h-0.285h-0.863c-0.286,0-0.571,0-0.857,0.287h-0.287V7.097
		c-0.288,0.287-0.288,0.287-0.573,0h-0.288c0,0.287,0,0.287,0.288,0.287c-0.573,0-0.861,0-0.861-0.287h-0.573v0.287l-0.288-0.287
		c-0.285,0-0.285,0.287-0.571,0.287V7.097h0.286h-0.286c-0.287,0-0.575,0-0.86,0.287c0,0.286-0.286,0.286-0.573,0V7.097h-0.575
		h-0.286c-0.288,0-0.288,0.287-0.573,0.287l-0.286-0.287h-0.287c0,0.287-0.288,0-0.288,0.287c-0.285,0-0.571,0-0.571-0.287h-0.575
		l-0.287,0.287h-0.859h-0.573c-0.286,0-0.573,0-0.573,0.286c-0.288-0.286-0.573-0.286-0.859-0.286h-0.575h-0.285
		c-0.286-0.287-0.286,0.286-0.573,0h-0.288h-0.573V7.097c0-0.286,0-0.286-0.286-0.286h-0.287c0,0.286,0,0.286-0.286,0
		c-0.287,0-0.575,0-0.575,0.286l-0.285,0.287h-0.286V7.097V6.811h-0.573v0.286v0.287l-0.573-0.287h0.285h-0.573
		c0,0.287,0,0.287-0.287,0c0.287,0,0.287,0,0-0.286h-0.286h-0.287c0-0.287,0-0.287-0.288,0h-0.285c0,0.859-0.571,0.286-0.859,0.573
		c0-0.287,0-0.287-0.287,0h-0.286h-0.288h-0.573h-0.287h-0.573c-0.284,0-0.571,0-0.571-0.287c-0.288-0.286-0.288-0.286-0.288,0
		l-0.287,0.287h-0.286h-0.285h-0.288h-0.288h-0.285c0,0.286-0.288,0.286-0.573,0h-0.573c0,0.286-0.288-0.287-0.288,0
		c0-0.287-0.287,0-0.287-0.287c-0.286-0.286-0.286,0-0.286,0.287h-0.287h-0.286c-0.288-0.287-0.288-0.287-0.575,0
		c0,0.286-0.286,0.286-0.286,0c0-0.287-0.285-0.86-0.285,0l-0.573-0.287h-0.288c0,0.287-0.285,0.287-0.575,0.287
		c-0.285,0-0.285,0-0.571,0.286c-0.287-0.286-0.287-0.286-0.287,0h-0.286h-0.859c-0.287-0.286-0.287-0.286-0.573,0h-1.148V7.384
		V7.097c-0.285,0-0.285,0-0.285,0.287c0,0.286,0,0.286-0.286,0.286l-0.289-0.286V7.67h-0.284l-0.288-0.286l-0.287-0.287h-0.286
		v0.287V7.67c-0.285,0-0.285,0-0.573-0.286l0.288-0.287h-0.288c0,0.287,0,0.287-0.287,0.287l-0.288,0.286
		c-0.285,0-0.571,0-0.571,0.287h-0.287l-0.288-0.287c-2.293,0-4.587,0.287-6.88,0.287h-0.287h-0.286h-0.288h-0.573
		c-0.287,0-0.287,0-0.287,0.287h-0.859c-0.86,0-0.86-0.287-1.72,0h-0.573c-0.573,0-0.859,0-1.146,0.287h-0.288
		c0-0.287,0-0.287-0.285,0c-0.288-0.287-0.288-0.287-0.288,0c0-0.287,0-0.287-0.285,0H261.8c-0.285-0.287-0.285-0.287-0.573-0.287
		c-0.285,0.287-0.573,0.287-0.858,0.287h-1.146h-0.863c-0.284-0.287-0.284,0.286-0.571,0.286h-0.286h-1.148h-1.146h-0.859h-0.86
		h-0.573l-0.288,0.287c-0.285-0.287,0,0-0.86-0.287c-0.284,0-0.284,0-0.284,0.287h-0.288V8.816h-0.575
		c-0.285,0.287-0.571,0.287-0.858,0.287h-0.286V8.816l-0.287,0.287c-0.288,0.287-0.288-0.287-0.573,0
		c-0.286-0.287-0.861,0.287-1.147,0.287c-0.287,0-0.573-0.287-0.86-0.287h-0.573c-0.286,0.861,0,0-0.859,0h-0.287
		c-0.286,0-0.286,0-0.573,0.287c0,0.287,0,0.287-0.288,0.287c0-0.287-0.286-0.287-0.286,0c-0.285,0-0.285,0-0.573-0.287h-0.285
		c0-0.287-0.29,0-0.573,0.287c-0.288,0.287-0.288,0.287-0.573,0h-0.573h-3.154c0,0.287,0,0.287-0.288,0c0,0.287,0,0.287-0.287,0.287
		c-0.861-0.287-0.861,0-1.719,0h-0.575h-0.573h-0.575l-0.286,0.287h-0.573c-0.287,0-0.287,0-0.573-0.287
		c-0.285,0.861-1.146-0.287-1.432,0.573h-0.861c-0.285,0-0.575,0.288-0.575,0.575c-0.284-0.287-0.284-0.575-0.284-0.575h-0.287
		c-0.288,0-0.573,0.861-0.859,0c-0.862,0-0.862,0.575-1.146,0.575h-0.861h-1.434l-0.861,0.286h-1.145c-0.288,0-0.288,0-0.288,0.287
		h-0.285c0-0.287-0.288-0.287-0.288,0h-0.573h-0.575h-0.571h-0.861c0,0.286-0.285,0.286-0.573,0.286h-0.287h-0.288
		c-0.86-0.286-0.573,0-1.432,0l-0.288,0.288h-0.573h-0.573h-0.288c0-0.288,0-0.288-0.285,0h-0.286h-0.285
		c-0.288,0.286-0.288,0.286-0.288,0h-0.285v0.286c-0.575-0.286-1.146-0.286-1.435,0h-0.575l-2.867,0.287h-0.573h-0.285
		c-0.288,0.287-0.573,0-0.861,0.287c-0.285,0-0.285-0.287-0.573-0.287v0.287c-0.285,0.287-0.285-0.287-0.573,0h-0.285l-0.288,0.287
		c-1.146,0-2.006,0-2.581,0.287c-0.286,0-0.286,0-0.286-0.287h-0.286c-0.288,0.287-0.575,0.287-0.575,0.287
		c-0.571,0.287-1.432,0.287-2.293,0.287h-0.573c-0.287,0.286-0.572,0.286-0.859,0.286h-0.574h-0.573c-0.286,0-0.574,0-0.574,0.287
		h-0.573c-0.286,0.287-0.286,0.287-0.572,0.287c-0.287-0.287-0.287-0.287-0.574-0.287l-5.447,0.86H188.4
		c0-0.286-0.286,0-0.573,0.287h-0.573h-0.573c-0.286,0.286-0.573,0-0.86,0.286l-2.867,0.287h-0.572c0,0.287,0,0.287-0.288,0.287
		h-0.286c0,0.287,0,0.287-0.287,0c-0.286,0-0.286,0-0.286,0.287h-1.147H179.8c-0.286,0.287-0.573,0.287-0.86,0
		c-0.859,0.287-0.859,0-1.721,0.287c-0.859,0.861-1.433,0-2.293,0.861h-0.287h-0.287l-0.285,0.286h-0.574
		c-0.86,0-2.295,0.287-3.729,0.573c-0.286,0-0.286,0-0.572,0.288c-0.287-0.288-0.287-0.288-0.574,0c0-0.288,0-0.288-0.287,0
		c-0.287-0.288-0.287-0.288-0.573,0h-0.573c-0.286,0.286-0.286,0.286-0.286,0h-0.287l-0.286,0.286c-0.287,0-0.287,0-0.574,0.287
		c-0.286-0.287-0.572,0-0.859-0.287c-0.287,0.287-0.574,0.287-0.574,0.287h-0.574c0,0.286-0.285,0-0.285,0.286
		c-0.287-0.286-0.287,0.287-0.574,0h-0.286c-0.287,0-0.573,0-0.86,0.287c-0.572,0-0.861,0-0.861,0.287
		c-0.285-0.287-0.285-0.287-0.572-0.287c-0.287,0.287-0.287,0-0.573,0.287h-0.286c0,0.287-0.287,0.287-0.574,0.287h-1.146h-0.287
		c-0.287,0-0.287,0-0.287,0.287h-0.286l-0.287,0.286h-0.286h-1.146h-0.287c-0.287,0.287-0.287,0-0.574,0.287
		c-0.573,0-0.859,0-1.146,0.287h-0.287h-0.287c-0.285,0-0.285,0-0.572,0.286c-0.287,0-0.287,0-0.287-0.286
		c-0.287,0-0.574,0-0.574,0.286h-0.572c-0.574,0-0.861,0-1.147,0.286h-0.286h-0.574l-0.287,0.287h-0.286H147.4h-0.287
		c-0.287,0-0.287,0-0.573,0.286h-0.859h-0.86c-0.861,0-0.573,0.288-0.861,0.288h-0.573c0,0.286,0,0.286-0.287,0
		c-0.286,0-0.286,0.286-0.573,0.286c-0.286,0-0.286,0-0.286,0.287h-0.859h-0.286h-0.574l-0.572,0.574h-0.288l-0.573,0.287h-0.574
		h-0.859h-0.287c0,0.287,0,0.287-0.287,0.287c-0.286-0.287-0.286,0.286-0.573,0.286h-0.287h-0.573h-0.573h-0.287
		c-0.286,0-0.286,0.573-0.573,0.287c-0.287,0.287-0.573,0.287-0.859,0.287h-0.861c-0.285,0.288-0.285,0.288-0.572,0.288
		s-0.287,0.286-0.574,0.286h-0.286l-0.287,0.287h-0.573h-0.287l-0.286,0.286c-0.86,0-1.147,0-1.434,0.287
		c-0.86-0.287-0.574,0-0.86,0c-0.287,0-0.287,0.288-0.573,0.288c-0.287,0-0.287,0-0.287-0.288l-0.286,0.288
		c-0.287,0-0.287,0-0.287,0.287h-0.287c-0.859-0.287-0.859,0.286-1.719,0.286h-0.861h-0.287v0.287c-0.859,0-0.572,0.286-1.434,0.286
		c-0.285,0-0.285,0.288-0.572,0.288c0-0.288-0.287,0-0.287-0.288c0-0.286-0.287,0-0.573,0.288c-0.287-0.288-0.573,0.572-0.86,0.286
		h-0.574c-0.287,0.286-0.287,0.286-0.573,0.286h-1.147c0,0.288-0.287,0-0.287,0.288l-0.285,0.287c-0.287-0.287-0.574-0.287-0.86,0
		c-0.86,0-1.434,0.286-2.294,0.286h-0.286v0.575h-0.288c-0.285,0-0.285,0-0.285,0.286c-0.287-0.286-0.287-0.286-0.287,0h-0.287
		h-0.287H110.7c-0.286-0.286-0.286-0.286-0.286,0c-0.287,0-0.287,0.287-0.574,0.287c0-0.287-0.287,0-0.573,0.285h-0.286
		l-0.287,0.287l-0.287-0.287c-0.287,0.287-0.573,0.573-0.573,0.287c-0.287-0.287-0.287,0.286-0.573,0.286h-0.286v0.289h0.286h0.286
		v0.286h-0.572l-0.287,0.286c0-0.286,0-0.286-0.286,0c-0.287,0-0.574,0-0.86,0.286v-0.286v-0.286h0.286l-0.286-0.286h-0.287h-0.573
		c0,0.286-0.287,0.286-0.86,0.286h-0.287h-0.286l-0.287,0.286v0.286h0.86h0.286h0.287c0,0.286-0.287,0.286-0.573,0.286l-2.867,0.574
		c-0.286,0-0.286-0.288,0-0.288c0-0.286,0-0.286,0.287,0c0.286-0.286,0.286-0.286,0.286,0c0.287,0,0-0.286,0.287-0.286
		c0.287-0.286,0.287-0.286,0.572,0l0.287-0.286c0.287,0,0.287,0,0-0.286h-0.287v0.286H102.1c-0.287-0.286-0.574-0.286-0.574-0.286
		l-0.286,0.286h-0.287h-0.286c0,0.286,0,0.286-0.287,0.286h-0.574h-0.287l-0.286,0.286h-0.286h-0.287h-0.286h-0.287l-0.286,0.288
		h-0.574c-0.287,0-0.574,0-0.861,0.287h-0.572c-0.287,0.286-0.574,0.286-0.859,0.286H94.07l-0.287,0.286h-0.572
		c-0.287,0.286-0.287,0.286-0.287,0c-0.287,0-0.287,0-0.287,0.286c0,0.289-0.287-0.572-0.287,0.289
		c-0.285-0.289-0.572-0.289-0.859,0c-0.287-0.289,0,0.287-0.859,0c-0.287,0-0.287,0-0.574,0.287H89.77
		c-0.286,0.285-0.572,0.571-0.859,0.285h-0.287v0.286H88.05c-0.286,0-0.286,0-0.286,0.287h-0.287h-0.287v0.286v0.288
		c0.287,0,0.287,0,0.287-0.288v0.574c0,0.287,0,0.287-0.287,0c0,0.287,0,0.287-0.287,0.287h-0.286h-0.573
		c-0.287,0.286-0.574,0.286-0.86,0.286l-0.286,0.286h-0.573h-0.861c0,0.286,0,0.286-0.286,0.286h-0.287h-0.287
		c0,0.289,0,0.289-0.287,0v0.289c-0.286,0-0.573,0-0.859-0.289h0.573l0.286-0.286h-0.286h-0.287v-0.286l-0.286,0.286
		c-0.287,0-0.573-0.859-0.573,0c-0.287-0.286-0.573-0.286-0.86-0.286l-1.721,0.572V39.497z M78.301,39.497
		c0.287,0,0.574,0,0.86-0.289h0.286c0.288,0,0.288,0,0.288,0.289c0.286,0,0.286,0,0.286-0.289v-0.286v0.286
		c0.287,0,0.287,0,0.287,0.289h0.286c-0.286,0.286-0.286,0.286-0.573,0h-0.286h-0.86c-0.287,0-0.287,0-0.287,0.286l-0.287,0.286
		h-0.286h-0.287c-1.434,0.285-2.581,0.573-3.44,0.86c0-0.575,0-0.86,0.286-0.575h0.573c0.287,0,0.287,0,0.287-0.285h0.573
		l0.287-0.286c0.287,0.286,0.287,0.286,0.287,0s0.286-0.286,0.574,0h0.572l0.287-0.286H78.301z M97.225,35.481
		c-0.287,0-0.287,0-0.574,0.286l-3.439,0.576c-0.287,0.285-0.287,0-0.574,0.285H92.35c-0.285,0-0.572,0-0.572,0.286h-0.574
		l-0.859,0.287H89.77c-0.286,0-0.286,0.286-0.572,0.286h-0.574v-0.286h0.574c0.286-0.287,0.286-0.287,0.572-0.287h0.287l0.287-0.286
		h0.287h0.287h0.285c0.287,0,0.287-0.285,1.146,0c0-0.861,0.287-0.285,0.574-0.572c0,0.287,0,0.287,0.287,0h0.286h0.286h0.287
		c0.287-0.289,0.573-0.289,0.573-0.289h0.288c0-0.286,0-0.286,0.285-0.286h0.287c0.574,0,1.146,0,1.434-0.286h0.287
		c0.574,0,0.86,0,0.86-0.286c0.287-0.287,0.573,0.572,0.573-0.287l0.287,0.287c-0.287,0.858-0.573,0.286-0.86,0.572
		C97.799,35.481,98.085,35.768,97.225,35.481z M125.609,28.887h-0.287c0,0.288-0.286,0-0.286,0.288h-0.286
		c-0.287,0-0.287-0.288-0.573-0.288l-0.286,0.288c-0.288,0-0.288,0-0.574,0.286h-0.287c-0.287-0.286-0.287-0.286-0.287,0h-0.285
		v0.286c-0.861,0-2.008,0.288-3.441,0.574l0.573-0.574h0.86h0.287h0.287c0-0.286,0.285,0,0.285-0.286h0.287l2.581-0.574l0.573-0.286
		h0.572h0.287V28.887z"/>
</g>
</svg>
