<?xml version="1.0" encoding="utf-8"?>
<!-- Generator: Adobe Illustrator 16.0.0, SVG Export Plug-In . SVG Version: 6.00 Build 0)  -->
<!DOCTYPE svg PUBLIC "-//W3C//DTD SVG 1.1//EN" "http://www.w3.org/Graphics/SVG/1.1/DTD/svg11.dtd">
<svg version="1.1" id="Layer_1" xmlns="http://www.w3.org/2000/svg" xmlns:xlink="http://www.w3.org/1999/xlink" x="0px" y="0px"
	 width="343.595px" height="58.999px" viewBox="0 0 343.595 58.999" enable-background="new 0 0 343.595 58.999"
	 xml:space="preserve">
<g>
	<path fill="#DF7861" d="M274.796,1.5c0,0.399,0,0.399,0.399,0h0.4h1.2h0.399l0.4,0.399V1.5c0.4,0.399,0.4,0.399,0.4,0h0.399
		c0,0.399,0.4,0.399,0.4,0h0.399h0.801h0.399h0.4h0.399h0.4h0.4c0,0.399,0,0.399,0.399,0c0-0.4,0.4,0,0.8,0.399h1.6h0.4V1.5
		c0.4,0,0.4,0,0.801,0.399h0.399h0.399h0.801V1.5h0.4l0.399,0.399c0-0.399,0.399-0.399,0.399,0c0.4-0.399,0.4-0.399,0.801-0.399h0.4
		V1.9h0.399c0.399,0,0.8,0,0.8-0.399h0.801h0.399h0.399h0.4c0.4,0.399,0.4,0.399,0.4,0h1.199c0.4,0,0.4,0,0.801-0.4v0.4h0.4
		c0.399-0.4,0.399,0,0.799-0.4h0.4h0.4l0.4,0.4c0.399,0,0.399,0,0.399,0.399c0.399-0.399,0.399-0.399,0.8-0.399h0.4h0.4
		c0.399-0.4,0.399-0.4,0.399,0h0.8l0.4,0.399V1.5h0.399h0.4c0-0.4,0-0.4,0.399-0.4c0-0.399,0,0,0.4,0.4V1.1
		c0.4-0.399,0.4-0.399,0.4,0h0.399h0.4h0.8c0-0.399,0.4,0,0.4-0.399h0.8h0.399V0.3h0.4h-0.4v0.4l0.4,0.399h0.4h0.399l0.8-0.399V0.3
		h0.801c0-0.4,0-0.4,0.399,0h0.399v0.4V1.1V0.701l0.4-0.4h0.4c0,0.4-0.4,0-0.4,0.4h1.2c0.399,0.399,0.8,0,1.2,0.399h0.8
		c0.399-0.399,0.399-0.399,0.399,0c0.4-0.399,0.4-0.399,0.4,0c0.4,0,0.4,0,0.4-0.399c0.4,0.399,0.8,0.399,1.199,0.399h0.801h1.199
		h1.601v0.4h0.399l0.4-0.4c0.4,0,0.4,0,0.4-0.399h0.4V1.1h1.6h0.4h0.399h0.399h0.801h0.8h0.8c0,0.4,0.4,0,0.8-0.399
		c0.4,0.399,0.8,0.399,1.2,0.399s0.4,0,0.4,0.4c0.399,0,0.399,0,0.399-0.4h1.2v0.4c0.4-0.4,0.8-0.4,0.8-0.4c1.2,0,1.2,0.4,2.4,0.4
		h0.8h0.4h0.399h0.8h0.801h1.199h0.4c0,0.399,0.4,0.399,0.4,0l0.399,0.399h0.8h0.4h0.4h0.799v0.4v0.8h0.4l0.801,0.8
		c0,0.4,0,0.801,0.399,1.2c0,0.4,0,0.4-0.399,0.4c-0.4,0.399-0.4,0.8-0.4,0.8v0.8v1.2v1.2c0,0.399-0.4,0.8-0.4,1.199l-0.4,0.4
		c-0.399,0.4-0.399,0.4,0,0.8v0.8c-0.399,0-0.399,0-0.799,0.4h-0.4l-0.801,0.8h-0.799c-0.4,0-0.4,0-0.801,0.4h-1.199h-0.4
		c-0.4,0.399-0.801,0.399-0.801-0.4h-0.799c0,0.4,0,0.4-0.4,0.4h-0.4c-0.399-0.4-0.8-0.4-0.8-0.4c0,0.4-0.399,0.4-0.399,0l-0.4,0.4
		v-0.4h-0.4h-0.399c-0.4-0.399-0.4-0.399-0.4,0c-0.399-0.399-0.8-0.8-0.8-0.399c-0.4,0.399-0.8,0.399-1.2,0V13.9h-0.8
		c0-0.399,0-0.399-0.4-0.399h-0.399h-0.8c0-0.4-0.4,0.399-0.4,0c-0.4,0.399-0.4-0.4-0.8-0.4h-0.399h-0.4l-0.4-0.4h-0.4l-0.399,0.4
		h-0.399c-0.4,0-0.801-0.4-1.201-0.4c-0.399,0.4-0.799,0.4-0.799,0h-0.4h-0.4l-0.4,0.4l-0.399-0.4h-0.399h-0.4h-0.4
		c0,0.4,0,0.4-0.4,0.4v-0.4h-0.399h-0.399h-0.4h-0.801h-0.399V12.3h-0.399c0-0.4-0.4-0.8-0.4,0.399h-0.4c0-0.399,0-0.399-0.4-0.399
		h-0.399h-0.399h-0.4h-0.4h-0.4h-0.399l-0.399-0.4c-0.4,0.4-0.4,0.4-0.4,0v0.4h-0.4c0-0.4,0-0.4-0.4-0.4h-0.399h-0.8
		c-0.4,0-0.8,0-0.8,0.4h-0.4c0-0.4,0-0.4-0.399-0.4c-0.4,0.4-0.4,0.4-0.4,0h-0.8h-0.4h-0.399v0.4c-0.4,0.399-0.4,0.399-0.4,0h-0.4
		c-0.399,0-0.399-0.4-1.6-0.4h-1.6c-0.4-0.399-0.4-0.399-0.4,0h-1.6h-0.4h-1.6c-0.4-0.399-0.801-0.399-1.2-0.399h-0.399
		c0,0.399-0.4,0.399-0.4,0c-0.4,0-0.4,0-0.4,0.399c-0.4-0.399-0.4,0-0.8-0.399h-0.399h-0.4c-0.4,0-0.4,0-0.801-0.4l-0.399,0.4h-0.8
		h-0.4h-0.8c-0.399,0.399-0.399,0.399-0.8,0h-0.801l-0.399,0.399c-0.399,0-0.399,0-0.399-0.399h-0.4l-0.4,0.399
		c-0.4-0.399-0.4-0.399-0.8-0.399h-0.399h-0.4h-0.4l-0.4,0.399c-0.399,0-0.399,0-0.399-0.399c-0.399,0.399-0.399,0.399-0.399,0
		l-0.4,0.399h-0.4h-0.399h-0.4l-0.399-0.399h-0.4c0,0.399,0,0.399-0.4,0h-0.399h-0.4h-0.399h-0.801V11.9
		c-0.399-0.399-0.8-0.399-1.6-0.399c-0.4,0-0.8,0-0.8,0.399l-0.4-0.399h-1.6c-0.399,0-0.399,0-0.399,0.399c-0.4,0-0.4,0-0.4-0.399
		h-0.801h-0.399l-0.399-0.4c-0.4,1.2-0.801,0-1.201,0.4h-0.399h-0.399c0-0.4,0-0.4-0.4-0.4v0.4c-0.4,0-0.4,0-0.801-0.4
		c-0.399,0-0.399,0-0.799,0.4h-1.201h-0.399h-0.399h-1.201h-0.399l-2,0.399c-0.399,0-0.399,0-0.399-0.399c0,0.399,0,0.399-0.4,0.399
		s-0.4,0-0.4-0.399h-0.4c0-0.4-0.399,0-0.799,0.399h-0.801v0.4c-0.4-0.4-0.8-0.4-0.8-0.4h-0.399h-0.4c0,0.4,0,0.4-0.4,0
		c0-0.399,0-0.399-0.399,0h-0.8c-0.4,0.4-0.801,0.8-0.801,0.4l-0.399-0.4h-0.8c0,0.4,0,0.4-0.4,0.4h-1.6c-0.4,0.399-0.4,0.399-0.4,0
		h-0.4h-0.8h-0.399c-0.4,0.399-0.4,0.399-0.4,0c-0.4,0.399-0.8,0.8-0.8,0.399l-0.399-0.399c-0.4,0.399-0.4,0.399-0.801,0
		c0,0.399,0,0.399-0.4,0.399h-1.6c-0.4,0-0.8,0-0.8,0.4h-0.8h-0.801h-0.799h-0.4h-0.4c-0.4-0.4-0.4,0.4-0.8,0h-0.399h-0.4
		c-0.4,0.4-0.4,0.4-0.4,0v0.4h-0.4c0-0.4,0-0.4-0.399,0h-2l-0.399,0.399h-0.4h-0.4h-0.4h-0.399c-0.399,0-0.8,0-0.8,0.4h-0.4
		c-0.4-0.4-0.8,0-1.199-0.4l-0.4,0.4h-1.2c-0.399,0.399-0.399,0.399-0.399,0h-0.801h-0.399c-0.4,0.399-0.4,0.399-0.4,0l-0.399,0.399
		h-0.801l-0.399,0.4c0-0.4,0-0.4-0.4-0.4c-0.399,0.4-0.8,0.4-1.2,0.4c-0.399,0-0.399,0-0.399,0.4h-0.4c-0.399-0.4-0.399-0.4-0.8,0
		c0-0.4,0-0.4-0.4,0V15.9c-0.399-1.2-0.399,0-0.799-0.399h-0.4l-0.4,0.399V15.5h-0.4l-0.399,0.399h-0.8h-0.4h-0.4h-0.799
		c-0.4-0.399-0.4-0.399-0.4,0c-0.4-0.399-0.4,0-0.4,0.4h-0.4c0-0.4-0.399-0.4-0.799,0l-0.4-0.4c-0.4,0-0.4,0-0.4,0.4h-0.8h-0.399
		h-1.601l-0.399,0.399c-0.4-0.399-0.4-0.399-0.801,0c-0.4-0.399-0.4-0.399-0.4,0h-0.399c0-0.399-0.399,0.801-0.399-0.399
		c-0.4,0.399-0.4,0.399-0.801,0.399c-1.199,0-0.8,0.4-2,0.4c-0.4,0-0.4,0-0.8,0.4c0-0.4,0-0.4-0.399-0.4h-0.4h-0.8l-0.4,0.4
		c-0.399-0.4-0.399-0.4-0.399,0h-0.801h-0.399h-0.4h-0.8l-0.4,0.399c-0.399-0.399-0.399-0.399-0.399,0h-0.4h-0.399h-0.4h-0.8
		c0,0.4-0.4,0-0.4-0.399c0.4-0.4,0.4,0.399,0.8,0c0-0.4,0-0.4,0.4-0.4c-0.4-0.4-0.4-0.4-0.8,0h-0.4h-0.399c0,0.4,0,0.4-0.4,0v0.4
		c-0.4,0-0.4,0-0.4-0.4v0.4c-0.399,0.399-0.399,0.399-0.399,0h-0.399c-0.4,0-0.4,0-0.4-0.4l-0.801,0.8h0.801v0.4h-0.4
		c-0.4,0-0.4,0-0.8,0.399h-0.399c-0.4,0.4-0.4,0-0.801-0.399v-0.4h0.4l-0.4-0.399V17.9l-0.4-0.399h-0.399l-0.8,0.399
		c0,0.4,0.4,0.4,0.4,0l0.399,0.4V18.7c-0.399,0-0.399,0-0.399,0.4l-0.4-0.4l-0.4,0.4h-0.4h-0.399c-0.399-0.4-0.399-0.4-0.399,0
		l-0.4,0.4l-0.4-0.4c0-0.4,0-0.4,0.4-0.8h-0.801c-0.399,0.399-0.399,0-0.799,0.399c0.399,0,0.399,0,0.399,0.4v-0.4l0.399,0.4v0.4
		c-0.399-0.4-0.399-0.4-0.799,0l-0.4-0.4v0.4v-0.4v-0.4h-0.4h-0.4c0,0.4-0.399,0.4-0.399,0c-0.399,0-0.399,0-0.8,0.4
		c-0.4,0-0.4,0-0.4-0.4h-0.4c-0.399,0-1.199,0.4-1.6,0.801h-1.199c-0.4,0-0.4,0-0.4,0.399h-0.4c0-0.399,0-0.399-0.4,0h-0.399h-0.8
		h-0.4c-0.399,0-0.399,0-0.399,0.4l-0.4-0.4c0,0.4,0,0.4-0.399,0c0,0.4,0,0.4-0.4,0.4s-0.8,0.399-1.2,0.399
		c-0.399,0-0.8-0.399-1.2-0.399c-0.399-0.4-0.8-0.4-0.8-0.4h-0.399c-0.4,0-0.4,0-0.4,0.4h-0.4c0-0.4,0-0.4-0.399,0h-0.8h-0.4h-0.4
		c-0.4,0-0.4,0.399,0,0.399h-0.4V20.3c-0.4,0-0.8,0.399-1.2,0.399h-0.4h-0.4v0.4c-0.4,0-0.4-1.2-0.8,0h-0.4h-1.6
		c-0.4-0.4-0.4-0.4-0.4,0h-0.4V21.5h-0.8h-0.4h-0.8c-0.4,0.4-0.4,0.4-0.4,0c0,0.4,0,0.4-0.4,0.4h-0.4h-0.4c0,0.4,0,0.4-0.4,0
		c0,0.4-0.4,0-0.4,0.4h-0.4h-0.4c-1.2,0-2,0-2.4,0.399h-0.4h-0.8h-0.4c-0.4,0-0.4,0-0.4,0.4h-0.4c0,0.399,0,0.399-0.4,0h-0.4v-0.4
		c-0.4,1.2-0.8,0.4-0.8,0.8V23.1h-0.4c-0.4,0.399-0.4,0.399-0.4,0c0,0.399-0.4,0.399-0.8,0.399l-0.4-0.399V23.5h-0.4h-0.4h-0.4
		c-0.4,0-0.8,0.4-1.2,0.4c-0.4-0.4-0.4-0.4-0.4,0h-0.4c-0.4,0.4-0.4,0.4-0.4,0h-0.4c-0.4,0-0.4,0-0.4,0.4h-0.4
		c-0.4,0-0.4,0-0.4,0.399l-0.4-0.399c0,0.399-0.4-0.4-0.4,0c-0.4,0-0.4,0-0.4,0.399h-0.4c-0.4-0.399-0.4-0.399-0.4,0h-0.4
		c-0.4-0.399-0.4-0.399-0.4,0c0,0.4-0.4-0.399-0.4,0v0.4c-0.4-0.4-0.4-0.4-0.8,0h-0.4h-0.4l-0.4,0.399h-0.4c-0.4,0-0.4,0-0.8,0.4
		c0-0.4-0.4-0.4-0.4,0c0-0.4-0.4-0.4-0.4,0c-0.4,0-0.4,0-0.4-0.4h-0.4c0,0.4-0.4,0.4-0.8,0.4h-0.4h-0.4h-0.4h-0.4h-0.4
		c0,0.4,0,0.4-0.4,0c0,0.4,0,0.4-0.4,0.4h-0.4V26.7c-0.4-0.399-0.4-0.399-0.8,0h-0.4h-0.8c-0.4,0-0.8,0-1.2,0.4v-0.4
		c-0.4,0-0.8,0-1.2,0.4c-0.4,0-0.4,0-0.8,0.399h-0.4c0,0.4,0,0.4-0.4,0h-0.4h-0.4c-0.4,0-0.8,0-0.8,0.4h-0.8h-0.4h-0.4v0.4
		c-0.4-0.4-0.4-0.4-0.4,0h-0.8h-0.4h-0.4V28.7l-0.4-0.399c0,0.399-0.4,0-0.4,0.399h-0.4c-0.4,0.4-0.4,0.4-0.4,0h-0.4h-0.8l-0.4,0.4
		h-0.4h-0.4h-0.4c0,0.399-0.4,0-0.4,0.399c-0.4-0.399-0.4,0.4-1.6,0h-0.4c-0.4,0.4-0.8,0.4-1.2,0.4c-0.4,0.4-1.2,0.4-2.4,0.4
		c-0.4,0-0.4,0-0.4,0.399l-0.4-0.399h-0.4l-0.4,0.399c-0.4,0-0.4,0.4-0.8,0.4l-0.4-0.4c-0.4,0.4-0.8,0.8-0.8,0.4h-0.4
		c-0.4,0.399-0.4,0.399-0.8,0l-0.4,0.399h-0.4c-0.4-0.399-0.4-0.399-0.4,0h-0.4l-0.4,0.4h-0.8c-0.4-0.4-0.4-0.4-0.4,0
		c-0.4,0-0.4,0-0.8,0.399h-0.4h-0.8c0,0.4-0.4,0-0.4,0.4h-0.4h-0.4h-0.8v0.4c-0.4-0.4-0.4-0.4-0.4,0h-0.4c0-0.4,0-0.4-0.4,0h-0.4
		c0,0.399,0,0.399-0.4,0h-0.4c-0.4,0-0.4,0-0.4,0.399c-0.4-0.399-0.4-0.399-0.4,0h-0.4h-0.4l-0.4,0.4h-0.4h-0.4h-0.4h-0.4
		c-0.4,0-0.4,0-0.4,0.399h-0.8c-0.4,0-0.8,0-1.2,0.4c-0.4-0.4-0.4-0.4-0.4,0h-0.8c-0.4,0.4-0.8,0.4-1.2,0.4s-0.4,0-0.8,0.399
		c-0.8,0-1.2,0-1.6,0.4h-0.4c-0.4,0-0.4,0-0.4,0.399l-0.4-0.399c-0.4,0.399-0.8,0.399-0.8,0.399h-1.2c0-0.399,0-0.399-0.4,0
		c0,0.4,0,0.4-0.4,0.4h-0.4c0,0.4-0.8,0-0.8,0.4l-0.4-0.4c0,0.4,0,0.4-0.4,0l-0.4,0.8h-0.4h-0.8l-0.4,0.4v-0.4c0,0.4-0.4,0.4-0.4,0
		h-0.4c-0.4,0.4-0.8,0.4-1.2,0.4v0.399h-0.4h-0.4h-0.4h-0.4c-0.4,0-0.4,0-0.4,0.4h-0.4h-0.4h-0.4h-0.4h-0.4c0,0.4,0,0.4-0.4,0.4
		s-0.4,0-0.8,0.399c0-0.399,0-0.399-0.4,0h-0.4h-0.4v0.4h-1.2c-0.4,0.399-0.4,0-0.8,0.399h-0.8c0-0.399-0.4,0-0.8,0.4h-0.8v0.4
		c-0.4-0.4-0.4-0.4-0.4,0h-0.8h-0.4h-0.4l-0.8,0.399h-0.4h-0.4c-0.4,0-0.8,0.4-1.2,0.4h-0.4c0,0.399-0.4-0.4-0.4,0
		c-0.4,0.399-0.4,0.399-0.8,0.399h-0.8c-0.4,0-0.4,0-0.8,0.4h-0.4h-0.4h-0.4l-0.4,0.4h-0.8h-0.4V43.5h-0.8h-0.4
		c-0.4,0.4-0.4,0.4-0.4,0h-0.4l-0.4,0.4h-0.4h-0.4l-0.4,0.399c-0.4-0.399-0.4-0.399-0.4,0h-0.4h-0.4c0,0.4,0,0.4-0.4,0v0.4h-0.8
		c0,0.4,0,0.4-0.4,0c0,0.4,0,0.4-0.4,0.4s-1.2,0.399-1.6,0.399s-0.4,0-0.8,0.4h-0.4h-0.8l-0.4,0.399h-0.8
		c-0.4-0.399-0.4-0.399-0.4,0h-0.4c0,0.4-0.4,0-0.4,0.4H44c-0.4,0.399-0.8,0.399-1.6,0.399L42,47.5c0-0.4-0.4-0.4-0.4,0h-0.8
		c0,0.4,0,0.4-0.4,0v0.4c0,0.399,0,0.399-0.4,0.399c0-0.399-0.4-0.399-0.4,0h-0.8c-0.4,0-0.4,0.4-0.8,0.4h-0.4v-0.4
		c0,1.2-0.4,0-0.8,0.4c-0.4,0-0.4,0-0.4,0.399H36h-0.8l-0.4,0.4c0-0.4,0-0.4-0.4,0H34h-0.4c-0.4,0.4-0.4,0.4-0.8,0.4v0.399h-0.4
		L32,50.7v-0.4V49.9c-0.4,0-0.8,0.399-1.2,0.399h-0.4H30c-0.4,0.4-0.8,0.4-1.2,0.4H28c0,1.2-0.8-0.4-0.8,0.8l-0.4-0.4v0.4
		c-0.4,0.4-0.4,0.4-0.4,0H26h-0.4c0,0.4,0,0.4-0.4,0.4h-0.4c0,0.399-0.4-0.4-0.4,0L24,52.299h-0.4c0,0.4-0.4,0-0.4,0.4h-0.4
		c-0.4-0.4-0.4-0.4-0.4,0c0-0.4,0-0.4-0.4,0l-0.4,0.399h-0.4h-0.4c-0.4,0-0.4,0-0.4,0.4H20c0,0.4-0.4,0.4-0.4,0h-0.4
		c-0.4,0-0.4,0-0.4,0.4h-0.4v0.399H18c0-0.399,0-0.399-0.4-0.399s-0.4,0-0.4,0.399c0,0.4,0,0.4-0.4,0c-0.4,0-0.4,0-0.8,0.4
		c-0.4-0.4-0.4-0.4-0.8,0c-0.4,0.399-0.4,0.399-0.4,0l-0.4,0.399H14h-0.4c0,0.4,0,0.4-0.4,0.4h-0.4c-0.4,0-0.4,0-0.4,0.4H12h-0.4
		c0,0.399-0.4,0-0.4,0.399h-0.4c-0.4,0-0.4,0-0.4,0.4l-0.4-0.4H9.6c0,0.4,0,0.4-0.4,0.4H8.4c-0.4,0-0.4,0-0.4,0.399H7.6
		c-0.4-0.399-0.4-0.399-0.4,0H6.8c0,0.4,0,0.4-0.4,0.4c-0.4-0.4-0.8-0.4-0.8-0.4c-0.4,0.4-0.4,0.4-0.8,0.4
		c0,0.399,0,0.399-0.4,0.399c0,0.4,0,0.4-0.4,0.4c-0.4-0.4-0.4,0-0.4,0.4H2.8c0,0.399-0.4,0.399-0.4,0H2c-0.4-0.4-0.8-1.2-1.2-1.601
		V56.7v-0.8v-0.4c0-0.8,0-1.6-0.4-2v-0.8v-0.4L0,51.9c0-0.4,0-0.4,0.4-0.4v-0.4c0.4,0,0.4,0,0.4-0.399v-0.8c0-0.801,0-1.2,0.4-0.801
		V48.7h0.4v0.399C2,48.7,2.4,48.7,2.8,48.7h0.4c0.4-0.4,0.8-0.4,1.2,0v-0.4h0.8c0-0.399,0-0.399,0.4,0L6.8,47.9h0.4l0.4-0.4H8
		c0.4,0.4,0.4-0.4,1.6,0c0-0.4,0-0.4,0.4-0.4l0.4,0.4c0-0.4,0-0.4,0.4-0.4l-0.4,0.4c0.4,0.4,0.4,0.4,0.4,0s0.4,0.4,0.4,0h0.4v-0.4
		H12h0.4V46.7c0-0.4,0.4,0,0.4-0.4h0.8v0.4v0.399V46.7c0.4,0.399,0.4,0.399,0.4,0h0.4c0.4,0,0.4,0,0.4-0.4l0.4,0.4v-0.4h0.4h0.8
		c0-0.399,0-0.399,0.4-0.399c0,0.399,0,0.399,0.4,0h0.4H18c0.4,0,0.4,0,0.8-0.4c0.4,0.4,0.4,0.4,0.4,0c0-0.399,0.4,0,0.4-0.399
		C20,45.5,20,45.5,20,45.1h0.8h0.8c0-0.4,0-0.4,0.4,0c0-0.4,0-0.4,0.4-0.4c0,0.4,0.4,0,0.8-0.4l0.4,0.4c0-0.4,0-0.8,0.4-0.4h0.4
		c0.4,0,0.4-0.399,0.8-0.399c0,0.399,0.4,0,0.8-0.4c0.4,0,0.4,0,0.4,0.4c0-1.2,0.4,0,0.4-0.4c0.4,0.4,0.4,0.4,0.4,0h0.4V43.1H28h0.4
		h0.4l0.4-0.4h0.4c0.4,0.4,0.4,0,0.8,0.4v-0.4c0-0.4,0-0.4,0.4,0c0.4,0,0.4,0,0.4-0.4H32c0.4-0.399,0.4-0.399,0.8-0.399
		c0.4,0.399,0.4,0.399,0.4,0c0.4-0.4,0.4-0.4,0.8,0h0.4c0-0.4,0-0.8,0.4-0.4h0.4c0.4,0,0.4-0.399,0.8-0.399h0.4h0.4
		c0-0.4,0-0.4,0.4-0.4c0,0.4,0.4,1.2,0,0h0.4h0.8c0-0.4,0.4,0.8,0.4-0.4h0.4h0.4H40h0.4h0.4c0-0.399,0-0.399,0.4,0
		c0-0.399,0-0.399,0.4,0L42,39.9l0.4-0.4h1.2c0.4,0,0.4,0,0.4-0.399h0.4h0.4h0.4h0.8v-0.4h1.6c0.4,0,0.4,0,0.4-0.4h0.8h1.2
		c-0.4-1.199,0,0,0-0.399h0.8c0-0.4,0-0.4,0.4-0.4c0.4-0.399,0.4-0.399,0.4,0V37.1h0.4c0.4,0.399,0.4,0.399,0.4,0
		c0.4,0.399,0.4,0.399,0.4,0c0-0.4,0-0.4,0.4,0c0.4,0,0.8-0.4,1.2-0.4c0-0.4,0-0.4,0.4,0h0.4h0.4c0-0.4,0-0.4,0.4-0.4h0.4h0.4V35.9
		h0.4h0.4c0-0.4,0-0.4,0.4-0.4c0,0.4,0.4,1.2,0.4,0c0,0.4,0.4,0.4,0.4,0h0.4h0.4h0.4l0.4-0.399c0.4,0,0.4,0,0.4-0.4v0.4h0.4l0.4-0.4
		v0.4h0.4c0.4-0.4,0.4,0,0.8-0.4v-0.4c0.4,0,0.4,0,0.4,0.4v-0.4c0-0.399,0.4-0.399,0.4,0c0.4,0.4,0.4,0.4,0.4,0V33.9h0.4h0.4v0.399
		c0.4,0,0.8,0,0.8-0.399v-0.4h0.8V33.1h1.2V33.5h0.4c0.4,0,0.4,0,0.4-0.399h-0.4c0.4,0,0.4,0,0.8-0.4v0.4h0.8v-0.4h0.4l-0.4,0.4h0.4
		c0.4,0,0.4,0,0.8-0.4c0.4,0,0.4,0,0.4-0.4c0.4,0,0.4,0,0.4,0.4h0.4c0-0.4,0-0.4,0.4-0.4V31.9l0.4,0.399h0.4V31.9l0.4,0.399
		c0-0.399,0-0.399,0.4-0.8v0.4c0.4,0,0.4,0,0.8-0.4c0-0.399,0-0.399,0.4-0.399v0.8c0.4,0,0.4,0,0.4-0.4h0.4l0.4-0.399h0.4
		c0-0.4,0.4,0,0.4-0.4c0.4,0,0.4,0,0.4,0.4c0.4,0,0.4,0,0.4-0.4c0-0.399,0-0.399,0.4-0.399h0.4h0.8c0-0.4,0.4,0,0.4-0.4h0.8
		c0.4,0,0.4,0,0.4-0.4c0.4,0,0.4,0,0.4,0.4c0-0.4,0-0.4,0.4-0.4h0.4h0.4c0,0.4,0,0.4,0.4,0.4h0.4c0.4,0,0.4,0,0.4-0.4V29.1h0.4V29.5
		h0.4c0.4,0.4,0.4,0,0-0.399h0.4c0.4,0.399,0.4,0.399,0.4,0v-0.4c0.4,0,0,0.4,0.4,0.4h0.4h0.4c0-1.2,0.4-0.4,0.8-0.8
		c0.4,0,0.4,0,0.4-0.4c0.4,0.4,0.4,0.4,0.8,0h0.4h0.4h0.4c0,0.4,0,0.4,0.4,0v-0.4h0.4h0.4h0.4c0-0.399,0-0.399,0.4-0.399h0.4h0.4
		c0,0.399,0.4,0,0.4,0.399c0,0.4,0.4,0,0.4-0.399h-0.4c0.4-0.4,0.8-0.4,0.8,0c0.4,0.399,0.4,0.399,0.4,0c0-0.4,0-0.8,0.4-0.4h0.4
		v0.4c0.4,0,0.4,0,0.4-0.4V26.3h0.8c0.4,0,0.4,0,0.4-0.4h0.8h0.4c0.4-0.4,0.8-0.4,1.2-0.4v0.4v0.4c0.4,0,0.4,0,0.4-0.4v-0.4
		c0.4,0.4,0.4,0.4,0.4,0h0.4v0.4h0.4v-0.8l0.4,0.399v0.4c0-0.4,0-0.4,0.4-0.4V25.1c0.4,0,0.4,0,0.4-0.4h0.4h0.4l5.6-1.2h0.4
		c0,0.4,0.4,0.4,0.4,0h0.4c0.4,0,0.4,0,0.4-0.399h0.8h1.2l0.4-0.4c0.4,0,0.8,0,1.2-0.399h0.4h0.4c0-0.4,0.4-0.4,0.8,0h0.4
		c0.4-0.4,0.4-0.4,0.8-0.4c0.4,0,0.8,0,1.2-0.4l0.4,0.4l0.4-0.4V21.1h1.2h1.2c0.4-0.4,0.4-0.4,0.4,0h0.4l0.4-0.4h0.8h0.8l0.4-0.399
		V20.7c0-0.399,0.4,0,0.4-0.399h0.8h0.4c0.4,0,0.4,0,0.4-0.4h0.4c0.4,0.4,0.4-0.399,0.8,0h0.8h0.8h0.4h0.4V19.5h0.4
		c0.4,0,0.4,0,0.4-0.4c0.4,0,0.4,0,0.4,0.4h0.4c0-0.4,0-0.4,0.4-0.4c0.4-0.4,0.4-0.4,0.4,0h0.4c0-0.4,0-0.4,0.4-0.4v0.4
		c0.4,0,2-0.4,2.4-0.4c0-0.399,0-0.399,0.4,0V18.3c1.2,0.399,0.8,0,2,0c0-0.4,0-0.4,0.4,0h0.4h0.4l0.4-0.4h0.4h0.4
		c0.4-0.399,0.8,0,1.2-0.399h0.8c0.4,0,0.4,0,0.4-0.4c0.4,0,0.4,0.4,0.8,0.4c0.4-0.4,0.4-0.4,0.8-0.4h0.8l0.8-0.4h0.8h0.8
		c0.4-0.399,0.8-0.399,1.2-0.399c0-0.4,0.4-0.4,0.4,0h0.4c0.4,0,0.4,0,0.4-0.4c0.4,0.4,0.4,0.4,0.8,0h0.4h0.4h0.8V15.5h0.4h0.8h0.4
		h0.8c0-0.4,0-0.4,0.4,0h0.4h0.4v-0.4c0.4,0,0.4,0,0.4,0.4l0.4-0.4h1.2h0.4l2.4-0.4h0.4h0.4c0,0.4,0.4,0,0.8-0.399l0.4,0.399V14.3
		h0.4h0.4h0.4c0.4-0.4,1.2-0.4,2-0.4h0.4c0.4-0.399,0.4,0,0.8-0.399h2c0-0.4,0-0.4,0.4,0l0.4-0.4h0.8h0.4h0.4l0.4-0.4
		c0.4-0.399,0.4-0.399,0.8,0h0.4l4.4-0.8c0.4,0,0.4,0,0.8,0.4c0-0.4,0-0.4,0.4-0.4h0.399h0.4h0.4c0,0.4,0.399,0,0.8-0.399h2.399
		l0.4-0.4h0.4c0-0.4,0-0.4,0.399,0l0.399-0.4c0-0.399,0.4,0,0.801,0.4c0.4,0,0.4,0,0.4-0.4h0.399h0.399h1.201
		c0.399-0.399,0.799-0.399,2-0.399c0-0.4,0-0.4,0.399,0V9.9h0.399h0.4c1.2,0,2-0.399,3.2-0.399c0.399,0,0.399,0,0.399-0.4v0.4h0.4
		h0.4c0-0.4,0.4,0.399,0.4,0c0.399-0.4,0.399-0.4,0.799-0.4l0.4,0.4c0-0.4,0-0.4,0.4-0.4h0.4V8.7c0.399,0.4,0.399,0,0.799,0.4h0.4
		c0,0.4,0,0.4,0.4,0c0-0.4,0.399,0,0.399-0.4c0,0.4,0.4-0.399,0.4,0h0.399h0.801c0.399,0,0.399,0,0.8-0.399
		c0,0.399,0,0.399,0.399,0.399c0-0.399,0.4,0,0.4-0.399c0.4,0.399,0.4,0.399,0.4,0h0.399h0.8c0.4-0.4,0.4-0.4,0.4,0h0.4V7.9h0.399
		V7.5c0.4,0.399,0.8,0.399,1.2,0.399h0.4l0.399-0.399h1.2h0.4c0.399,0,0.399,0,0.399-0.4c0,0.4,0,0.4,0.399,0.4c0-0.4,0-0.4,0.4-0.4
		h0.4h1.199h0.4h0.4c0.4-0.4,0.4-0.4,0.4,0h0.399h0.399l0.4-0.4h0.801c0.399,0,0.399,0,0.799,0.4l0.4-0.4c0.4,0.4,0.4,0.4,0.4,0h0.4
		h0.399c0-0.399,0.399,0,0.399-0.399h0.801h0.4h0.399h0.399h0.4h0.4h0.8h0.399h0.4V5.9h0.4h0.4h0.399h0.8c0.4,0,0.4-1.199,0.8,0
		c0-0.399,0.4-0.399,0.8-0.399h0.4h0.8l0.4-0.4h0.399c0.4-0.399,0.4-0.399,0.801,0l0.399-0.399h1.2h0.8h0.4
		c0.399-0.4,0.399-0.4,0.399,0c0-0.4,0.4,0,0.4-0.4h0.4h1.199h0.801h0.399c0.399,0,0.8-0.4,1.2-0.4h0.4
		c0.399-0.399,0.399-0.399,0.399,0c0-0.399,0.399,0.4,0.399,0c0.4,0.4,0.801-0.399,1.201,0c0.399,0,0.399-0.399,0.799-0.399h0.801
		c0.4,0.399,0.4,0.399,0.4,0h0.799h2c0.4,0,0.4,0,0.4-0.4h0.4c0.4,0.4,0.4,0.4,0.4,0c0,0.4,0,0.4,0.399,0h0.399
		c0.4,0.4,0.4,0.4,0.4,0h0.4l0.4-0.399h0.399h0.399h0.4h0.4c0.4,0.399,0.4-0.4,0.8,0V2.3V1.9l-0.399,0.4V1.9V1.5
		c0.399,0,0.399,0,0.399,0.399l0.399-0.399h0.801c0.399,0,0.399,0,0.399,0.399h-0.399v0.4l0.399,0.4h0.4l0.399-0.4h0.4h0.4h0.399
		V1.9h-0.8c-0.4,0-0.4,0-0.4-0.399h0.4l2.4-0.4h0.399v0.4c-0.399,0-0.399,0-0.399,0.399c0-0.399-0.4,0-0.4-0.399
		c0,0.399,0,0.399-0.4,0.399h-0.399c-0.4,0-0.4,0-0.4,0.4h0.4c0-0.4,0-0.4,0.399,0l0.4,0.4c0-0.4,0-0.4,0.4-0.4h0.399l0.4-0.4
		l0.399,0.4l0.4-0.4l0.4,0.4h0.399c0.4,0.4,0.4,0.4,0.4,0h0.399h0.801h0.799c0-0.4,0.4-0.4,0.801-0.4h0.4h0.399h0.399
		c0,0.4,0.4,0,0.4,0.4l0.4-0.4h1.199c0-0.399,0-0.399,0.4,0c0.4,0,0.4,0,0.4-0.399l0.4,0.399c0.399-0.399,0.399-0.399,0.799,0V1.5
		h0.4c0,0.399,0,0.399,0.4,0h0.4c0.399,0,0.399,0,0.399-0.4c0-0.399,0-0.399-0.399,0V0.701c0.399-0.4,0.399-0.4,0.399,0
		c0-0.4,0-0.4,0.399,0h0.4h0.4c0-0.4,0.4-0.4,0.8,0V0.3h0.399c0.4,0.4,0.4,0.4,0.4,0c0.4-0.4,0.4-0.4,0.4,0h0.4h0.399
		c0.399,0.4,0.399,0.4,0.399,0c0.4,0,0.4,0,0.801,0.4h-0.801l0.4,0.399h0.4v0.4c0.4,0,0.4,0,0.4-0.4v0.4h0.799H274.796V1.1V1.5z
		 M232.797,3.5c0.399,0,0.399,0,0.399-0.4h0.399h0.801h0.4l0.399-0.399h0.399h2.801h0.4c-0.4,0-0.4,0-0.801,0.399
		c-0.4-0.399-0.4-0.399-0.4,0h-0.399c-0.399-0.399-0.399-0.399-0.399,0c0-0.399,0-0.399-0.4,0c-1.2,0-1.2,0.4-2.4,0.4h-0.4h-0.399
		H232.797z M257.996,1.1h0.4l3.199-0.399c0.4,0.399,0.4,0.399,0.4,0h0.4h0.399h0.8h0.4h0.4h0.399h0.8V1.1h-0.8h-0.399h-0.4v0.4h-0.4
		l-0.4-0.4h-0.799c0,0.4-0.4,0-0.4,0.4h-0.4h-0.4c0-0.4-0.399,0-0.399-0.4h-0.8c0,0.4,0,0.4-0.4,0.4h-0.4h-1.199h-0.4h-0.399
		c-0.4,0.399-0.4-0.8-0.4,0.399V1.5h-0.399c0.399-0.4,0.8-0.4,0.8-0.4H257.996z M274.796,1.5V1.1c-0.399,0-0.399,0-0.8,0.4
		c0-0.4,0-0.4-0.4-0.4h-0.4v0.4V1.1c0-0.399,0-0.399-0.399-0.399c0.399-0.4,0.399-0.4,0.399,0h0.4c0.4,0,0.4,0,0.801,0.399
		c0-0.399,0.399-0.399,0.799-0.399h0.4h2.8c0,0.399-0.399,0.8-0.399,0.399h-0.4h-0.4h-0.399h-0.4c0,0.4-0.399-0.399-0.399,0
		c0,0.4-0.4,0.4-0.4,0c0,0.4,0,0.4-0.4,0v0.4H274.796z"/>
</g>
</svg>
