<?xml version="1.0" encoding="utf-8"?>
<!-- Generator: Adobe Illustrator 16.0.0, SVG Export Plug-In . SVG Version: 6.00 Build 0)  -->
<!DOCTYPE svg PUBLIC "-//W3C//DTD SVG 1.1//EN" "http://www.w3.org/Graphics/SVG/1.1/DTD/svg11.dtd">
<svg version="1.1" id="Layer_1" xmlns="http://www.w3.org/2000/svg" xmlns:xlink="http://www.w3.org/1999/xlink" x="0px" y="0px"
	 width="408.005px" height="12.087px" viewBox="0 0 408.005 12.087" enable-background="new 0 0 408.005 12.087"
	 xml:space="preserve">
<g>
	<path fill="#D4E1D3" d="M80.101,10.2V9.9h-0.6c-0.9,0-0.9,0.3-1.8,0h-0.6h-0.3c-0.3,0.3-0.3,0.3-0.3,0h-0.3h-0.6h-0.6
		c-0.3,0-0.3,0.3-1.2,0.3V9.9h-0.6h-0.6h-0.3h-0.6h-0.3h-1.2h-0.3h-1.2h-0.6h-0.3h-0.6h-0.3h-0.6h-0.3h-0.9h-0.3h-0.3h-0.3h-0.6
		h-0.6c-0.3,0.3-0.3,0.3-0.6,0h-0.6h-0.9h-1.2h-0.3h-0.6h-0.3h-0.6h-1.2c-0.3,0-0.6,0-0.6,0.3h-0.3l-0.3-0.3
		c-0.3,0.3-0.9,0.3-1.2,0.3l-0.3,0.3c-0.3-0.3-0.3-0.3-0.6-0.3c0-0.3,0-0.3-0.3-0.3h-0.6h-0.3h-0.3h-0.6c-0.3,0-0.3,0-0.6,0.3h-0.6
		c-0.3-0.3-0.3-0.3-0.6,0h-0.3l-0.3-0.3h-0.3l-0.3,0.3L48,9.9l-0.6,0.6c-0.3-0.899-0.3,0.601-0.3-0.3l-0.3,0.3
		c0,0.301,0,0.301-0.3,0h-0.6h-0.3h-0.9c0-0.3-0.3,0-0.6,0.301h-1.2c0,0.3,0,0.3-0.3,0.6v-0.3v-0.3c0-0.301,0-0.301-0.3-0.301H42
		c-0.3,0-0.3,0-0.3,0.301h-1.2v0.3v0.3h-0.9h-0.3H39c0-0.3,0-0.3-0.3-0.3H39v-0.3h-0.3c-0.3-0.301-0.3,0-0.3,0.3v0.3
		c-0.3,0-0.3,0-0.6-0.3h0.6c0-0.3,0-0.3-0.3-0.3c-0.9,0.3-0.6,0-1.5,0.3c-0.9-0.3-0.6,0-0.9-0.3h-1.2c0,0.3-0.3-0.301-0.3,0h-0.6
		c-0.3,0-0.3,0-0.6,0.3c-0.9-0.3-0.6,0-1.5,0c-0.3-0.3-0.6-0.3-0.9-0.3h-0.9c-0.9,0.3-1.5,0-1.8,0h-0.6H27c-0.3,0.3-0.6,0.6-0.6,0.3
		c-0.3,0-0.3,0-0.3,0.3h-0.3l-0.3-0.3H24c-0.3,0-0.3,0-0.6,0.3c0-0.3,0-0.3-0.3-0.3h-0.3c-0.3,0.3-0.6,0.3-1.5,0.3
		c-0.3-0.3-0.6-0.3-0.6-0.3c-0.3,0-0.9,0-1.2,0.3c-0.3,0-0.3,0-0.6,0.3h-0.3c-0.3-0.3-0.6-0.3-1.5-0.3h-0.3h-0.3
		c-0.6,0.3-1.2,0.3-1.5,0h-0.3c-0.3,0.3-0.6,0.3-0.9,0.3h-2.7h-0.6H9.9H9.3H9c-0.3,0-0.3,0-0.3,0.3H8.4c-0.3-0.3-0.3-0.3-0.6,0H6.6
		H6c0,0.301-0.3-0.3-0.3,0c0-0.3,0-0.3-0.3,0H5.1c0-0.899-0.3,0-0.6-0.3c-0.3,0-0.3,0-0.3,0.3c-0.3,0-0.3-0.3-0.6-0.3H3H2.7H2.1
		c-0.3,0-0.3,0-0.3-0.3v-0.6C1.5,10.5,0.9,10.5,0.6,10.2c0,0-0.3-0.3-0.6-1.2V8.7c0.3,0,0.6-0.3,0.6-0.6V7.5V6.301v-1.2V4.5
		c0.3-0.3,0.3-0.3,0.6-0.3c0-0.3,0-0.6-0.3-0.899C0.9,3,0.9,2.7,0.6,2.4c0.3-0.3,0.9-0.3,1.2-0.3v-0.3C2.1,1.5,2.1,1.5,2.4,1.5h0.3
		C3,1.2,3.3,1.2,3.9,1.2c0.3,0,0.6,0,0.9-0.3c0.9,0,0.6-0.3,1.5-0.3c0.3,0,0.3,0.3,0.6,0.3C7.2,0.3,7.5,0.3,8.1,0.9h0.3
		c0.3,0,0.3-0.3,0.6-0.3h0.3c0.3,0.3,0.9,0.3,1.2,0h0.3h0.6H12h0.6h0.6c0,0.3,0.6,0,0.6,0.3h0.3c0.3-0.3,0.6-0.3,1.2,0
		c0-0.3,0-0.3,0.3-0.3h0.6h0.6c0.3,0,0.3,0,0.3,0.3h0.3h0.9l0.3-0.3l0.3,0.3l0.3-0.3l0.3,0.3h0.9h0.3c0,0.3,0,0.3,0.3,0.3h0.3
		c0.3-0.3,0.6-0.6,0.6-0.3h0.6c0.9,0,0.9,0.3,1.8,0.3l0.3-0.3l0.3,0.3h0.3h0.3l0.3-0.3h0.6H27h0.3h0.6h0.3c0.3,0.3,0.6,0.3,0.6,0.3
		l0.6-0.6l0.3,0.3l0.3-0.3c0.3,0.3,0.6,0.3,1.2,0.3h0.3v0.3h0.3c0,0.3,0.3,0,0.6-0.3H33c0.3,0.3,0.3,0.3,0.3,0h0.3
		c0.3,0.3,0.3,0.3,0.3,0h0.6l0.3,0.3c0.3,0,0.3,0,0.6-0.3c0,0.3,0,0.3,0.3,0H36v0.3h0.6h0.3h0.3V0.9h0.6c0,0.9,0.3,0.6,0.3,0.3H39
		h0.6c0.3,0.3,0.9,0.3,1.2-0.3h0.3c0,0.3,0.3,0.6,0.3,0.3h0.9h0.9c0,0.3,0,0.3,0.3,0c0.3-0.3,0.6-0.6,0.6-0.3c0-0.3,0.3,0.3,0.3,0
		c0.3,0,0.3,0,0.3-0.3H45v0.3c0.9,0,1.2,0.3,1.5,0.3c0.9-0.3,1.2,0,2.1,0c0.3,0,0.6,0,0.6-0.3h0.3c0,0.3,0.6,0.3,1.5,0.3l0.3-0.3
		c0.9,0.9,1.2,0,2.1,0.3c0.3,0.3,0.6,0.3,1.5,0.3c0.3,0,0.3,0,0.6-0.3h0.3c0.3,0.3,0.3,0.3,0.3,0c0.9,0.3,0.9-0.6,1.2,0.3h0.3h0.6
		h0.6h0.9h0.6h0.9c0.3-0.3,0.3-0.3,0.6,0h0.3c0.3-0.3,0.6-0.3,0.9-0.3c0.3,0.3,0.6,0.3,0.6,0c0,0.3,0,0.3,0.3,0h0.6h0.3
		c0.3,0.3,0.6-0.3,0.9,0c0.3,0.3,0.6,0.3,0.9,0l0.3,0.3c0.3-0.3,0.6-0.3,0.6-0.3h0.6h0.6c0.3,0.3,0.3,0.3,0.3,0
		c0.3-0.3,0.3-0.3,0.6,0h0.3h0.6h0.6c0.6,0,0.9,0,1.2,0.3c0-0.3,0-0.3,0.3,0h0.6h0.6c0-0.3,0.3-0.3,0.3,0h0.9V1.2
		c0.6,0.3,1.2,0.3,2.1,0.3c0.6,0,0.9,0,1.2-0.3l0.3,0.3h1.8c0.3,0,0.6,0,0.6-0.3l0.3,0.3h0.9h0.9c0.9,0,0.3,0.301,1.2,0h0.6h0.6
		c0,0.301,0,0.301,0.3,0.301c0.3,0,0.3-0.301,0.6-0.301c0.3,0,0.3,0,0.6,0.301c0.3,0,0.6,0,0.6-0.301h0.3h1.8c0.3,0,0.3,0,0.3,0.301
		l0.3-0.301h1.2h0.6h2.7h0.3h0.3h0.3c0.3,0,0.6,0,0.6,0.301c0.3-0.301,0.9,0,1.2-0.301h0.9h0.9h0.3h0.6h0.6c0,0.301,0.3,0.301,0.3,0
		h0.9c0.3,0,0.3,0.301,1.2,0h0.6c0,0.301,0.3,0.301,0.6,0h0.6h2.1h0.6h1.2h0.3h0.6h0.9h0.6h0.6h0.9h1.8h0.9h0.9h0.9h1.2h0.3h0.3h0.3
		h0.6h0.3h0.3h0.6c0.3-0.3,0.3-0.3,0.3,0h0.3h0.6h0.3h1.8h0.6l0.3-0.3v0.3c0.3-0.3,0.6-0.3,0.6-0.3c0.3,0.3,0.6,0.601,0.6,0.3h0.6
		c0.9-0.3,0.3,0,1.2-0.3h0.3h1.5h0.3c0.9,0.3,1.2,0,1.5,0h0.9c0.3-0.3,0.3-0.3,0.6,0c0.3,0.3,0.6,0.3,0.6,0c0.3-0.3,0.3-0.3,0.3,0
		h0.6h0.3c0.3,0,0.3,0,0.6-0.3c0.3,0.3,0.6,0.3,0.6,0.3c0.9-0.9,0.9-0.3,1.8-0.3c0.3,0,0.6,0,0.9-0.3c0.3,0.3,0.6,0.3,0.9,0l0.3,0.3
		v-0.3c0.3,0.899,0.9-0.601,1.2,0.3c0.3-0.3,0.6-0.3,0.9-0.3c0.3,0,0.3,0,0.3,0.3h0.9c0.3,0,0.6,0,0.6-0.3h0.9h0.3v0.3
		c0.9-0.9,0.6-0.3,0.9-0.3c0,0.3,0.3-0.301,0.3,0v0.3l0.3-0.3h0.3c0.3,0.3,0.9,0.3,1.2,0c0,0.3,0.3-0.301,0.6,0c0,0.3,0,0.3,0.3,0.3
		h0.6c0.3,0,0.6,0,0.6-0.3l0.3,0.3h0.6h1.2l0.3-0.3v0.3l0.3-0.3c0.3,0.3,0.6,0.3,0.9,0.3h0.3c0.3,0,0.3,0,0.6-0.3
		c0.3,0.3,0.6,0,0.9,0.3h0.9h2.4c0-0.3,0.6,0,0.9-0.3c0.3,0,0.3,0,0.3,0.3v-0.3v0.3c0.3,0,0.6-0.3,0.9-0.3l0.3,0.3h0.6
		c0.3-0.3,0.3,0,0.6-0.3h0.9h0.6h0.6h0.6h0.6c0.3,0.3,0.3,0.3,0.6,0c0.3,0.3,0.3,0.3,0.6,0h0.3c0.3,0.3,0.3,0,0.6,0.3
		c0.3,0,0.3,0,0.6-0.3c0.3,0,0.6,0.3,0.6,0.6h-0.3c-0.3,0.3-0.3-0.3-0.6,0c0-0.3-0.3,0-0.6,0.3h0.9h0.3h0.3h0.3
		c0.3-0.3,0.3-0.3,0.3,0h0.3h0.3h0.6l0.3-0.3l0.3,0.3h0.6h0.3c0.3,0,0.3,0,0.3-0.3h-0.6V0.9v-0.3h0.6c0.3,0.3,0.3,0.3,0.6,0
		c0-0.301,0.3-0.301,0.3,0h0.3c0.3-0.301,0.3,0,0.6,0.6v0.3h0.6h0.3h0.3h0.3h0.6c0-0.3-0.3-0.3-0.6-0.3c-0.3,0-0.3,0-0.3-0.3
		s0-0.3,0.3-0.3h0.3h0.3l0.3,0.3c0-0.3,0.3-0.3,0.6-0.3h0.3c0.3-0.301,0.6-0.301,0.9,0c0,0.3,0,0.3,0.3,0h0.3c0,0.3,0,0.6-0.3,0.899
		h0.6h0.3h1.2c-0.3-0.3-0.6-0.3-0.9-0.6v0.3V0.9v-0.3V0.3c0,0.301,0.6,0.9,0.9,0V0.9h0.3l0.3-0.3v0.3l-0.3,0.3l0.3,0.3l0.3-0.3
		l0.3,0.3c0-0.899,0.3,0,0.6-0.3c0.3,0.3,0.6,0.3,0.9,0c0.3,0.3,0.3,0.3,0.3,0v0.3h0.3c0.9,0,1.5-0.3,2.4-0.3h0.3h0.9h0.3
		c0.3,0,0.3,0,0.6-0.3v0.3h0.6l0.3-0.3c0.3,0.3,0.6,0.3,0.9,0c0.3,0,0.3,0,0.6,0.3h0.3l0.3-0.3c0.3,0.3,0.3,0.3,0.3,0.6
		c0.3,0,0.6-0.899,0.6,0V1.2h0.3c0.9,0,1.2-0.3,2.1-0.3c0.3,0,0,0.3,0.9,0.3c0.3,0.3,0.6,0.3,0.9,0.3h0.9h0.3h0.9h0.9h0.6h0.3V1.2
		l0.3,0.3h0.3h1.2h0.6h0.6c0.3-0.3,0.3,0.301,0.6,0h0.899h1.201h0.6h0.6h0.301h1.199h1.2h0.3c0.301-0.3,0.301-0.3,0.301,0h0.6h0.6
		h0.301h0.299h0.601h0.3h0.6h2.701h0.6h0.3h0.899h0.301h0.6h0.6h0.301h0.3h0.899h0.601h0.3h0.301h0.3h0.3c0.3,0.301,0.3,0.301,0.3,0
		h0.601h0.3h0.6h1.5h0.3h0.301h0.6h0.3h0.601h0.3h0.6h0.601h0.3c0.3,0.301,0.3,0.301,0.6,0h0.3h0.301c0.3,0,0,0.301,0.899,0h0.3
		h0.601h0.601h0.6h0.6h0.6c0.301,0,0.301,0,0.301-0.3l0.3,0.3h0.3c0.301,0,0.6,0,0.9-0.3c0,0.3,0.3,0.3,0.6,0.3h0.6h0.301h1.199
		c0-0.3,0-0.3,0.301,0h0.6h0.301h0.6h0.6h0.301h0.899h0.3h0.301h0.6h0.3h1.2h1.199h0.301h1.5h0.6h0.301h0.899h0.601h0.6h0.9h0.6h0.6
		h0.301h0.299h0.301h0.3h0.601h0.299h0.301h0.3h0.3h0.301h0.6h0.6c0.301-0.3,0.301-0.3,0.601,0h0.6h0.3h0.601h0.6h0.601h0.3h0.6h1.8
		h0.601h1.2h0.3h3.3h0.6h0.601h1.2h0.6h0.9h0.3h0.3h0.9h0.3h0.601h0.299h0.301h0.3h0.3h1.2h0.3h1.2h0.601h0.6h0.9h0.299
		c0-0.3,0-0.3,0.301,0h0.9h0.6h0.3h0.3h0.6h0.601h0.601h0.6h0.3h0.601h0.299h1.201h0.299h0.301h0.6h0.6h0.9h1.2h0.3h0.6h0.601
		c0.899-0.3,1.5-0.3,1.8,0h0.601h0.3c0.9-0.3,0.9,0,1.8-0.3c0.3,0,0.3,0.3,1.2,0l0.3,0.3h0.3c0-0.3,0.601,0,0.9-0.3h1.2l0.3,0.3
		c0.3-0.3,0.6-0.3,0.6-0.3c0,0.3,0,0.3,0.301,0c0.3-0.3,0.6,0.3,1.5,0v0.3h0.6c0.3-0.3,0.6-0.3,0.6-0.3h0.601h0.899
		c0,0.3,0,0.3,0.301,0c0-0.3,0.3,0.3,0.3,0h0.6h1.501h0.299h0.601c0.3,0.3,0.3,0.3,0.3,0h0.301h0.299h0.301h0.9h0.6h0.3h0.601h0.299
		c0-0.3,0-0.3,0.301,0c0-0.9,0.6,0.601,0.6-0.3c0.301,0.3,0.301,0.3,0.6,0c0.301,0,0.301,0.3,0.601,0.3l0.3-0.3l0.301,0.3
		c0.299-0.3,0.6-0.3,0.6-0.3h1.5h0.6h0.301c0.299,0.3,0.6,0.6,0.6,0.3c0.3-0.3,0.6-0.3,0.9-0.3h0.299h0.9h0.301
		c0.299,0.3,0.299,0.3,0.6,0c0.3-0.3,0.6,0.3,0.6,0h0.301h0.6h0.9h0.899c0,0.3,0.3,0.3,0.3,0c0.6,0.3,0.9,0.6,0.9,0.3
		c0.3,0,0.6,0,0.9-0.3c0.299,0,0.299,0.6,0.6,0.3c0.3-0.3,0.6-0.3,0.6-0.3c0.301,0.3,0.6,0.3,1.2,0.3c0.3,0,0.601,0,0.601-0.3
		c0.299-0.3,0.299,0.3,0.6,0c0.3,0,0.3,0,0.3,0.3c0.3,0,0.3,0,0.601-0.3c0.3,0.3,0.3,0.3,0.6,0.3c0.3-0.3,0.3-0.3,0.6-0.3
		c0.301,0,0.301,0,0.601,0.3c0.3,0,0.3,0,0.3-0.3h0.9h0.3h0.6c0.3,0,0.3,0,0.601,0.3h0.3c0-0.3,0.3-0.3,0.899-0.3h0.301h0.3h0.3
		c0-0.3,0.3,0.9,0.6,0h0.301c0.3,0,0.3,0,0.6,0.3V0.9h0.3h0.3h0.9h0.3h0.601h2.399c0.3,0,0.3,0,0.3-0.3c0.301,0,0.301,0,0.301,0.3
		h0.6h0.6h0.9h0.6h0.9h0.301h0.6h0.6h2.1h0.601c0.3,0.3,0.3,0.3,0.3,0c0.301,0.3,0.301,0.3,0.301,0h0.6h0.9
		c0.299,0,0.299,0,0.299-0.3c0.301,0.3,0.301,0.3,0.601,0h0.601h1.199h0.6v0.3c0.301-0.9,0.601,0.6,0.9-0.3h0.6h0.301h0.9h0.6
		c0,0.3,0,0.3,0.3,0h0.601h0.299c0.9,0.3,0.9,0,1.201,0c0-0.301,0-0.301,0.299-0.301h0.301h0.3h0.3v0.301h1.2c0.3,0,0.3,0,0.601,0.3
		c0.899-0.3,1.5-0.3,1.799,0l0.301-0.3c0.3,0.3,0.3,0,1.2,0.3c0-0.9,0.3,0,0.6-0.3h0.601c0-0.301,0-0.301,0.3,0h0.3h0.6h0.601h0.3
		h0.3c0.3-0.301,0.3-0.301,0.3,0h0.601h0.6c0,0.3,0.3,0,0.601-0.301h0.3l0.3,0.301c0.3-0.301,0.3,0.3,0.6,0h0.301l0.3-0.301v0.301
		l0.3-0.301c0,0.301,0.3,0.301,0.6,0.301h0.601c0-0.301,0.6,0,0.6-0.301h0.601h0.3h0.3h0.6h0.301l0.3,0.301c0.3,0,0.6,0,0.899-0.301
		c0.9,0.301,0.9,0,1.201,0h1.199c0,0.301,0.301,0,0.301,0.301c0.299-0.301,0.299,0,0.6-0.301h0.3h0.3h0.6h0.301h0.6
		c0.301,0.301,0.301,0.301,0.6,0h0.301h0.6h0.301h0.6h0.6h0.6h0.301h0.6h1.2h0.3h0.9h0.3h0.601c0.299,0.301,0.6,0.301,0.899,0.301
		c0.3-0.301,0.601-0.301,0.899-0.301h0.601c0.3,0,0.601,0,0.601-0.3c0.299,0.3,0.299,0.3,0.6,0h0.3c0.3,0.3,0.3,0.3,0.3,0
		c0.301,0,0.6,0,0.6,0.3h0.301h0.3c0.3,0.301,0.3,1.2,0.601,1.2v0.301V2.7l-0.301,0.601c-0.3,0.3-0.3,0.899-0.3,1.5V5.7
		c0,0.3-0.601,0.3-0.3,0.601v0.3h-0.6c-0.301,0.3-0.301,0.3-0.301,0.6v0.601c-0.3,0.6-0.6,0.899-0.9,0.899h-0.299
		c0-0.3,0-0.3-0.301-0.3h-1.199c-0.301,0-0.301,0-0.601-0.3h-0.3c-0.301,0.3-0.6,0.3-1.2,0c-0.3,0-0.3,0-0.3,0.3
		c-0.301-0.3-0.301-0.3-0.6,0c-0.301,0-0.301,0-0.601-0.3h-1.2h-0.6h-0.6c-0.301,0.3-0.301,0.3-0.301,0c-0.9-0.3-1.199,0.6-2.1-0.3
		l-0.301,0.3c-0.299,0-0.299,0-0.299-0.3c-0.301,0.3-0.301,0.3-0.601,0h0.3V7.5h-0.3c-0.3,0.301-0.3,0.301-0.3,0
		c-0.301-0.3-0.301,0.301-0.6,0h-0.301h-0.3h-0.3c0,0.301,0,0.601-0.301,0.601h-0.6c0,0.3-0.3,0.3-0.3,0h-0.3l-0.301-0.3h0.301V7.5
		h-0.301l-0.299-0.3c-0.301,0.3-0.301,0.3-0.301,0c-0.3,0-0.6,0-0.6,0.3h-0.301l-0.3-0.3v0.3c-0.3-0.3-0.3,0-0.6-0.3
		c-0.3,0-0.3,0-0.3,0.3h-0.601c-0.3,0-0.3-0.3-0.6-0.3h-0.3h-0.601h-0.3h-0.9c-0.3,0-0.6,0-0.6,0.3c-0.3,0.301-0.3,0.301-0.3,0
		c-0.3,0-0.3,0-0.3,0.301V7.5c-0.301-0.899-0.9,0-0.9-0.3h-1.2c-0.3,0.3-0.3,0.3-0.6,0c-0.3,0.3-0.3,0.3-0.3,0
		c-0.301,0.3-0.301-0.6-1.2,0.3c-0.3,0-0.3,0-0.3-0.3c-0.301-0.3-0.301-0.3-0.301,0s0,0.3-0.3,0h-0.3c-0.9,0-0.3,0.3-1.2,0h-0.3
		h-0.3h-0.601h-0.6h-0.9c0,0.3-0.3-0.3-0.3,0h-0.601h-0.299h-0.301h-0.3h-0.899c-0.301-0.3-0.301,0.601-0.601-0.3v0.3h-0.899h-0.301
		c-0.3,0.3-0.6,0.3-0.9,0c-0.6,0.3-0.899,0.3-1.199,0h-0.301h-0.299c0,0.601-0.301,0.601-0.9,0c-0.301,0.3-0.301,0.3-0.6,0h-0.601
		c-0.3-0.3-0.601,0.3-0.899,0c-0.301,0.3-0.301,0.3-0.301,0h-0.6h-0.301h-0.299l-0.301-0.3v0.6h-0.3c-0.3-0.3-0.3-0.3-0.601-0.3
		c0,0.3-0.6-0.6-0.6,0.3c-0.6-0.6-0.9-0.6-0.9,0c-0.299-0.3-0.6-0.3-0.899-0.3h-0.3l-0.301-0.3c0,0.3,0,0.3-0.299,0h-0.601
		c0,0.3,0,0.3-0.3,0h-0.301c-0.299,0-0.299,0-0.6,0.3h-1.5c0-0.3-0.3-0.3-0.6,0h-0.301l-0.299-0.3c0,0.3-0.301,0.3-0.301,0h-0.3v0.3
		c-0.899-0.3-0.601,0-0.899-0.3c-0.301,0-0.301,0-0.601,0.3h-1.2c-0.3-0.3-0.3-0.3-0.6,0h-1.2c-0.3-0.3-0.9,0-1.2-0.3
		c0,0.9,0-0.6-0.3,0.3c-0.3-0.3-0.601,0-0.9-0.3c0,0.3,0,0.3-0.3,0.3h-0.6h-0.301h-0.3h-0.899c-0.9-0.3-0.9,0-1.801,0
		c-0.3,0.3-0.3,0.3-0.3,0h-0.6h-0.3c-0.301,0-0.301,0-0.601-0.3l-0.3,0.3c0,0.3-0.3-0.3-0.3,0h-0.601c-0.3,0.3-0.3,0.3-0.3,0h-0.3
		c-0.3-0.3-0.3,0.601-0.6,0.3c-0.301-0.3-0.601-0.3-0.601-0.3h-0.899h-0.601h-0.3h-0.301c-0.299,0-0.299,0-0.6,0.3
		c-0.3-0.3-0.3-0.3-0.3,0h-0.3l-0.301-0.3c0,0.3-0.299,0.601-0.299,0.3V7.2l-0.301-0.3h-0.3l-0.3,0.3c-0.6,0-0.9,0-0.9,0.3l-0.3-0.3
		v0.3c0,0.301-0.3,0.301-0.601,0l-0.299-0.3c0,0.3,0,0.3-0.301,0.3h-0.3l-0.3,0.301V7.5c-0.301,0.301-0.301,0-0.6-0.3
		c-0.301,0-0.301,0-0.301,0.3h-0.9l-0.299,0.301c-0.9-0.301-0.9,0-1.201-0.301l-0.299-0.3h-0.601c-0.3,0-0.3,0-0.3,0.3h0.3h-0.601
		h-0.299l-0.301-0.3h-0.3c-0.3,0-0.3,0-0.3,0.3h-0.301h0.301V7.2h-0.301h-0.899h-0.3c-0.301,0.3-0.6,0.3-0.6,0.3l-0.301-0.3
		c0,0.3-0.3,0.3-0.6,0c-0.301,0-0.301,0,0,0.3v0.301c-0.301-0.301-0.6-0.601-0.6-0.301c0-0.3-0.301-0.3-0.601-0.3v0.3l-0.3,0.301
		C318.003,7.5,318.003,7.2,318.003,7.2c0,0.3,0,0.3-0.299,0.601V7.5V7.2c-0.301,0-0.601,0.3-0.601,0.601h-0.601V7.5V7.2
		c-0.299,0-0.6,0-0.899,0.3h-0.3c-0.301,0-0.301,0.301-0.6,0.301c-0.301,0-0.301-0.301-0.601-0.301c0-0.3-0.3,0-0.601,0.301
		c-0.299,0-0.299,0-0.299-0.301h-0.301l-0.3,0.301h-0.9h-0.6c-0.3,0.3-0.601,0.6-0.601,0.3c-0.3-0.3-0.899,0-0.899-0.3
		c-0.3,0-0.3,0-0.601,0.3h-0.3v-0.3c-0.3,0.3-0.6,0.3-0.6,0.3c-0.3-0.3-0.3-0.3-0.601,0h-0.3c-0.3,0-0.6,0-0.6-0.3
		c0.3-0.301,0.3-0.601,0-0.601v0.3h-0.601v0.301h-0.3h-0.3V7.5h-0.6v0.301h-0.601V7.5h-0.3v0.301c-0.3,0.3-0.3,0.3-0.3,0
		c-0.3,0,0.3-0.301,0-0.301h-0.601c0,0.301-0.3-0.3-0.3,0h-0.3c-0.3,0.9-0.6,0.301-0.9,0.601c-0.3-0.3-0.3-0.3-0.3,0
		c-0.3-0.3-0.3-0.3-0.6,0h-0.3c0-0.3,0-0.3-0.301,0h-0.6c-0.3-0.3-0.3-0.3-0.3,0c-0.3,0-0.3,0-0.3-0.3
		c-0.301-0.301-0.301-0.301-0.601,0c0,0.3,0,0.3-0.3,0.3h-0.301h-0.6h-0.3c-0.3,0.3-0.601,0.3-0.899,0h-0.301h-0.3
		c0,0.3-0.3-0.3-0.3,0v-0.3c-0.301-0.301-0.301,0-0.301,0.3h-0.299h-0.301c-0.3-0.3-0.3-0.3-0.6,0c-0.301,0.3-0.6,0.3-0.6,0
		s0-0.3-0.301,0l-0.3-0.3l-0.3-0.301c-0.301,0-0.301,0-0.301,0.301c0,0.3,0,0.3-0.299,0.3h-0.601c0,0.3-0.3,0-0.3,0.3
		c-0.9-0.3-0.9,0-1.2,0l-0.3-0.3h-0.301c-0.299,0.3-0.299,0.3-0.6,0.3h-0.3c-0.3,0-0.3-0.3-0.3-0.6c0-0.301-0.301-0.301-0.301,0
		c0.301,0.3,0,0.6-0.299,0.6l-0.301-0.3v0.3c0-0.9-0.3-0.3-0.3,0l-0.601-0.6c0,0.3,0,0.6-0.299,0.6l-0.301-0.3l0.301-0.3
		c-0.301-0.301-0.301-0.301-0.301,0h-0.3l-0.601,0.6h-0.299h-0.601h-6.899h-0.301c-0.3-0.3-0.3-0.3-0.6,0h-0.301h-0.299h-0.601
		c-0.3-0.3-0.3,0.3-1.2,0.3c-0.3,0,0-0.6-0.9-0.3c-0.3,0-0.6,0-0.6,0.3c-0.6-0.3-1.2-0.3-1.5,0h-0.6c-0.301-0.3-0.301-0.3-0.301,0
		h-0.3c-0.3,0-0.3,0-0.3-0.3h-0.9c0,0.3-0.3,0.3-0.899,0.3h-1.2c-0.3,0-0.3,0-0.3-0.3c-0.3-0.3-0.601,0.3-0.9,0.3h-0.3h-1.2h-1.2
		c-0.3,0-0.3,0-0.6-0.3c-0.3,0.3-0.6,0.3-0.6,0.3h-0.301c-0.6,0-0.9,0-1.199-0.3v0.3c-0.301,0-0.601,0-0.9-0.3l-0.301,0.3
		c0-0.3,0-0.3-0.299-0.6c0,0.3,0,0.3-0.301,0.3c-0.3,0.3-0.9,0-0.9,0.3V8.4c0-0.3,0-0.3-0.299,0c-0.301,0-0.301,0-0.601,0.3
		c-0.3-0.3-0.3-0.3-0.3,0c-0.301-0.899-0.9,0-1.2,0s-0.601-0.3-0.899-0.3h-0.601c-0.3,0.3-0.601-0.3-0.601,0h-0.6
		c-0.3,0-0.3,0-0.3,0.3h-0.3c0-0.3,0-0.3-0.301,0c-0.299,0-0.299,0-0.6-0.3h-0.9c-0.299,0.3-0.299,0.3-0.6,0l-0.3,0.3h-0.3
		c0-0.3,0-0.3-0.301-0.3h-2.699h-0.6h-0.301c-0.9-0.3-0.9,0-1.8,0h-0.601h-0.6h-0.6h-0.301h-0.299c-0.301,0-0.601,0-0.601-0.3h-0.3
		c0,0.899-0.301,0-1.2,0.3h-1.2h-0.3v0.3h-0.3c0-0.3,0-0.3-0.301-0.3h-0.899h-0.9h-1.2h-1.199h-1.2h-1.2v0.3
		c-0.3-0.3-0.3-0.3-0.6-0.3c-0.301,0-0.601,0-0.601,0.3c0-0.3-0.3-0.3-0.6-0.3h-0.9h-0.6h-0.601c-0.3,0-0.3,0-0.3,0.3h-0.3
		c-0.3-0.3-0.6-0.3-1.2-0.3h-0.601h-0.299h-0.601h-0.3c0-0.3-0.301-0.3-0.301,0h-0.6h-0.6h-0.301c-0.6-0.3-1.199-0.3-1.5,0h-0.299
		h-3c-0.301,0-0.601,0-0.601-0.3h-0.3c-0.301,0.3-0.6,0-0.9,0.3c-0.3,0-0.3-0.3-0.6-0.3v0.3v-0.3h-0.301c0,0.3-0.299,0.3-0.6,0
		l-0.3,0.3h-2.399c-0.301,0-0.301,0-0.301-0.3h-0.3c-0.3,0.3-0.601,0.3-0.899,0.3h-2.101c-0.3,0-0.3,0-0.6-0.3
		c-0.3,0.3-0.6,0.3-0.9,0.3h-0.6h-0.6h-0.6h-0.3c-0.3,0.3-0.3,0.3-0.6,0h-0.6h-5.4h-0.6h-0.9h-0.6c-0.3,0-0.3,0-0.6-0.3
		c-0.3,0.3-0.6,0.3-1.2,0.3h-2.4h-0.6h-0.3c-0.3,0.3-0.3,0.3-0.3,0c-0.3,0.3-0.3,0.3-0.3,0c-0.3,0-0.3,0-0.6,0.3
		c-0.3,0-0.9,0-1.2-0.3h-0.6c0,0.3,0,0.3-0.3,0h-0.3h-1.2c-0.6,0.3-1.5,0.3-2.7,0.3h-0.3h-0.3h-0.6h-4.2h-0.3h-0.6h-0.3h-0.6h-0.3
		h-0.6h-0.9h-0.3h-1.2h-0.3c-0.3-0.3-0.3-0.3-0.6,0h-0.3c-0.3-0.3-0.3-0.3-0.3,0h-0.6h-0.9h-0.9h-0.6h-0.6h-0.3h-0.6h-0.9h-0.3h-0.6
		l-0.3,0.3h-0.3c-0.3-0.3-0.9-0.3-1.2-0.3h-0.6h-0.3c-0.9,0-1.2,0-1.5,0.3h-0.3V8.7c-0.3,0-0.3,0-0.6,0.3l-0.3-0.3
		c-0.3,0-0.3,1.2-0.6,0.3h-0.3h-0.3c-0.6-0.3-0.9-0.3-1.2,0c-0.3,0-0.6-0.3-0.9-0.3c0,0.3-0.3,0.3-0.3,0c-0.3,0-0.3,0.3-0.6,0.3
		l-0.3-0.3h-0.3c-0.3,0-0.3,0-0.6,0.3l-0.3-0.3l-0.3,0.3V8.7h-1.2h-0.6h-0.6h-0.3h-0.9c0,0.3-0.3,0-0.3,0.3c0-0.3-0.3-0.3-0.6-0.3
		c-0.3,0.3-0.3,0.3-0.3,0h-0.6h-0.6h-0.6h-0.9h-0.9h-0.3c0,0.3,0,0.3-0.3,0.3h-0.9c-0.3-0.3-0.3-0.3-0.6,0h-0.6V8.7
		c-0.3,0-0.3,1.2-1.2,0.3c0,0.9-0.3,0-0.6,0h-0.9h-1.2v0.601h-0.6c0,0.3-0.3,0.3-0.6,0h-0.3l-0.3,0.3h-1.8c0-0.9-0.3,0-0.6,0h-0.6
		c-0.3,0-0.3,0-0.3-0.3c-0.3,0.3-0.6,0.3-0.6,0.3h-0.3h-0.9h-0.6c-0.6,0-0.9,0-1.2-0.3v0.3h-2.1h-0.6c0-0.3,0-0.3-0.3,0
		c-0.9-0.3-0.9,0.3-1.2,0h-0.6h-0.6h-0.9h-0.6c0,0.3-0.3,0.3-0.3,0h-0.6h-2.4h-0.3h-0.6h-0.3h-0.3h-0.6h-0.3h-0.6h-0.3h-0.3h-0.6
		c-0.3,0.3-0.3,0.3-0.6,0.3c0-0.3,0-0.3-0.3-0.3c-0.3,0-0.3,0-0.6,0.3c-0.3-0.3-0.6,0.3-0.6,0v0.3h-0.3c0.3,0,0.3,0,0.3,0.301V10.5
		c0,0.301,0,0.301,0.3,0.301l-0.3,0.3c-0.3,0-0.3,0-0.6-0.3l-0.3,0.3v-0.3c-0.3,0.3-0.6,0.3-0.9,0.3l-0.3-0.3h0.3
		c0-0.301,0.3,0,0.3-0.301c0-0.3,0-0.3-0.3-0.3c-0.3-0.3-0.3-0.3-0.6,0V9.9c-0.3,0.3-0.6,0.3-0.6,0.3h-0.6c-0.3-0.3-0.3-0.3-0.3,0
		h-0.3h-0.3v0.3v0.301h1.2c0-0.301,0-0.301,0.3,0l-0.3,0.3h-3h-0.3l-0.3-0.3h0.3V10.5c0.3,0,0.3,0,0.3,0.301
		c0.3-0.301,0.3-0.301,0.3,0c0.3,0.3,0.3,0.3,0.3,0h0.6c0.3,0,0.3,0,0.3-0.301c0.3,0,0.3,0,0.3-0.3h-0.3h-0.3c0-0.3-0.3-0.3-0.9-0.3
		c0,0.3,0,0.3-0.3,0.3h-0.3h-0.3c-0.3-0.3-0.3,0.3-0.6,0c0,0.3,0,0.3-0.3,0h-0.3h-0.6l-0.3-0.3h-0.3c-0.3,0-0.3,0.3-0.6,0.3h-1.2
		c-0.3-0.3-0.3-0.3-0.6,0h-0.9h-0.9h-0.3c0-0.3-0.3,0.3-0.3,0c-0.3-0.3-0.6,0-0.9-0.3v0.3c0,0.3-0.3-0.3-0.3,0h-0.9
		c0-0.3-0.3,0.3-0.6,0c-0.3-0.3-0.6-0.3-0.6,0.3l-0.3-0.3h-0.3h-0.9h-0.3v0.3c0-0.3,0-0.3-0.3-0.3c-0.3,0.3-0.6,0.601-0.6,0.3h-0.3
		l-0.3,0.301h0.3h0.3v0.3c-0.3,0.3-0.3,0.3-0.6,0c-0.3,0.3-0.3,0.3-0.6,0h-0.3h-0.6c-0.3,0.3-0.6,0.3-0.6,0c-0.3,0-0.3,0.3-0.6,0.3
		h-0.6c-0.3,0-0.6,0-0.6-0.3c0,0.3,0,0.3-0.3,0.3h-0.3c-0.3,0-0.3,0-0.3-0.3l-0.3,0.3h-0.3c-0.3,0-0.3,0-0.6-0.3h0.6v-0.3h-0.3V10.5
		c-0.3,0-0.6-0.899-0.9,0v-0.3c-0.3-0.3-0.3-0.3-0.6-0.3h-2.1V10.2v0.3V10.2z M80.101,10.5v-0.3c0,0.3,0,0.3,0.3,0.3
		c0.3,0,0.3,0,0.6-0.3l0.3,0.3h0.3c0.3,0.301,0.3,0.301,0.3,0v-0.3v0.3l0.3,0.301h0.3c0,0.3-0.3,0.3-0.9,0h-0.3
		c-0.6,0-0.9,0-0.9-0.301H80.101c0,0.301,0,0.301-0.3,0.301h-0.3h-3.6c0.3-0.301,0.3-1.2,0.3-0.301h0.6h0.6h0.3c0.3,0,0.3,0,0.6-0.3
		c0.3,0.3,0.3,0.3,0.3,0c0.3,0,0.3,0,0.6,0.3c0.3-0.3,0.3-0.3,0.3,0c0.3,0,0.3,0,0.6-0.3V10.5z M99.901,10.801
		c-0.3,0.3-0.6,0.3-0.9,0.3h-3.6c-0.3,0-0.3,0-0.6,0.3c0-0.3,0-0.3-0.3-0.3h-0.6h-0.6h-0.6h-0.9h-0.6h-0.3v-0.3
		c0.3,0.3,0.3,0.3,0.3,0h0.6c0.3,0,0.3,0,0.6,0.3h0.3V10.5c0.3,0.301,0.3,0.301,0.3,0c0.3-0.3,0.3,0.301,0.6,0.301
		c0.3,0,0.3-0.301,1.2,0h0.3c0-0.301,0.3,0,0.3-0.301c0,0.301,0.3,0.301,0.6,0.301h0.3h0.9h0.3V10.5l0.3,0.301h0.3
		c0.3-0.301,0.6,0,1.5-0.301L99.901,10.801h0.9c0.3-0.301,0.6,0.6,0.6-0.301c0,0.301,0,0.301,0.3,0.301h-0.3
		c-0.3,0.3-0.6,0.3-0.9,0.3C100.201,11.101,99.901,11.101,99.901,10.801z M129.001,10.5h-0.3c0,0.301-0.3,0-0.3,0.301
		c-0.3-0.301-0.6-0.301-0.6-0.301c0,0.301,0,0.301-0.3,0c-0.3,0.301-0.6,0.301-0.6,0.301h-0.3c-0.3-0.301-0.3-0.301-0.3,0h-0.6h-3.3
		l-0.3-0.301c0.3,0,0.6,0,0.6-0.3h0.3c0.3,0.3,0.6,0.601,0.9,0.3c0.3-0.3,0.3,0.301,0.6,0h0.3c1.5,0,2.4,0,3-0.3h0.3h0.6h0.3V10.5z"
		/>
</g>
</svg>
