<?xml version="1.0" encoding="utf-8"?>
<!-- Generator: Adobe Illustrator 16.0.0, SVG Export Plug-In . SVG Version: 6.00 Build 0)  -->
<!DOCTYPE svg PUBLIC "-//W3C//DTD SVG 1.1//EN" "http://www.w3.org/Graphics/SVG/1.1/DTD/svg11.dtd">
<svg version="1.1" id="Layer_1" xmlns="http://www.w3.org/2000/svg" xmlns:xlink="http://www.w3.org/1999/xlink" x="0px" y="0px"
	 width="262.25px" height="31.75px" viewBox="0 0 262.25 31.75" enable-background="new 0 0 262.25 31.75" xml:space="preserve">
<g>
	<path fill="#DF7760" d="M51.25,21.75c-0.75,0-0.75,0.25-1,0.25h-0.5H49.5h-0.25L49,22.25L48.75,22v0.25c-0.75-0.25-0.25,0.25-1,0
		H47.5H47l-0.25,0.25h-0.5C46,22.25,46,22.25,46,22.5c-0.25,0.25-0.25,0.25-0.5,0h-0.25H44.5c-0.25,0-0.25,0-0.25,0.25
		S44,22.5,44,22.75h-0.5H43L42.5,23h-0.25H42h-0.25H41.5c0,0.25-0.25,0.75-0.25,0c-0.25,0.25-0.25,0.25-0.5,0.25
		c0,0.25,0,0.25-0.25,0.25l-0.25-0.25H40c-0.25,0-0.25,0-0.5,0.25c-0.25,0-0.5,0-0.5,0.25c-0.25,0-0.25,0-0.25-0.25l-0.25,0.25
		h-0.25H38h-0.25c0-0.25,0-0.25-0.25,0s-0.5,0-0.75,0.25c-0.25,0-0.25,0-0.5,0.25L36,24c-0.25,0.25-0.25,0.25-0.5,0.25l-0.25,0.25
		H35l-0.25-0.25h-0.5C34,24.5,33.75,24.5,33.5,24.5h-0.25c-0.25,0-0.25,0-0.25,0.25h-0.25c-0.25,0-0.25,0.25-0.5,0.5H32l-0.25-0.5
		c-0.25,0.25-0.25,0.5-0.25,0.5h-0.25L31,25.5c0,0.25,0,0.25-0.25,0c0,0.25,0,0.25-0.25,0.25h-0.25h-0.5c-0.25,0-0.25,0-0.25,0.25
		c-0.5,0-0.75,0-0.75,0.25h-0.5v0.25H28v-0.25L27.75,26l-0.25,0.25h-0.25L26.5,26.5v0.25L26.75,27h-0.5c0,0.25,0,0.25-0.25,0h-0.25
		v-0.25H25.5V27c-0.25,0.25-0.25,0.25-0.5,0.25C25.25,27,25.25,27,25.5,27v-0.25h-0.25c-0.25,0.25-0.75-0.25-1,0.5
		C24,27,23.75,27.25,23.5,27c-0.25,0-0.5,0-0.75,0.25c0,0.25-0.25-0.25-0.25,0h-0.25c-0.25,0-0.25,0-0.25,0.25
		c-0.75-0.25-0.75,0-1,0h-0.5c-0.5,0-0.75,0-1,0.25S19,28,18.5,28h-0.25c0-0.25-0.25-0.25-0.25,0c-0.25,0-0.25,0-0.25,0.25
		c-0.25,0-0.25,0,0,0.25H17.5c0-0.25-0.25-0.25-0.25,0h-1c-0.25,0-0.25,0-0.25,0.25h-0.5h-0.25C15,29,14.75,29,14.5,29H14
		c-0.25,0-0.25,0-0.5,0.25h-0.25C13,29.5,13,29.5,13,29.75c-0.75-0.75-0.75,0-1,0h-0.25H11.5c-0.25,0.25-0.75,0.5-1,0.25
		c-0.25,0.25-0.5,0.25-0.5,0.25C9.5,30.5,9,30.5,8.25,30.5h-0.5c0,0.25-0.25,0-0.25,0.25H7.25c-0.5,0-0.75,0-0.75,0.25
		c-0.25,0-0.5,0-0.75,0.25h-0.5C5,31.25,5,31.25,5,31.5H4.75c0-0.25-0.25-0.25-0.25,0H4c0-0.25-0.25-0.25-0.25,0H3.5H3.25H3
		c-0.25,0-0.25,0-0.25,0.25c-0.25,0-0.25,0-0.25-0.25S2.25,31,2,31H1.75c-0.25-0.25-0.25-0.25-0.5-0.25H1c0-0.25-0.25-0.5-0.25-0.75
		v-0.25v-1C1,28.5,1,28.5,0.75,28.25c0-0.25,0-0.5-0.25-0.75c0-0.5,0-0.75-0.25-1V26c0-0.25,0.25-0.25,0.25-0.5s0-0.5-0.25-0.75
		c0-0.25,0-0.25-0.25-0.5C0.25,24,0.5,24,0.75,24v-0.25l0.5-0.5C1.5,23,1.75,23,2,23c0-0.25,0-0.25,0.25-0.25s0.25,0,0.25-0.25
		c0.75,0,0.75-0.5,1-0.25h0.25C4,22,4.25,22,4.5,22.25c0.25,0,0.25,0,0.25-0.25L5,21.75h0.25c0-0.25,0-0.25,0.25,0s0.25,0.25,0.5,0
		h0.25V21.5H6.5H7h0.25h0.5c0.25,0.25,0.25-0.25,0.5,0H8.5C8.5,21,8.75,21,9,21.25C9,21,9,21,9.25,21H9.5H10h0.25
		c0,0.25,0,0.25,0.25,0h0.25c0.25,0,0-1,0.75-0.25c0-0.75,0.25,0.25,0.25,0h0.5h0.25c0.25-0.75,0.25,0,0.5,0h0.5v-0.5h0.25
		c0.25,0,0.5,0.25,0.75,0.5c0.25,0,0.25,0,0.25-0.25v-0.25C14.75,20,15,20,15.25,20v0.25c0.25,0,0.25,0,0.25-0.25H16l0.25-0.25h0.25
		h0.25h0.5V19.5h0.25l0.25,0.25L18,19.5h0.25c0-0.25,0-0.25,0.25-0.25h0.75c0,0.25,0.25,0.5,0.25,0.25h0.25c0.25,0,0.25,0,0.25-0.25
		S20.25,19,20.5,19c0,0.25,0.25,0.25,0.25,0L21,19.25L21.25,19c0.25-0.25,0.25-0.25,0.25,0h0.25C22,18.75,22,19.5,22,18.75h0.25
		L22.5,19c0.25-0.25,0.25-0.25,0.25,0C23,18.75,23,18.75,23,19v-0.25h0.25c0-0.25,0-0.25,0.25,0c0,0.25,0,0.25,0.25,0H24
		c0.25-0.25,0.5-0.25,0.5,0c0.5,0,0.75-0.25,1-0.5l0.25,0.25c0.25-0.25,0.5-0.25,0.75-0.25c0,0.25,0.25,0.25,0.5,0
		c0.25,0,0.25,0,0.25-0.25h0.25h0.25v-0.25H28h1h1.5c0.25,0,0.25,0,0.25-0.25H31h0.75c0.25,0,0.25-0.25,0.5-0.25
		c0.25,0.25,0.5-0.25,1.25,0h1c0.25,0,0.25,0,0.25-0.25H35h0.25c0.25,0,0.5-0.75,0.75,0h0.25l0.25-0.25c0.25,0,0.25,0,0.5,0.25
		c0-0.25,0.25-0.25,0.5-0.25s0.25,0,0.25-0.25h0.75H39c0.25-0.25,0.5-0.25,0.5-0.25H40h0.25v-0.5h0.25c0.25,0.25,0.25,0.25,0.25,0.5
		l0.25-0.5c0.25,0.75,0.25-0.25,0.5,0V16l0.25-0.25c0.25,0,0.25,0.75,0.25,0h0.25c0.25-0.25,0.5-0.25,0.75-0.25l0.25-0.25l0.25,0.25
		h0.25c0-0.25,0-0.25,0.25,0v-0.25h0.5c0.25-0.25,0.25-0.25,0.25,0c0-0.25,0-0.25,0.25-0.25c0,0.25,0.25,0.25,0.5,0.25
		c0.25,0.25,0.25,0.25,0.25,0h0.5V15h0.25h1v-0.25c0.75,0.25,0.5,0,1.25,0c0.25,0,0.5,0,0.75-0.25c0,0.25,0,0.25,0.25,0h1
		c0.25,0,0.25,0,0.25-0.25h0.25c0.25,0.25,0,0,0.75,0.25c0.25-0.75,0.5-0.75,0.5,0h1c0-0.25,0-0.25,0.25-0.25H54h0.25h0.25H55
		c0.25,0,0.25,0,0.5-0.25h1.25C57,13.75,57,13.75,57,14l0.25-0.25c0.25,0,0.25-0.25,1,0h0.25L60,13.5c0-0.25,0-0.25,0.25,0v-0.25
		h0.25c0.25,0,0.5,0,0.5,0.25h0.25c0-0.75,0.5-0.25,0.5-0.5c0.25,0.25,0.5,0.25,0.5,0s0.25-0.25,0.25,0H63h0.25h0.25
		c0-0.25,0-0.25,0.25,0H64c0.25-0.25,0.25-0.25,0.5-0.25c0.25-0.25,1,0,1-0.25h0.25c0.25,0.25,0.5,0.25,0.5,0h0.25
		c0.25-0.25,0.75-0.25,1.25-0.25h0.5h0.25c0.25,0,0.25,0,0.5-0.25v0.25h0.25c0-0.25,0.25-0.25,0.75,0V12h0.25h0.5
		c0-0.25,0.25-0.25,0.25,0l0.25-0.25c0.75,0,1.25-0.25,1.5-0.5h0.5h0.5l1-0.25h0.5c0.25,0,0.25,0,0.25-0.25h0.25V11
		c0.25,0,0.25-0.5,0.5-0.25h0.25h0.25c0-0.25,0-0.25,0.25,0c0-0.25,0-0.25,0.25,0c0-0.25,0-0.25,0.25-0.25h0.25
		c0.75,0,1.25-0.25,1.5-0.25h0.25h0.25H80c0-0.25,0-0.25,0.25,0c0-0.25,0-0.25,0.25,0c0.25,0,0.25,0,0.25-0.25
		c0.25,0,0.5,0,0.75-0.25h0.25h0.75h0.25c0.75,0.25,1,0,1.25,0c0.25-0.25,0.25,0,0.5-0.25s0.25-0.25,0.5,0h0.25
		c0-0.25,0-0.25,0.25,0c0-0.25,0-0.25,0.25-0.25h0.5L86.5,9l0.25,0.25C86.75,9,87.25,9,88,9V8.75h0.25h0.25c0.25,0,0.25,0,0.5-0.25
		l0.25,0.25L89.5,8.5c0.25,0.75,0.25-0.25,0.5,0c0,0.25,0.25,0.25,0.25,0h0.25h0.25c0.25,0,0.25,0,0.5-0.25h0.5H92h0.5h0.25
		c0,0.25,0.25,0,0.5-0.25c0,0.25,0.25-0.25,0.25,0h0.25c0.25,0.25,0.5,0.25,0.75,0c0-0.25,0-0.25,0.25,0H95h0.25
		c0.25,0,0.5,0,0.5-0.25C96,8,96,8,96,7.75h0.25h1h0.25c0-0.25,0-0.25,0.25,0c0.25,0,0.25,0,0.5-0.25c0.25,0.25,0.25,0.25,0.5,0
		C99,7.75,99,7,99.25,7.75c0-0.25,0.25-0.25,0.5-0.25c0.25-0.25,1-0.25,1.75-0.25c0.25,0,0.25-0.25,0.5-0.5V7
		c0,0.25,0,0.25,0.25,0.25v-0.5v0.5c0.25,0,0.25-0.5,0.5-0.5V7L103,6.75h0.5h0.25h0.5c0.25,0,0.25,0,0.25-0.25h0.5h0.25H106
		c0.25,0,0.25,0,0.25-0.25c0.25,0.25,0.25,0.25,0.5,0c0.25,0.25,0.25,0,0.5,0.25c0.25,0,0.25,0,0.5-0.25c0.25,0,0.25,0,0.25,0.25
		v0.25h-0.5L107.25,7V6.75c0.25,0.25,0.25,0.5,0.5,0.5H108v-0.5h0.25c0,0.75,0-0.25,0.25,0h0.25C109,7.5,109,6.5,109,6.75l0.25-0.25
		l0.25,0.25h0.25c0.25,0,0.5,0,0.75-0.25c-0.25,0-0.5,0-0.75-0.25V6H110c0.5,0,0.75,0,0.75-0.25c0.25,0,0.25,0,0.25,0.25h0.25
		c0-0.75,0.25,0,0.25,0.25V6.5l0.25,0.25V6.5H112c0.25,0.25,0.25,0.25,0.25,0h0.25c0.25,0,0.25,0,0.25-0.25h-0.25V6
		c-0.25-0.25-0.25-0.25,0-0.25h0.25L113,6c0-0.25,0.25-0.5,0.25-0.25l0.25-0.25c0.25,0,0.25,0,0.5,0.25V5.5h0.25H115
		c-0.25,0.25-0.5,0.5-0.5,0.75h0.25H115h0.25c0,0.25,0.25,0,0.5-0.25c0-0.25-0.25,0-0.25-0.25c-0.25,0.25-0.25,0.25-0.25,0V5.5V5.25
		c0.25,0.25,0.25,0.25,0.5,0V5.5H116V5.25h0.25V5.5L116,5.75V6h0.25c0-0.25,0-0.25,0.25,0c0-0.25,0.25,0.5,0.25-0.25H117
		c0,0.25,0.25,0.25,0.5,0h0.25H118c0.5,0,1,0,1.5-0.25h0.75c0.25,0,0.25,0,0.5-0.25c0.25,0.25,0.25,0.25,0.5,0H122h0.25h0.25
		c0.25,0,0.25,0,0.25-0.25c0,0.25,0,0.25,0.25,0.25c0-0.25,0-0.25,0.25,0h0.25c0.75,0,1-0.5,1.25-0.5C125,5,125.25,5,125.5,5
		c0.25,0.75,0.5,0.75,0.5,0.25h0.5c0.25,0,0.25,0,0.25-0.25H127c0,0.25,0,0.25,0.25,0.25h0.5H128c0.5,0,0.75,0,0.75-0.25V4.75L129,5
		h0.75h0.5c0-0.25,0-0.25,0.25-0.25V5c0.25,0,0.25,0,0.25-0.25h0.5h1.25c0.25,0.25,0.25,0.25,0.5,0h0.25l0.25-0.25
		c0.25-0.25,0.25-0.25,0.5,0h0.25h0.5H135c0-0.25,0-0.25,0.25,0V4.25c0.25,0,0.25,0,0.5,0.25C136,4.25,136,4.25,136,4.5h0.25
		c0-0.75,0,0,0.25-0.25h0.25H137h2h0.5h0.25c0.25,0,0.25,0,0.5-0.25h0.25h0.25c0-0.25,0-0.25,0.25,0c0-0.25,0.25-0.25,0.25,0
		l0.25,0.25c0-0.75,0.5,0.25,0.75-0.5V4h0.25c0.25-0.25,0.25-0.25,0.25,0c0-0.25,0.25-0.25,0.5-0.25s0.25,0.75,0.25,0
		c0.25,0,0.25,0.25,0.5,0.25s0.25,0,0.25-0.25h0.25c0.25,0,0.25-0.25,1,0c0.25,0.25,0.25,0.25,0.25,0s0-0.25,0.25,0h0.25h0.25h0.25
		H147c0.25,0,0.25,0,0.25-0.25h0.25c0.25,0.25,0.25,0.25,0.25,0c0,0.25,0,0.25,0.25,0c0.25,0.25,0.25,0.25,0.25,0h0.25h0.25
		c0.25,0.25,0.25,0.25,0.5,0c0-0.25,0-0.25,0.25,0c0,0.25,0,0.25,0.25,0c0,0.25,0,0,0.25-0.25c0.25,0.25,0.5,0.25,0.5,0h0.5h0.25
		h0.25c0.25,0,0.25,0,0.25-0.25v0.25L152,3v0.25c0.25,0,0.5,0,0.5-0.25c0,0.25,0.25,0.25,0.25,0c0.25,0.25,0.5,0.25,0.5,0
		c0.25,0,0.25,0,0.25,0.25h0.25C153.75,3,154,3,154.25,3c0-0.25,0-0.25,0.25,0c0,0.25,0.25,0.25,0.25,0H155v0.25L155.5,3l0.25,0.25
		c0-0.25,0-0.25,0.25-0.25l0.25,0.25L156.5,3h0.25H157h0.5l0.25-0.25C158,3,158.25,3,158.25,3c0.5,0,0.75,0,1-0.25V3
		c0.5,0,0.75,0,1-0.25h0.25c0,0.25,0.25,0.25,0.5,0h0.25V2.5l0.25,0.25h0.5h0.25h0.5L163,2.5l0.25,0.25C163.5,2,163.5,3,163.5,2.25
		h0.25H164h0.5h0.5c0.25-0.25,0.25-0.25,0.25,0h0.25c0-0.25,0.25,0,0.25-0.25c0,0.25,0,0.25,0.25,0.25L166.25,2h0.25
		c0.25,0,0.25,0,0.25,0.25C167,2,167,2,167.25,2.25L167.5,2h0.5h0.25h0.25h0.5h0.25c0.75,0.25,0.5-0.25,1.25,0h0.25h0.75h0.25
		c0.5-0.25,1.25-0.25,2-0.25H174L174.25,2h0.25h0.5c0.25-0.25,0.25-0.25,0.5-0.25c0.25,0.25,0.25,0.25,0.25,0h0.75h0.25
		c0.25-0.25,0.25-0.25,0.5,0h0.25h0.5h0.25l0.25-0.25l0.25,0.25L179,1.5c0.25,0,0.25,0.25,0.5,0.25s0.25,0,0.25-0.25H180
		c0.25,0.25,0.25,0.25,0.5,0h0.25h0.5h0.25h0.5l0.5-0.25c0.25,0.25,0.25,0.25,0.5,0c0.25,0.25,0.25,0.25,0.5,0l0.25,0.25L184,1.25
		c0.25,0,0.25,0,0.25,0.25l0.25-0.25l0.25,0.25c0.25,0,0.25,0,0.25-0.25l0.25,0.25c0.25-0.25,0.25-0.25,0.5,0
		c0-0.25,0.5-0.25,1.25-0.25c0,0.25,0,0.25,0.25,0h0.25h0.5h0.5h1c0,0.25,0,0.25,0.25,0h0.5C190.5,1,191,1,191.5,1.25
		c0.25,0,0.25,0,0.5-0.25h0.25h1c0.25,0,0.5,0,0.5-0.25l0.5,0.25h0.5h0.75c0-0.25,0.5,0.25,0.5,0h0.25h0.5h0.75h0.25l0.5-0.25h0.5
		H199h0.25c0-0.25,0.25,0.25,0.25,0s0-0.25,0.25,0H201h0.25h0.25c0.25,0,0.25,0,0.5-0.25v0.25h0.25c0-0.25,0-0.25,0.25,0
		c0.25,0,0.25,0,0.25-0.25L203,0.75c0.25-0.25,0.25-0.25,0.25,0h0.25h0.25H204c0.25-0.25,0.25-0.25,0.25,0
		c0-0.75,0.25,0.5,0.25-0.25c0.25,0.25,0.5,0.25,0.75,0c0,0.25,0,0.25,0.25,0h0.25H206h0.25h1c0.25,0,0.25,0,0.25-0.25l0.25,0.25
		c0.25,0,0.25,0,0.5,0.25c0.25-0.25,0.25-0.25,0.5-0.25c0-0.25,0.25-0.25,0.25,0h0.25c0.25,0,0.25,0,0.25-0.25h0.25L210,0.5h0.5
		h0.25h0.5h0.5H212h0.25c0,0.25,0,0.25,0.25,0h0.5h0.5c0.75-0.25,0.5,0.25,0.75,0c0-0.25,0.25-0.25,0.25,0h0.75h0.25l0.25-0.25
		c0,0.25,0,0.25,0.25,0.25h0.25h0.25h0.25c0-0.25,0.25-0.25,0.5-0.25l0.25,0.25c0.25,0.25,0.25,0.25,0.5,0V0.25
		c0.25,0.25,0.5,0.25,0.75,0.25c0-0.25,0-0.25,0.25-0.25h0.25l0.25,0.25c0.25-0.25,0.25,0,0.5-0.25c0.25,0,0.25,0,0.25,0.25h0.25
		c0.25,0,0.25,0,0.25-0.25V0.5c0.25,0,0.25,0,0.25-0.25h0.5c0,0.25,0,0.25,0.25,0.25H222V0.25c0.25,0,0.25,0.25,0.5,0.25
		c0-0.5,0.25-0.5,0.75,0c0-0.25,0-0.25,0.25-0.25h1.25h0.5h0.5H226h0.5h0.5c0,0.25,0,0.25,0.25,0.25s0.25,0,0.25-0.25h0.25h0.5h0.5
		H230h0.25l0.25,0.25l0.25-0.25H231h0.5c0-0.25,0-0.25,0.25-0.25H232c0,0.75,0.25,0.5,0.25,0.25h0.25h0.5h0.5h0.25V0.5
		c0.25-0.75,0.5,0,0.5-0.25h0.25h0.25H235h0.5h0.25H236c0.25,0.25,0.5,0.25,0.5,0.25h0.5c0.25,0,0.5-0.25,0.75-0.25V0L238,0.25
		C238,0,238,0,238.25,0v0.25V0.5h1h0.25c0.75-0.25,0.75,0,1,0h0.5c0.25,0,0.25,0,0.5,0.25c0.25-0.75,0.25,0,0.5-0.25V0.25l0.25,0.25
		h0.5H243h0.25c0.25-0.25,0.25-0.25,0.25,0h0.25H244h0.5h0.25L245,0.25h0.5l0.25,0.25C246,0.25,246,0.25,246,0.5h0.25h0.25h0.25H247
		h0.5h0.25c0.25-0.25,0.25-0.25,0.5,0h0.25h0.25C249,0.25,249,0.25,249,0.5c0-0.25,0-0.25,0.25-0.25v0.5c0.5,0,0.75,0,1-0.25H251
		c0.25,0.25,0.25,0.25,0.5,0l0.25,0.25L252,0.5h0.25h0.25h0.25H253l0.25,0.25c0.25,0,0.25,0,0.5-0.25H254h0.75H255h0.25h0.25
		c0.25,0,0.25,0,0.25,0.25H256l0.25-0.25c0.25,0,0.5,0,0.75,0.25h0.5c0-0.25,0.25,0.25,0.25,0H258l0.25-0.25
		c0.25,0,0.25,0,0.25,0.25S258.75,1,259.25,1c0.25-0.25,0.25-0.25,0.5-0.25H260c0.25,0,0.25-0.25,0.5-0.25
		c0.25,0.25,0.25,0.25,0.5,0c0.25,0.25,0.25,0.25,0.5,0c0.25,0,0.25,0,0.25,0.25c0.25,0,0.25,0,0.25,0.25c0.25,0.25,0.25,0.5,0.25,1
		v0.75V3v0.5c-0.25,0.25-0.5,0.75-0.5,1v0.75V5.5c-0.25,0.25-0.25,0.25,0,0.5l-0.25,0.25h-0.25c-0.25,0-0.25,0-0.25,0.25
		c0,0.5,0,0.75-0.25,0.75c0,0.25-0.25,0.75-0.25,0.5h-0.25H260c-0.25-0.25-0.5-0.25-0.75-0.25C259,7.75,259,7.75,259,7.5h-1.25
		c-0.25,0.25-0.25-0.25-0.5,0L257,7.25h-0.25H256h-0.25c0-0.75-0.25,0.25-0.25,0h-0.25C255,6.5,254.75,7.5,254,6.75
		c-0.25,0.75-0.25,0-0.5,0V6.5h-0.25c0,0.25,0,0.25-0.25,0.25h0.25L253,6.5c-0.25,0.25-0.25,0.25-0.25,0h-0.25h-0.25L252,6.25V6.5
		l-0.25,0.25c-0.25,0-0.25,0.25-0.5,0.5C251,7,251,6.75,251,6.75V6.5V6.25c-0.25,0.25-0.25,0.25-0.25,0h-0.25
		c-0.25-0.25-0.25-0.25-0.25,0H250c-0.25,0-0.5,0-0.5,0.25l-0.25-0.25C249,6,249,6,248.75,6.25h-0.25L248.25,6H248h-0.25h-0.25H247
		h-0.25c-0.25,0-0.25,0-0.25,0.25c0-0.25,0-0.25-0.25-0.25L246,6.25C246,6,245.75,6,245.5,6h-0.75c-0.25,0-0.25,0-0.25-0.25
		c-0.25,0.25-0.25,0.25-0.5,0c0,0.75-0.25,0-0.5,0.25h-0.25V5.75C243,6,243,6,243,5.75C242.75,6,242.75,6,242.5,6s-0.25,0-0.5-0.25
		c-0.25,0.25-0.25,0-0.5,0.25c-0.25,0-0.25-0.25-0.5-0.25h-0.5h-0.25V6L240,5.75h-0.25c0,0.25,0,0.25-0.25,0.25h-0.25H239
		c-0.25,0-0.25,0-0.25-0.25C238.5,6,238.5,6,238.5,5.75c-0.25-0.25-0.25,0.5-0.5-0.25v0.25h-0.5h-0.25h-0.5h-1h-0.25H235h-0.25
		C234.5,6,234.5,6,234.5,5.75H234c0-0.25-0.25,0.25-0.5,0h-0.25H233h-0.25L232.5,5.5v0.25h-0.25c0-0.25-0.25-0.25-0.75,0l-0.25-0.25
		v0.25c-0.25-0.25-0.25-0.25-0.5,0c-0.25-0.25-0.25,0-0.5-0.25c0,0.25-0.25,0.25-0.25,0h-0.25l-0.25-0.25
		c-0.25,0.25-0.25,0.25-0.25,0L229,5.5h-0.25c-0.75-0.25-0.75,0-1,0H227c0,0.25,0,0.25-0.25,0h-0.25h-0.25c0,0.25-0.25,0-0.5-0.25
		c0,0.25,0,0.25-0.25,0.25h-0.75h-0.25c0-0.25,0-0.25-0.25,0h-0.75c-0.25,0-0.25,0-0.5-0.25c0,0.75-0.5,0-0.5,0.25
		c-0.25,0-0.5,0-0.5-0.25l-0.25,0.25h-0.25c0,0.25,0,0.25-0.25,0H221v0.25c0-0.25,0-0.25-0.25-0.25c-0.25-0.25-0.25-0.25-0.25,0
		s-0.25,0.25-0.25,0h-1H219h-0.25h-0.25H218h-0.25c-0.25,0.25-0.25,0.25-0.25,0h-0.25C217,5.75,217,5.75,217,5.5h-0.25l-0.25,0.25
		c0-0.25-0.25-0.5-0.25-0.25h-0.5h-0.25h-0.25H215c-0.25,0-0.25,0-0.5,0.25c0-0.25,0-0.25-0.25,0L214,5.5c0,0.25-0.5,0.5-0.5,0.25
		V5.5c-0.25,0-0.25,0-0.25-0.25C213,5.5,213,5.5,212.75,5.5h-0.25v0.25h-0.25V5.5v0.25c0,0.25-0.25,0.25-0.25,0l-0.25-0.25v0.25
		c-0.25,0-0.25,0-0.25,0.25l-0.25-0.25c0,0.25-0.25,0.25-0.25,0s-0.25-0.25-0.25,0h-0.25H210L209.75,6h-0.5H209l-0.25-0.25V5.5
		h-0.25c-0.25,0-0.25,0-0.25,0.25h0.25V6H208c-0.25,0-0.25,0-0.25-0.25s-0.25,0-0.25-0.25l-0.25,0.25V6V5.75L207,5.5
		c0,0.25-0.25,0.25-0.5,0.25c0-0.25-0.25,0-0.5,0.25V5.75h-0.25h-0.25L205.25,6L205,5.75h-0.25h-0.25V6l-0.25-0.25L204,6V5.75
		c-0.25,0-0.5,0-0.5,0.25c-0.25,0.25-0.25,0.25-0.5,0V5.75h-0.5c0,0.25,0,0.25-0.25,0.25H202h-0.25h-0.25
		c-0.25,0.25-0.25,0.25-0.25,0H201l-0.25,0.25H200h-0.5c-0.25-0.25-0.25-0.25-0.25,0h-0.5c-0.25,0-0.25,0-0.25,0.25
		c-0.25,0-0.25,0-0.25-0.25H198c0,0.25,0,0.25-0.25,0h-0.25h-0.25c0-0.25,0-0.5-0.25-0.5V6h-0.25c-0.25-0.25-0.25,0-0.25,0.25h-0.25
		H196L196.25,6H196h-0.5v0.25h-0.25V6C195,6,195,6,195,6.25h-0.25C195,6,195,6,194.75,6h-0.25c-0.25,0.25-0.25,0.25-0.25,0H194
		c0,0.75-0.25,0.25-0.5,0.5c-0.25-0.25-0.25-0.25-0.25,0H193h-0.5h-0.25H192c0,0.25-0.25,0-0.25-0.25C191.5,6,191.5,6,191.5,6.25
		V6.5c-0.25,0.25-0.5,0.25-0.5,0.25l-0.25-0.25l-0.25,0.25V6.5h-0.25c0,0.25-0.25,0.25-0.25,0h-0.25l-0.25,0.25
		c0-0.25,0-0.25-0.25,0c0-0.25,0-0.25-0.25-0.5V6.5v0.25h-0.25c-0.25,0-0.25,0-0.25-0.25s0-0.25-0.25,0L188,6.75
		c0-0.25,0-0.5-0.25-0.25l-0.25-0.25V6.5l-0.25,0.25h-0.75h-0.25v0.5c-0.25-0.25-0.5-0.5-0.75-0.5h-0.25c-0.25,0.75-0.5,0-0.75,0
		V6.5h-0.25v0.75H184c-0.25-0.5-0.25-0.5-0.25,0c-0.25,0-0.25-0.25-0.25-0.75c0,0.5,0,0.75-0.25,0.75H183v-0.5V6.5v0.25
		c-0.25,0.25-0.25,0.5-0.5,0.5L182.25,7C182,7,182,7,182,7.25c-0.25-0.75-0.25,0-0.5,0l-4.25,0.25H177h-0.25h-0.25h-0.25
		c-0.25,0-0.25,0-0.25,0.25h-0.5c-0.25,0-0.75-0.25-1-0.25c0,0.25-0.25,0-0.25,0.25c-0.25-0.25-0.5,0-0.75,0.25V7.75H173
		c-0.25,0-0.25,0-0.25,0.25s-0.25-0.25-0.25,0s-0.25,0-0.25-0.25h-0.5C171.5,8,171.25,8,171.25,8h-0.75c-0.25,0-0.25,0-0.5-0.25
		L169.75,8l-0.25,0.25C169.25,8,169,8,168.5,8h-0.75c-0.25,0.25-0.25,0.25-0.5,0c-0.25,0.25-0.25,0-0.5,0.25
		c-0.25,0-0.25,0-0.5-0.25v0.25c-0.25,0-0.25,0-0.5-0.25v0.25h-0.25c0-0.25,0-0.25-0.25-0.25H165c0,0.25-0.25,0.25-0.5,0.25L164,8
		c0,0.25,0,0.25-0.25,0.25c0-0.25,0-0.25-0.25,0C163.25,8,163,8.5,162.75,8.5c-0.25-0.25-0.25-0.25-0.5-0.25
		c-0.25,0.25-0.25,0.25-0.5,0c0-0.25,0-0.25-0.25,0h-0.25c-0.25,0-0.25,0-0.25,0.25h-0.25h-0.25h-0.25V8.25H160l-0.25,0.25h-0.25
		H159h-0.25h-0.25h-1.75c-0.25,0-0.25,0-0.25,0.25c-0.75-0.75-0.75,0-1.5-0.25l-0.25,0.25c0-0.25-0.25-0.25-0.25,0H154h-0.25h-0.5
		L153,8.5c0,0.75-0.5-0.25-0.5,0.5c-0.25-0.25-0.5-0.25-0.75-0.25s-0.25,0-0.25,0.25h-0.25L151,8.75C150.75,9,150.5,9,150.5,9h-0.25
		h-0.75h-0.75h-0.5l-0.75,0.25H147c-0.25-0.25-0.25-0.25-0.25,0s0,0.25-0.25,0H146c-0.25,0-0.25,0-0.25,0.25
		c-0.25-0.25-0.25-0.25-0.5-0.25H145h-0.5c0,0.25-0.25,0-0.25,0.25h-0.5H143h-0.25h-0.5c0,0.25,0,0.25-0.25,0h-0.5h-0.25H141h-0.25
		c0,0.25,0,0.25-0.25,0.25c-0.25-0.25-0.5-0.25-0.75,0c0-0.25,0-0.25-0.25-0.25l-1.75,0.25c-0.25,0,0,0.25-0.75,0h-0.75H136V10
		c-0.25,0-0.25,0-0.25-0.25c0,0.25-0.25,0.25-0.25,0L135.25,10h-1.5c0,0.25,0,0.25-0.25,0h-0.25L133,10.25h-1.75
		c-0.25,0.25-0.25,0.25-0.25,0c-0.25,0.25-0.25,0-0.5,0.25h-0.25h-0.5h-0.25c-0.25,0-0.25,0-0.5,0.25h-0.25l-0.25-0.25l-3.75,0.5
		c-0.25,0-0.25,0-0.25-0.25C124.25,11,124.25,11,124,11h-0.5h-0.25H123c-0.25,0.25-0.25,0-0.5,0.25h-1.75h-0.25v0.25
		c-0.25,0-0.25,0-0.25-0.25v0.5C120,11,120,12,120,11.75c-0.25-0.25-0.25-0.25-0.25,0h-1h-0.25c-0.25,0.25-0.25,0.25-0.5,0
		c-0.5,0-0.75,0-1,0.25s-0.75,0-1.5,0.25h-0.25L115,12.5l-0.5-0.25L112,12.5l-0.25,0.25c0-0.25-0.25-0.25-0.25,0h-0.25
		c-0.25-0.25-0.25-0.25-0.25,0h-0.5c-0.25,0.25-0.25,0.25-0.5,0h-0.25c-0.25,0-0.25,0-0.25,0.25h-0.25c0,0.25-0.25,0-0.5-0.25
		c0,0.25,0,0.25-0.25,0.25c-0.25-0.25-0.25-0.25-0.25,0S108,13,108,13.25c-0.25-0.75-0.25,0.5-0.5-0.25
		c-0.25,0.25-0.5,0.25-0.75,0.25h-0.25c-0.25,0-0.25,0-0.25,0.25L106,13.25h-0.25l-0.25,0.25l-0.25-0.25
		c-0.25,0.25-0.25,0.25-0.5,0.25h-0.5H104h-0.25v0.25h-0.25c0,0.25,0,0.25-0.25,0h-0.75h-0.25H102c-0.25,0.25-0.25,0-1,0.25
		c0,0.25-0.25,0.25-0.25,0h-0.25l-0.25,0.25L100,14v0.25c-0.25,0.25-0.25,0.25-0.25,0H99.5h-0.75v0.25c-0.25-0.25-0.5-0.25-0.5-0.25
		c0,0.25-0.25,0.25-0.25,0l-0.25,0.25H97.5h-0.25H97h-0.5h-0.25h-0.5H95.5c-0.25,0-0.25,0-0.25,0.25L95,14.5l-0.25,0.25h-0.5
		C94,14.75,94,14.75,94,15c0-0.25-0.25-0.25-0.5-0.25c0,0.25,0,0.25-0.25,0.25H93h-0.25H92h-0.25H91.5
		c-0.25,0.25-0.25,0.25-0.5,0.25C91,15,91,15,90.75,15v0.25C90.5,15,90.5,15.5,90.25,15.5c0-0.25,0-0.25-0.25-0.25
		s-0.25,0-0.25,0.25H89.5h-0.25c-0.25-0.25-0.25,0.25-0.5,0c-0.25,0.25-0.25,0.25-0.5,0.25H87.5H87l-0.25,0.5
		c-0.25,0-0.25,0-0.25,0.25H86v-0.25l-0.25,0.25c-0.5,0-0.75,0-1,0.25c-0.25-0.75-0.25,0-0.5,0H84h-0.25H83.5h-0.25L83,17
		c-0.75-0.25-0.75,0-1,0h-0.5h-0.25v0.25c-0.25,0-0.75,0.25-1,0.25H80c-0.25,0-0.25,0-0.25-0.25c0,0.25-0.25,0-0.25,0.25
		c-0.25-0.25-0.25,0.25-1,0l-0.25,0.25C78,17.5,78,18,77.75,17.75h-0.5C77,17.75,77,17.75,77,18h-0.25h-0.5c-0.5,0-1,0-1.25,0.25
		h-0.25H74.5c-0.25,0-0.5,0-0.5,0.25c0-0.25-0.25-0.25-0.25,0H73.5c-0.25,0-0.25,0-0.25-0.25c0,0.25,0,0.25-0.25,0.25h-0.25H72.5
		c-0.25,0.25-0.25,0.25-0.5,0.25h-0.25c-0.25,0-0.25,0-0.5,0.25c0,0.25,0,0.25-0.25,0v0.25h0.25c0,0.25,0,0.25-0.25,0.25
		c0,0.25,0,0.25-0.25,0v0.25L70.5,19.5c-0.25,0.25-0.5,0.25-0.5,0.25h-0.25c-0.25,0-0.25,0-0.25-0.25H70v-0.25L69.5,19H69
		l-0.25,0.25H68.5h-0.25H68v0.25l0.25,0.25l0.5-0.25v0.25V20L67,20.25h-0.25V20v-0.25H67h0.25h0.25c0-0.25,0-0.25,0.25,0L68,19.5
		v-0.25c0-0.25-0.25,0-0.25,0.25H67.5c0-0.25-0.25-0.5-0.25-0.25H67c0,0.25,0,0.25-0.25,0.25H66.5v0.25l-0.25-0.25H66l-0.25,0.25
		c-0.25-0.25-0.25-0.25-0.25,0H65c0-0.25,0-0.25-0.25-0.25l-0.25,0.25h-0.75c0,0.25-0.25,0-0.25,0.25H63h-0.5H62v0.25
		c0,0.25-0.25,0.25-0.25,0L61.5,20v0.25c0,0.75-0.25-0.25-0.25,0.5C61,20,60.5,20,60.5,20.75c-0.25-0.75-0.25,0.25-0.5,0l-0.25-0.25
		v0.25c-0.25-0.75-0.25,0-0.5,0c0,0.25-0.25,0.25-0.5,0V21h-0.5L58,21.25h-0.25v0.25C58,21.75,58,21.75,58,21.5v0.25
		c0,0.25,0,0.25-0.25,0c0,0.25,0,0.25-0.25,0h-0.25C57,21.75,57,21.75,57,22h-0.5H56v0.25h-0.5c0,0.25,0,0.25-0.25,0H55h-0.25H54.5
		v0.25c-0.25,0-0.25,0-0.5-0.25c0.25,0,0.25,0,0.5-0.25h-0.25v-0.25H54h-0.25c-0.25-0.25-0.25-0.25-0.25,0
		c-0.25-0.25-0.25-0.25-0.5-0.25l-1,0.25h-0.25L51.5,22C51.5,21.75,51.5,21.5,51.25,21.75z M52.5,21.75V22h0.25
		C53,22,53,22,53,21.75V22h0.25l0.25,0.25H53h-0.25h-0.5H52h-0.25H51.5l-0.25,0.25c-0.75,0-1.25,0.25-2,0.25c0-0.25,0-0.5,0.25-0.25
		c0.25,0,0.25,0,0.25-0.25C50,22.5,50,22.5,50,22.25h0.25c0.25,0,0.25,0,0.25-0.25c0.25,0.25,0.25,0.25,0.25,0C51,22,51,22,51,22.25
		C51,22,51,22,51.25,22h0.25C52,22,52.25,22,52.5,21.75z M64.25,20.75H64l-2.25,0.5H61.5v0.25c-0.25-0.25-0.25-0.25-0.5-0.25h-0.5
		l-0.25,0.25h-0.5H59.5H59h-0.25v-0.25C59,21.5,59,21.5,59,21.25h0.25h0.25h0.25V21H60h0.25H61h0.5c0-0.25,0.25,0,0.25-0.25H62h0.25
		h0.5l0.25-0.5l0.25,0.5C63.5,20,64,21,64,20.25h0.5c0.25,0,0.25,0,0.25-0.25H65h0.5v0.25c-0.25,0.25-0.5,0.5-0.75,0.5H64.25z
		 M83,17.5c0,0.25-0.25,0-0.25,0.25H82.5h-0.25H82c-0.25,0-0.25,0.25-0.5,0.25c-0.25-0.25-0.25-0.25-0.25,0H81
		c-0.75,0.25-1.5,0.25-2.5,0.5v-0.25c0.25,0,0.5,0,0.5-0.25h0.25c0.25,0.25,0.25,0.25,0.5,0H80c0-0.25,0.25,0.25,0.25,0l0.25-0.25
		L82,17.5h0.25h0.5H83z"/>
</g>
</svg>
